<svg width="226" height="32" viewBox="0 0 226 32" fill="none" xmlns="http://www.w3.org/2000/svg">
<path d="M10.7866 4.31773C12.4719 3.18782 14.8735 4.04195 15.9076 3.23378C15.9306 3.21463 15.9689 3.23378 15.9995 3.23378C15.7736 1.28037 14.5977 0.648389 13.8278 0.449219C12.4719 1.47954 9.14348 0.433898 8.20508 2.349C9.20859 2.62094 10.0742 3.28357 10.7866 4.31773Z" fill="#2D2D2D"/>
<path d="M5.6766 8.4306C6.57286 6.61126 9.08165 6.1478 9.56808 4.9298C9.57958 4.89916 9.62171 4.89916 9.64852 4.88383C8.47648 3.30579 7.14356 3.34792 6.37369 3.55858C5.7149 5.12897 2.30985 5.88735 2.45156 8.01694C3.45891 7.75266 4.53903 7.89055 5.67277 8.4306H5.6766Z" fill="#2D2D2D"/>
<path d="M3.30996 14.5481C3.17591 12.5219 5.11782 10.8711 4.93014 9.57268C4.92631 9.54204 4.96461 9.51906 4.97993 9.49225C3.17591 8.71088 2.04217 9.41181 1.48296 9.97868C1.69745 11.6678 -0.872619 14.0272 0.314744 15.8006C1.05397 15.069 2.06132 14.6477 3.30996 14.5481Z" fill="#2D2D2D"/>
<path d="M4.31773 21.0244C3.18782 19.3391 4.04195 16.9376 3.23378 15.9034C3.21463 15.8805 3.23378 15.8422 3.23378 15.8115C1.28037 16.0375 0.648389 17.2134 0.449219 17.9833C1.47954 19.3391 0.433898 22.6676 2.349 23.606C2.62094 22.6025 3.28357 21.7369 4.31773 21.0244Z" fill="#2D2D2D"/>
<path d="M8.4306 26.134C6.61126 25.2378 6.1478 22.729 4.9298 22.2425C4.89916 22.2311 4.89916 22.1889 4.88383 22.1621C3.30579 23.3342 3.34792 24.6671 3.55858 25.4369C5.12897 26.0957 5.88735 29.5008 8.01694 29.3591C7.75266 28.3517 7.89055 27.2716 8.4306 26.1379V26.134Z" fill="#2D2D2D"/>
<path d="M14.5481 28.4971C12.5219 28.6312 10.8711 26.6893 9.57268 26.8769C9.54204 26.8808 9.51906 26.8425 9.49225 26.8271C8.71088 28.6312 9.41181 29.7649 9.97868 30.3241C11.6678 30.1096 14.0272 32.6797 15.8006 31.4923C15.069 30.7531 14.6477 29.7458 14.5481 28.4971Z" fill="#2D2D2D"/>
<path d="M21.0254 27.4902C19.3401 28.6201 16.9386 27.766 15.9044 28.5742C15.8814 28.5933 15.8431 28.5742 15.8125 28.5742C16.0385 30.5276 17.2144 31.1596 17.9842 31.3587C19.3401 30.3284 22.6686 31.3741 23.607 29.459C22.6035 29.187 21.7378 28.5244 21.0254 27.4902Z" fill="#2D2D2D"/>
<path d="M26.134 23.3799C25.2378 25.1992 22.729 25.6627 22.2425 26.8807C22.2311 26.9113 22.1889 26.9113 22.1621 26.9267C23.3342 28.5047 24.6671 28.4626 25.4369 28.2519C26.0957 26.6815 29.5008 25.9231 29.3591 23.7935C28.3517 24.0578 27.2716 23.9199 26.1379 23.3799H26.134Z" fill="#2D2D2D"/>
<path d="M28.4981 17.2632C28.6322 19.2894 26.6902 20.9402 26.8779 22.2387C26.8817 22.2693 26.8434 22.2923 26.8281 22.3191C28.6322 23.1005 29.7659 22.3995 30.3251 21.8327C30.1106 20.1435 32.6807 17.7841 31.4933 16.0107C30.7541 16.7423 29.7467 17.1636 28.4981 17.2632Z" fill="#2D2D2D"/>
<path d="M27.4902 10.7866C28.6201 12.4719 27.766 14.8735 28.5742 15.9076C28.5933 15.9306 28.5742 15.9689 28.5742 15.9995C30.5276 15.7736 31.1596 14.5977 31.3587 13.8278C30.3284 12.4719 31.3741 9.14348 29.459 8.20508C29.187 9.20859 28.5244 10.0742 27.4902 10.7866Z" fill="#2D2D2D"/>
<path d="M23.3809 5.6766C25.2002 6.57286 25.6637 9.08165 26.8817 9.56808C26.9123 9.57958 26.9123 9.62171 26.9276 9.64852C28.5057 8.47648 28.4635 7.14356 28.2529 6.37369C26.6825 5.7149 25.9241 2.30985 23.7945 2.45156C24.0588 3.45891 23.9209 4.53903 23.3809 5.67277V5.6766Z" fill="#2D2D2D"/>
<path d="M17.2622 3.30996C19.2884 3.17591 20.9392 5.11782 22.2377 4.93014C22.2683 4.92631 22.2913 4.96461 22.3181 4.97993C23.0995 3.17591 22.3985 2.04217 21.8317 1.48296C20.1426 1.69745 17.7832 -0.872619 16.0098 0.314744C16.7413 1.05397 17.1627 2.06132 17.2622 3.30996Z" fill="#2D2D2D"/>
<path d="M19.7058 9.4647C19.7134 10.6942 19.7556 11.9275 19.7058 13.1608C19.656 14.0112 19.2117 15.4207 18.5605 16.1101C19.9318 16.022 21.6937 15.9722 23.0649 16.1024C21.5634 15.2138 22.2261 8.12796 22.3027 6.99805C22.3027 6.99805 22.2797 7.01337 22.2299 7.04018C21.1613 7.67216 20.0045 8.17775 18.8019 8.49183C19.3381 8.55311 19.7096 8.87868 19.7058 9.46087V9.4647Z" fill="#2D2D2D"/>
<path d="M12.8651 22.5484C12.5089 22.8855 11.8271 23.1114 11.333 23.0808C10.4483 23.0272 9.74351 22.3186 9.68605 21.4338C9.65541 20.9435 9.82394 20.4724 10.161 20.1162C10.4942 19.7638 10.9615 19.5608 11.4441 19.5608C11.8271 19.5608 12.1987 19.6872 12.5013 19.9132L14.6998 18.1743C14.4355 18.113 14.1942 17.9675 13.9261 17.8028C13.386 17.4772 12.7157 17.0674 11.4441 17.0674C10.2912 17.0674 9.21111 17.5232 8.40294 18.3467C7.59476 19.174 7.16578 20.2656 7.19259 21.4185C7.2194 22.5101 7.65988 23.5404 8.44124 24.318C9.21877 25.0955 10.2491 25.5398 11.3407 25.5666C11.8731 25.5781 12.2676 25.536 12.7502 25.3636C13.0988 24.3141 12.8651 22.5369 12.8651 22.5369V22.5484Z" fill="#2D2D2D"/>
<path d="M15.5735 23.2068C15.5812 22.954 15.5965 22.705 15.6233 22.4599C15.6387 22.3067 15.6578 22.1573 15.6846 22.0118C15.7306 21.7398 15.6578 21.4602 15.4855 21.2457C15.3169 21.0351 15.0718 20.9087 14.7998 20.8895C14.3555 20.8627 14.1372 20.8972 13.9266 20.9278C13.6201 20.9738 13.329 21.0159 12.4902 20.8933C12.6473 21.0466 12.7852 21.2266 12.9001 21.4372C12.9422 21.5138 12.9805 21.5904 13.015 21.6747C13.0456 21.7475 13.0763 21.8279 13.1031 21.9084C13.2678 22.3871 13.3482 22.9693 13.3405 23.6473C13.3367 24.2256 13.2678 24.7733 13.1988 25.2023C13.1873 25.2636 13.1797 25.3211 13.1682 25.3785C13.1567 25.4398 13.1452 25.5011 13.1337 25.5585C13.1222 25.6198 13.1107 25.6811 13.0992 25.7309C13.2716 25.6696 13.4478 25.6466 13.624 25.6466C13.8653 25.6466 14.1142 25.6888 14.3709 25.7347C14.8267 25.8152 15.2939 25.8956 15.8302 25.7615C15.6348 24.9763 15.5467 24.0839 15.5697 23.2106L15.5735 23.2068Z" fill="#2D2D2D"/>
<path d="M19.3071 20.3461L19.7514 20.6717L19.6824 17.5654C18.9432 17.6382 17.7865 17.6344 16.7715 17.5156C17.2081 18.0059 17.6831 18.9749 17.6831 20.4917C17.6831 20.8402 17.6831 21.1773 17.6869 21.4952C17.7022 23.6478 17.7099 25.0764 17.009 25.8004C17.6026 25.7621 18.2155 25.7467 18.8092 25.7467C19.5177 25.7467 20.1995 25.7735 20.7817 25.8233C20.3489 25.3292 20.0578 24.433 19.9008 23.3797C18.5449 22.6366 19.2994 20.3461 19.2994 20.3461H19.3071Z" fill="#2D2D2D"/>
<path d="M23.4359 17.7341C22.7579 17.2515 21.831 17.2208 21.1761 17.2821C20.636 17.3319 20.1802 17.4506 19.981 17.5081L20.0308 19.5381C20.5019 19.4002 21.7008 19.1206 22.2868 19.5955C22.5511 19.81 22.6583 20.1394 22.6009 20.5761C22.5358 21.0855 22.1949 21.4455 21.6663 21.5643C21.2029 21.6677 20.0691 21.3153 19.4946 20.8787C19.4946 20.8787 18.7745 23.4755 21.5399 23.5828C22.1489 23.6058 22.8077 23.4219 23.3171 22.8168C23.9108 22.1043 24.4049 21.3077 24.3973 20.0552C24.3896 18.9712 24.0679 18.1899 23.432 17.7379L23.4359 17.7341Z" fill="#2D2D2D"/>
<path d="M13.8918 13.0454C13.8688 12.8577 13.8496 12.67 13.8381 12.4785C13.3938 12.5589 12.9457 12.6394 12.4976 12.7083C12.1643 12.7581 11.8311 12.8079 11.494 12.85C11.5285 13.4859 11.4749 14.1676 11.2604 14.7651C11.2221 14.8686 11.2029 14.9796 11.1991 15.0869C11.1761 15.5427 11.1493 16.0023 11.0957 16.4543C11.6396 16.324 12.1988 16.2819 12.7504 16.2398C13.1027 16.2015 13.4934 16.2015 13.796 16.0061C13.9645 15.8836 13.999 15.6921 13.9952 15.4814C14.0296 15.0294 14.0488 14.5775 14.0526 14.1217C14.0526 13.9991 14.0373 13.8765 14.0143 13.754C13.9645 13.5127 13.9262 13.2714 13.8918 13.0377V13.0454Z" fill="#2D2D2D"/>
<path d="M11.1447 9.84376C11.229 9.9242 11.3209 9.98548 11.4243 10.0161C11.7997 10.1617 12.3283 9.81695 12.3283 9.81695C12.3283 9.81695 12.1482 10.3225 11.7844 10.5409C12.2287 10.4528 12.6653 10.3685 13.1135 10.2842C13.4045 9.98165 13.7876 9.51819 14.0097 9.16198C14.0136 8.96664 14.0212 8.77513 14.0289 8.57979C14.048 8.2006 14.1285 7.46137 14.4693 7.08984C13.642 7.26603 12.7841 7.25454 11.9414 7.26986C11.7614 7.28518 11.5699 7.33881 11.4282 7.44988C11.1256 7.68353 11.072 8.09336 11.0834 8.44957C11.1026 8.91302 11.1256 9.37648 11.1447 9.84376Z" fill="#2D2D2D"/>
<path d="M10.8803 14.9911C10.9033 14.949 10.9225 14.9031 10.9416 14.8571C10.9991 14.7307 11.045 14.6005 11.0872 14.4702C11.1485 14.2711 11.1983 14.0681 11.2289 13.8612C11.2825 13.5357 11.2978 13.2024 11.294 12.873C11.271 12.873 11.2519 12.8769 11.2289 12.8807C11.1868 12.8845 11.1446 12.8922 11.1025 12.896C11.0604 12.8999 11.0182 12.9037 10.9761 12.9113C10.3709 12.9803 9.76576 13.0263 9.15675 13.0531C9.03802 13.9302 8.63585 14.792 7.88896 15.2899C7.77022 15.3665 7.64382 15.4278 7.50977 15.4776C8.18771 15.6499 8.83885 15.964 9.53977 15.9487C10.1449 15.941 10.6161 15.5082 10.8765 14.9873L10.8803 14.9911Z" fill="#2D2D2D"/>
<path d="M18.2522 15.2864C18.0224 15.2059 17.8117 15.0757 17.6279 14.9263C16.8618 14.2752 16.2835 13.1874 16.0498 12.1494C15.5672 12.1494 14.9506 12.2758 14.7859 12.3065C14.602 12.3409 14.4143 12.3754 14.2305 12.4099C14.196 12.4175 14.1654 12.4214 14.1309 12.429C14.1003 12.4367 14.0658 12.4405 14.0352 12.4482C14.0352 12.4635 14.0352 12.4826 14.039 12.498C14.0658 12.7737 14.1079 13.0495 14.1616 13.3253C14.196 13.5091 14.2382 13.693 14.2879 13.873C14.2956 13.9075 14.3071 13.942 14.3148 13.9764C14.5331 14.708 14.874 15.5353 15.6094 15.8609C16.0498 16.0409 16.521 15.949 16.9653 15.7919C17.3981 15.6426 17.8156 15.4357 18.256 15.294L18.2522 15.2864Z" fill="#2D2D2D"/>
<path d="M9.5089 10.744C9.70807 10.721 9.91107 10.6904 10.1102 10.6597C10.3937 10.6138 10.6771 10.564 10.9605 10.5142C10.9988 10.5065 11.0333 10.4988 11.0716 10.495C11.1061 10.4874 11.1444 10.4835 11.1789 10.4759C11.2708 10.4567 11.6653 10.315 11.7611 10.2077C11.5236 10.2729 11.3206 10.2307 11.1559 10.112C11.1176 10.0852 11.0831 10.0545 11.0486 10.0201C11.0103 9.98177 10.9759 9.93963 10.9414 9.89367C10.5162 9.31148 10.4473 8.12795 10.6656 7.55725C10.2022 7.47681 9.74254 7.55725 9.30589 7.70279C8.90755 7.82919 8.50921 7.97474 8.08789 8.02836C8.41346 8.75993 8.56284 9.55661 8.98033 10.2422C9.12588 10.4874 9.3059 10.6023 9.50507 10.744H9.5089Z" fill="#2D2D2D"/>
<path d="M8.18388 12.8119C8.5669 12.8119 10.3862 12.7123 10.9799 12.651C11.0221 12.6472 11.0642 12.6433 11.1025 12.6395C11.1446 12.6357 11.1868 12.6319 11.2251 12.628C11.2442 12.628 11.2672 12.6242 11.2863 12.6204C11.317 12.6204 11.3515 12.6127 11.3821 12.6089C11.4127 12.6089 11.4434 12.6012 11.474 12.5974C11.8034 12.5591 12.1328 12.5208 12.4622 12.4786C12.918 12.4212 14.4884 12.1569 15.1319 12.0573C17.4223 11.6935 16.6563 12.4097 16.6869 12.6702C16.8938 12.3369 17.3113 12.4403 17.4108 11.8199C17.4491 11.5786 17.4453 11.3296 17.4415 11.0845C17.4377 10.5597 17.5526 9.70175 16.1162 9.85496C14.4731 10.035 12.5503 10.7551 12.5503 10.7551C12.7686 10.5942 12.9755 10.4142 13.167 10.2188C12.7035 10.3222 12.2401 10.4295 11.7766 10.5367C11.6962 10.5559 8.72777 11.3219 7.94641 10.8585C7.84299 11.1228 8.32177 11.9386 8.17622 12.808L8.18388 12.8119Z" fill="#2D2D2D"/>
<path d="M14.5584 6.90298C14.5584 6.90298 14.5661 6.90298 14.5699 6.90298C14.9108 6.91831 14.8801 7.38942 14.8457 7.71116C14.6657 9.26622 13.1872 10.4 13.1719 10.4191C13.1719 10.4191 14.501 9.58413 15.9564 9.49603C16.0637 9.48837 16.5463 9.54966 16.8106 9.10918C17.1246 8.58828 17.1821 7.55412 17.2702 6.87617C16.3931 7.01406 15.4547 6.58508 14.612 6.84553C14.6082 6.84553 14.6044 6.84553 14.6005 6.84936C14.6005 6.84936 14.6005 6.84936 14.5967 6.84936C14.5201 6.87234 14.4473 6.90298 14.3746 6.93746C14.4435 6.91448 14.5048 6.90298 14.5584 6.90298C14.5584 6.90298 14.5584 6.90298 14.5622 6.90298H14.5584Z" fill="#2D2D2D"/>
<path d="M44.6593 9.81754C44.6593 9.17024 44.6287 8.76041 44.5636 8.30078H47.26C47.1949 8.72593 47.1643 9.17024 47.1643 9.81754V13.6516H50.9677C51.818 13.6516 52.561 13.6209 53.1126 13.5405V15.988C52.4653 15.9076 51.7567 15.8769 50.983 15.8769H48.3938C48.9606 16.5855 49.7995 17.409 50.6038 18.0065C51.4733 18.6538 52.4806 19.2054 53.6335 19.665C52.9402 20.5 52.6568 20.9596 52.1167 22.0321C50.6191 21.1818 49.9373 20.6762 48.9453 19.7454C48.1563 19.0215 47.666 18.4202 47.1145 17.5201L47.1298 17.8035C47.1451 18.2134 47.1604 18.4815 47.1604 18.7496V21.0707C47.1604 21.7333 47.1911 22.4572 47.2715 23.1045H44.5406C44.6057 22.5989 44.6517 21.875 44.6517 21.0707V18.7841C44.6517 18.2938 44.667 17.9644 44.6976 17.5392C44.0963 18.5006 43.5294 19.1632 42.5374 20.048C41.6373 20.8677 40.8789 21.4192 39.8716 21.9899C39.3047 20.9022 39.0366 20.5076 38.4199 19.7799C39.6647 19.213 40.4882 18.6921 41.4956 17.838C42.2846 17.1754 42.8208 16.6085 43.3417 15.8808H41.0857C40.2354 15.8808 39.569 15.9114 38.9064 15.9918V13.5443C39.4119 13.6248 40.0286 13.6554 41.0666 13.6554H44.6478V9.82137L44.6593 9.81754ZM41.8173 13.6209C41.2504 12.311 40.7602 11.4607 39.7643 10.101L41.7522 8.8868C42.7787 10.2274 43.2345 10.9206 43.9622 12.2957L41.8173 13.6209ZM47.8307 12.3416C48.7462 11.1734 49.2671 10.3384 49.9603 8.87148L52.1206 10.0244C51.2856 11.6024 50.734 12.4527 49.7995 13.6209L47.8269 12.3416H47.8307Z" fill="#2D2D2D"/>
<path d="M79.3079 12.2153C79.1968 12.403 79.0704 12.7668 78.898 13.2878C77.4004 18.0219 74.7308 20.9558 69.9966 23.0854C69.537 22.1853 68.8782 21.335 68.1045 20.6724C72.2718 19.1748 74.8418 16.666 76.0101 12.989L71.8122 13.035C70.8354 14.5977 69.5715 15.9689 68.2309 16.9954C67.4725 16.1259 66.9669 15.6855 65.9902 15.1033C67.8058 13.8585 69.1923 12.2613 70.1881 10.2887C70.598 9.46904 70.8201 8.85237 70.8661 8.39658L73.8498 8.93281C73.7694 9.08985 73.7541 9.10517 73.6583 9.312C73.643 9.35796 73.597 9.45372 73.5472 9.56479C73.4821 9.70651 73.4208 9.84823 73.4055 9.89802C73.2944 10.1355 73.2332 10.2925 73.2178 10.3079C73.2025 10.3538 73.1527 10.4649 73.0914 10.576L76.6727 10.5453H77.0212C76.7684 10.0091 76.5003 9.56862 76.1211 9.02856L77.6839 8.52298C78.2354 9.24689 78.6452 10.0206 78.9938 10.936L78.5035 11.1084L79.3079 12.2115V12.2153ZM79.8939 7.86035C80.4148 8.55362 80.7787 9.21624 81.2038 10.2121L79.7062 10.7636C79.2657 9.72183 78.9019 9.02856 78.4116 8.35062L79.8939 7.86035Z" fill="#2D2D2D"/>
<path d="M82.1797 12.8631C82.8883 12.9588 83.3939 12.9895 84.7191 12.9895H92.64C93.3984 12.9895 93.5094 12.9742 93.9039 12.8171L95.1334 14.1424C94.9419 14.4258 94.9113 14.4909 94.693 15.1344C93.8733 17.4861 92.7357 19.2519 91.1883 20.5465C89.9895 21.5576 88.8519 22.1705 86.6917 23.0093C86.2818 22.0786 85.8414 21.4312 84.9259 20.4201C86.8181 19.9298 87.9556 19.4242 89.0932 18.5739C90.2461 17.7236 90.9394 16.8235 91.5216 15.4178H84.6885C83.4437 15.4178 83.1717 15.4331 82.1797 15.5136V12.8631ZM83.4896 8.91797C84.1063 9.01372 84.6885 9.04437 85.8107 9.04437H90.8436C92.0884 9.04437 92.7702 9.01372 93.3218 8.91797V11.5685C92.7204 11.5225 91.9812 11.488 90.8934 11.488H85.7801C84.5353 11.488 84.1867 11.5034 83.4935 11.5685V8.91797H83.4896Z" fill="#2D2D2D"/>
<path d="M99.0167 9.4541C101.005 10.6223 102.031 11.3462 103.356 12.5489L101.495 15.0117C100.124 13.5754 98.7792 12.5336 97.2012 11.6833L99.0167 9.45793V9.4541ZM97.3582 19.2556C98.9669 19.1292 100.625 18.7347 102.108 18.118C104.096 17.2984 105.517 16.1148 106.731 14.2189C107.393 13.2077 107.819 12.3421 108.278 11.1279C109.052 12.0586 109.416 12.3727 110.599 13.2422C109.163 16.3523 107.665 18.2138 105.455 19.6348C103.751 20.7379 102.253 21.3239 99.3154 22.0019C98.6988 22.1436 98.6069 22.1589 98.1779 22.2853L97.3582 19.2556Z" fill="#2D2D2D"/>
<path d="M124.782 11.76L124.766 11.8251C124.751 11.8902 124.736 11.9362 124.72 11.9822L124.625 12.392C123.33 17.4555 120.584 20.6461 115.566 22.8868C115.045 21.8296 114.605 21.2283 113.578 20.2363C117.776 18.9263 120.615 16.1341 121.515 12.4571H114.919C113.245 12.4724 112.866 12.4878 112.314 12.5529V9.71086C112.916 9.80661 113.356 9.83725 114.965 9.83725H123.012C123.058 8.86055 123.817 8.13281 124.778 8.13281C125.739 8.13281 126.563 8.92183 126.563 9.91769C126.563 10.9135 125.789 11.6834 124.797 11.7026L124.782 11.7677V11.76ZM123.882 9.91386C123.882 10.3888 124.292 10.7986 124.782 10.7986C125.272 10.7986 125.682 10.3888 125.682 9.91386C125.682 9.43891 125.272 9.01376 124.782 9.01376C124.292 9.01376 123.882 9.42359 123.882 9.91386Z" fill="#2D2D2D"/>
<path d="M131.789 9.04395C131.724 9.77168 131.708 10.0551 131.708 11.1582V14.299C131.708 15.4212 131.724 15.923 131.789 16.555H128.729C128.809 15.9881 128.824 15.4366 128.824 14.253V11.1276C128.824 10.1662 128.809 9.73721 128.729 9.04395H131.789ZM139.128 9.04395C139.062 9.92872 139.047 10.1624 139.047 11.1735V13.0197C139.047 15.1799 138.921 16.6967 138.683 17.6121C138.208 19.3319 137.136 20.6265 135.401 21.6185C134.501 22.1394 133.666 22.4726 132.118 22.9131C131.754 21.856 131.36 21.1934 130.51 20.2167C132.026 19.9332 132.831 19.6804 133.635 19.2553C135.022 18.5122 135.734 17.5815 135.987 16.1949C136.083 15.6127 136.159 14.2224 136.159 12.8512V11.2118C136.159 10.0589 136.144 9.72955 136.063 9.05161H139.124L139.128 9.04395Z" fill="#2D2D2D"/>
<path d="M151.419 9.28168C151.314 9.60853 151.198 10.003 151.07 10.4652C150.706 11.7445 150.139 13.2421 149.699 14.1422C149.385 14.7895 149.163 15.1342 148.768 15.7203C148.106 14.9772 147.822 14.6938 146.907 14.0158C147.19 13.6673 147.271 13.56 147.474 13.2115C147.19 13.1808 146.891 13.1655 146.604 13.1655H146.129C146.681 14.2686 147.091 14.824 148.086 15.816C147.611 16.7161 147.439 17.1566 147.156 18.0567C146.635 17.4247 146.382 17.0149 146.033 16.291C146.064 16.7659 146.079 17.2217 146.079 18.0107V21.1017C146.079 21.906 146.11 22.584 146.175 23.1355H143.697C143.758 22.5993 143.793 21.8562 143.793 21.1017V19.2249C143.803 18.395 143.818 17.7796 143.839 17.3787C143.318 18.6887 143.004 19.29 142.433 20.0752C142.165 18.9721 141.927 18.2444 141.518 17.3443C142.494 16.1148 143.191 14.7244 143.586 13.1617H143.111C142.605 13.1617 142.276 13.177 141.943 13.2421V10.8904C142.241 10.9555 142.59 10.9708 143.142 10.9708H143.774V9.92899C143.774 9.18593 143.758 8.74545 143.678 8.27051H146.171C146.106 8.7263 146.076 9.20125 146.076 9.92899V10.9708H146.581C146.93 10.9708 147.274 10.9402 147.542 10.8904V13.0851C148.205 11.8862 148.822 9.92899 148.963 8.5233L151.411 9.28168H151.419ZM153.062 13.8894C153.008 14.0477 152.934 14.2788 152.84 14.5827C152.223 16.651 151.702 18.1026 150.948 19.8684C151.909 19.742 152.415 19.6615 153.249 19.4892C152.935 18.6695 152.729 18.2252 152.177 17.0761L154.307 16.2067C155.41 18.4014 155.823 19.4241 156.628 21.7758L154.341 22.9747C154.169 22.312 154.088 22.0286 153.962 21.6035C152.054 22.0631 150.27 22.3772 148.125 22.6146C147.857 22.6453 147.73 22.6606 147.477 22.7257L147.052 20.1365C147.163 20.1518 147.32 20.1518 147.401 20.1518C147.558 20.1518 147.906 20.1365 148.377 20.1058C148.868 18.8917 149.121 18.1984 149.53 16.9191C150.097 15.1687 150.415 13.9852 150.507 13.2881L153.062 13.8894ZM154.15 8.47734C154.605 10.5112 155.475 12.2348 156.72 13.5255C155.946 14.2993 155.758 14.5367 154.969 15.6398C154.307 14.8202 153.943 14.2686 153.487 13.3992C152.966 12.388 152.744 11.8058 152.192 9.95963C152.146 9.7528 152.081 9.58044 151.97 9.297L154.15 8.47734Z" fill="#2D2D2D"/>
<path d="M160.003 12.1193C161.359 12.9237 161.88 13.2722 163.113 14.2183L161.757 16.2215C160.543 15.195 159.896 14.7545 158.57 14.0421L160.007 12.1155L160.003 12.1193ZM163.098 17.8187C162.355 19.9176 162.01 20.722 161.297 22.0625C161.202 22.2694 161.156 22.3306 160.964 22.6447C160.88 22.7826 160.801 22.9192 160.727 23.0546L158.612 21.239C159.401 20.3236 160.221 18.6996 161.075 16.4245L163.094 17.811L163.098 17.8187ZM162.167 12.2457C161.11 11.2997 160.493 10.84 159.072 9.95908L160.57 8.19336C161.799 8.90195 162.446 9.33093 163.584 10.2272V9.08963C164.136 9.15091 164.672 9.18538 165.572 9.18538H171.11C171.98 9.18538 172.497 9.15474 173.068 9.08963V11.6291C172.531 11.5639 171.915 11.5333 171.11 11.5333H169.345V19.864H171.348C172.233 19.864 172.926 19.8334 173.382 19.7682V22.323C172.815 22.2579 172.244 22.2272 171.348 22.2272H164.879C163.979 22.2272 163.412 22.2579 162.845 22.323V19.7682C163.35 19.8334 163.998 19.864 164.879 19.864H166.821V11.5333H165.541C164.722 11.5333 164.105 11.5639 163.584 11.6291V10.4302L162.163 12.2457H162.167Z" fill="#2D2D2D"/>
<path d="M183.409 16.95C185.125 15.5941 187.002 14.6366 187.002 12.8785C187.002 11.603 186.324 10.7451 185.106 10.7451C183.731 10.7451 182.911 11.7409 182.873 13.5182H180.318C180.318 10.4042 181.916 8.43164 185.167 8.43164C188.14 8.43164 189.817 10.4463 189.817 12.8019C189.817 15.3758 188.063 16.5938 186.385 17.7122C185.328 18.3902 184.091 19.2673 183.631 20.1482H189.936V22.3812H180.119C180.219 19.769 181.854 18.1719 183.413 16.9538L183.409 16.95Z" fill="#2D2D2D"/>
<path d="M191.107 15.5515C191.107 11.1813 193.363 8.4082 196.834 8.4082C200.304 8.4082 202.521 11.1621 202.521 15.5515C202.521 19.9409 200.365 22.6949 196.814 22.6949C193.264 22.6949 191.107 19.9026 191.107 15.5515ZM199.687 15.5515C199.687 12.6597 198.848 10.7216 196.834 10.7216C194.819 10.7216 193.942 12.6367 193.942 15.5515C193.942 18.4663 194.8 20.3814 196.834 20.3814C198.867 20.3814 199.687 18.4855 199.687 15.5515Z" fill="#2D2D2D"/>
<path d="M206.931 16.95C208.647 15.5941 210.524 14.6366 210.524 12.8785C210.524 11.603 209.846 10.7451 208.628 10.7451C207.253 10.7451 206.433 11.7409 206.395 13.5182H203.84C203.84 10.4042 205.437 8.43164 208.689 8.43164C211.661 8.43164 213.339 10.4463 213.339 12.8019C213.339 15.3758 211.584 16.5938 209.907 17.7122C208.85 18.3902 207.613 19.2673 207.153 20.1482H213.457V22.3812H203.641C203.74 19.769 205.376 18.1719 206.935 16.9538L206.931 16.95Z" fill="#2D2D2D"/>
<path d="M220.816 19.4046H214.512V16.4707L220.717 8.5498H223.471V17.229H225.547V19.4046H223.471V22.3768H220.816V19.4046ZM216.706 17.229H220.816V11.9204H220.778L216.706 17.1678V17.229Z" fill="#2D2D2D"/>
<path d="M58.4474 13.0546H55.207V11.174C56.9613 11.1127 58.5316 10.4615 58.8227 8.62305H61.3124V23.0476H58.4474V13.0546Z" fill="#2D2D2D"/>
</svg>
