<svg width="236" height="135" viewBox="0 0 236 135" fill="none" xmlns="http://www.w3.org/2000/svg">
<path d="M12.0249 93.834H19.3039C20.8717 93.834 22.0289 94.2197 22.8252 94.8667C23.6962 95.5884 24.1317 96.559 24.1317 97.7659C24.1317 99.2591 23.3478 100.217 22.0165 100.727V100.79C23.6589 101.3 24.7166 102.693 24.7166 104.485C24.7166 106.003 24.1691 107.098 23.1736 107.857C22.2902 108.554 21.0459 108.94 19.4532 108.94H12V93.8464L12.0249 93.834ZM18.7565 99.8065C19.839 99.8065 20.5731 99.2839 20.5731 98.2885C20.5731 97.2931 19.8763 96.7829 18.7813 96.7829H15.7204V99.8065H18.7565ZM19.0551 105.941C20.2745 105.941 21.0335 105.244 21.0335 104.162C21.0335 102.955 20.15 102.345 19.0053 102.345H15.708V105.928H19.0426L19.0551 105.941Z" fill="#2D2D2D"/>
<path d="M26.1875 93.834H37.6349V96.9198H29.9328V99.6199H36.5399V102.532H29.9328V105.767H37.7593V108.927H26.1875V93.834Z" fill="#2D2D2D"/>
<path d="M39.4609 93.834H43.1938V108.927H39.4609V93.834Z" fill="#2D2D2D"/>
<path d="M44.9102 100.503H50.6587V103.464H44.9102V100.503Z" fill="#2D2D2D"/>
<path d="M52.1523 101.411C52.1523 96.8947 55.0515 93.5352 59.6056 93.5352C64.1597 93.5352 67.0837 96.8947 67.0837 101.411C67.0837 105.928 64.1845 109.288 59.6056 109.288C55.0266 109.288 52.1523 105.928 52.1523 101.411ZM63.2762 101.411C63.2762 98.6616 62.0693 96.5588 59.618 96.5588C57.1668 96.5588 55.9474 98.674 55.9474 101.411C55.9474 104.149 57.1917 106.239 59.618 106.239C62.0444 106.239 63.2762 104.149 63.2762 101.411Z" fill="#2D2D2D"/>
<path d="M68.541 93.834H72.2988L76.7782 101.412C77.0146 101.835 77.8109 103.328 77.8109 103.328H77.8482C77.8482 103.328 77.8109 101.511 77.8109 100.989V93.834H81.4691V108.927H77.7114L73.2817 101.449C73.0329 101.051 72.1992 99.4208 72.1992 99.4208H72.1619C72.1619 99.4208 72.1992 101.362 72.1992 101.897V108.927H68.541V93.834Z" fill="#2D2D2D"/>
<path d="M83.5234 93.834H94.9708V96.9198H87.2687V99.6199H93.8759V102.532H87.2687V105.767H95.0953V108.927H83.5234V93.834Z" fill="#2D2D2D"/>
<path d="M106.274 106.612C104.968 105.182 104.246 103.191 104.246 100.889C104.246 98.5868 105.042 96.4342 106.486 95.0033C107.73 93.7341 109.485 93 111.662 93C115.544 93 117.871 95.0655 118.356 98.2384H114.723C114.449 97.019 113.429 96.0858 111.786 96.0858C109.298 96.0858 108.054 98.1513 108.054 100.901C108.054 103.651 109.485 105.717 111.849 105.717C113.815 105.717 114.972 104.41 115.121 103.079V103.041H112.297V100.291H118.593V108.404H115.98L115.768 106.588H115.731C114.735 108.13 113.255 108.74 111.438 108.74C109.285 108.74 107.531 107.981 106.287 106.625L106.274 106.612Z" fill="#2D2D2D"/>
<path d="M120.398 93.2861H127.254C129.096 93.2861 130.44 93.7714 131.398 94.6549C132.344 95.5632 132.916 96.7701 132.916 98.2633C132.916 100.267 131.833 101.772 130.104 102.506L133.613 108.379H129.407L126.346 103.041H124.193V108.379H120.398V93.2861ZM127.055 100.105C128.387 100.105 129.146 99.4329 129.146 98.2508C129.146 97.0688 128.387 96.4342 127.055 96.4342H124.206V100.105H127.055Z" fill="#2D2D2D"/>
<path d="M139.05 93.2861H142.895L148.345 108.379H144.413L143.529 105.654H138.254L137.383 108.379H133.625L139.05 93.2861ZM142.658 102.979L141.514 99.3209C141.265 98.537 140.916 97.1932 140.916 97.1932H140.879C140.879 97.1932 140.518 98.5495 140.269 99.3209L139.112 102.979H142.658Z" fill="#2D2D2D"/>
<path d="M149.389 93.2861H153.146L157.626 100.864C157.862 101.287 158.659 102.78 158.659 102.78H158.696C158.696 102.78 158.659 100.963 158.659 100.441V93.2861H162.317V108.379H158.559L154.129 100.901C153.881 100.503 153.047 98.873 153.047 98.873H153.01C153.01 98.873 153.047 100.814 153.047 101.349V108.379H149.389V93.2861Z" fill="#2D2D2D"/>
<path d="M164.369 93.2861H170.815C174.995 93.2861 177.807 96.3098 177.807 100.926C177.807 103.589 176.874 105.717 175.194 107.011C174.012 107.894 172.494 108.379 170.591 108.379H164.382V93.2861H164.369ZM170.304 105.244C172.756 105.244 174.025 103.701 174.025 100.938C174.025 98.1762 172.693 96.4217 170.354 96.4217H168.114V105.244H170.304Z" fill="#2D2D2D"/>
<path d="M182.635 93.2861H189.429C191.27 93.2861 192.614 93.7963 193.547 94.6797C194.518 95.588 195.065 96.8697 195.065 98.4002C195.065 101.287 193.062 103.34 189.951 103.34H186.43V108.392H182.635V93.2986V93.2861ZM189.205 100.379C190.561 100.379 191.32 99.5822 191.32 98.3752C191.32 97.1683 190.536 96.4342 189.205 96.4342H186.442V100.379H189.205Z" fill="#2D2D2D"/>
<path d="M196.398 93.2861H203.254C205.096 93.2861 206.44 93.7714 207.398 94.6549C208.344 95.5632 208.916 96.7701 208.916 98.2633C208.916 100.267 207.833 101.772 206.104 102.506L209.613 108.379H205.407L202.346 103.041H200.194V108.379H196.398V93.2861ZM203.055 100.105C204.387 100.105 205.146 99.4329 205.146 98.2508C205.146 97.0688 204.387 96.4342 203.055 96.4342H200.206V100.105H203.055Z" fill="#2D2D2D"/>
<path d="M210.695 93.2861H214.428V108.379H210.695V93.2861Z" fill="#2D2D2D"/>
<path d="M220.525 100.466L215.946 93.2861H220.214L222.765 97.6784H222.802L225.403 93.2861H229.459L224.98 100.428L229.982 108.392H225.565L222.74 103.278H222.703L219.766 108.392H215.523L220.525 100.478V100.466Z" fill="#2D2D2D"/>
<path d="M54.8555 119H59.8824L61.7239 125.607C61.9976 126.553 62.5949 129.054 62.5949 129.054H62.6322C62.6322 129.054 63.2295 126.565 63.4783 125.607L65.3323 119H70.3965V134.093H66.9748V126.491C66.9748 125.881 67.037 123.467 67.037 123.467H66.9997C66.9997 123.467 66.4771 125.732 66.3029 126.279L64.1254 134.093H61.0396L58.8869 126.304C58.7127 125.756 58.1901 123.479 58.1901 123.479H58.1528C58.1528 123.479 58.215 125.906 58.215 126.515V134.093H54.8555V119Z" fill="#2D2D2D"/>
<path d="M72.1641 131.082C72.1641 128.693 74.0678 127.984 76.3075 127.685C78.3357 127.436 79.0574 127.225 79.0574 126.478C79.0574 125.781 78.6094 125.321 77.5767 125.321C76.4817 125.321 75.9342 125.806 75.8223 126.715H72.6618C72.7489 124.711 74.2918 122.994 77.5642 122.994C79.1943 122.994 80.2892 123.293 81.0731 123.878C82.0063 124.549 82.4418 125.607 82.4418 126.963V132.413C82.4418 133.284 82.5289 133.77 82.8276 133.956V134.106H79.4929C79.3187 133.869 79.2191 133.446 79.132 132.899H79.0947C78.4601 133.807 77.5145 134.379 75.8845 134.379C73.7319 134.379 72.1889 133.222 72.1889 131.082H72.1641ZM79.132 130.236V128.942C78.6841 129.178 78.0495 129.34 77.3652 129.514C76.0338 129.813 75.4863 130.149 75.4863 130.97C75.4863 131.841 76.1209 132.177 76.967 132.177C78.261 132.177 79.1445 131.393 79.1445 130.236H79.132Z" fill="#2D2D2D"/>
<path d="M84.9407 131.245V125.434H83.5098V123.281H84.9407V119.859H88.3003V123.281H90.2662V125.434H88.3003V130.498C88.3003 131.344 88.7606 131.556 89.5072 131.556C89.8058 131.556 90.1418 131.531 90.2662 131.531V134.044C89.9676 134.131 89.3206 134.218 88.3873 134.218C86.3841 134.218 84.9407 133.559 84.9407 131.245Z" fill="#2D2D2D"/>
<path d="M91.6973 130.597H94.9448C95.0693 131.68 95.791 132.202 96.9233 132.202C97.956 132.202 98.6155 131.829 98.6155 131.12C98.6155 130.149 97.309 130.037 95.8656 129.788C93.9868 129.477 91.9835 128.967 91.9835 126.429C91.9835 124.152 94.0987 122.97 96.6495 122.97C99.7104 122.97 101.353 124.301 101.527 126.429H98.3542C98.2298 125.458 97.5703 125.16 96.6246 125.16C95.7785 125.16 95.119 125.471 95.119 126.155C95.119 126.914 96.3384 127.026 97.7196 127.275C99.6233 127.586 101.863 128.071 101.863 130.846C101.863 133.21 99.7727 134.43 96.9481 134.43C93.7877 134.43 91.7968 132.974 91.6973 130.585V130.597Z" fill="#2D2D2D"/>
<path d="M103.32 130.385V123.293H106.742V129.664C106.742 130.846 107.265 131.505 108.372 131.505C109.554 131.505 110.276 130.622 110.276 129.328V123.293H113.723V134.106H110.425V132.774H110.363C109.579 133.832 108.633 134.417 107.128 134.417C104.639 134.417 103.333 132.787 103.333 130.385H103.32Z" fill="#2D2D2D"/>
<path d="M115.293 128.669C115.293 125.433 117.558 122.97 120.842 122.97C122.385 122.97 123.605 123.48 124.538 124.326C125.832 125.508 126.454 127.387 126.442 129.589H118.677C118.889 131.045 119.685 131.953 121.104 131.953C122.012 131.953 122.609 131.555 122.896 130.871H126.255C126.019 131.841 125.384 132.775 124.438 133.422C123.53 134.056 122.435 134.417 121.066 134.417C117.495 134.417 115.305 131.941 115.305 128.669H115.293ZM122.958 127.536C122.833 126.242 122.025 125.421 120.905 125.421C119.598 125.421 118.926 126.242 118.69 127.536H122.958Z" fill="#2D2D2D"/>
<path d="M133.071 129.078C134.378 127.958 136.07 126.901 137.214 125.893C137.812 125.37 138.16 124.81 138.16 124.101C138.16 122.981 137.501 122.222 136.281 122.222C135.609 122.222 135.074 122.434 134.713 122.882C134.29 123.367 134.079 124.026 134.054 125.009H130.719C130.719 123.317 131.018 122.284 131.715 121.339C132.536 120.157 134.104 119.36 136.356 119.36C139.84 119.36 141.719 121.426 141.719 123.989C141.719 125.992 140.599 127.15 139.317 128.145C138.023 129.203 136.468 130.086 135.448 131.169V131.193H141.744V134.13H130.508C130.545 131.704 131.628 130.31 133.059 129.103L133.071 129.078Z" fill="#2D2D2D"/>
<path d="M143.248 126.876C143.248 122.272 145.849 119.323 149.644 119.323C153.439 119.323 156.039 122.285 156.039 126.876C156.039 131.467 153.464 134.429 149.619 134.429C145.774 134.429 143.248 131.467 143.248 126.876ZM152.369 126.876C152.369 124.064 151.585 122.086 149.644 122.086C147.703 122.086 146.894 124.052 146.894 126.876C146.894 129.701 147.69 131.642 149.644 131.642C151.597 131.642 152.369 129.725 152.369 126.876Z" fill="#2D2D2D"/>
<path d="M159.962 129.078C161.268 127.958 162.96 126.901 164.105 125.893C164.702 125.37 165.051 124.81 165.051 124.101C165.051 122.981 164.391 122.222 163.172 122.222C162.5 122.222 161.965 122.434 161.604 122.882C161.181 123.367 160.97 124.026 160.945 125.009H157.61C157.61 123.317 157.909 122.284 158.605 121.339C159.427 120.157 160.994 119.36 163.247 119.36C166.731 119.36 168.609 121.426 168.609 123.989C168.609 125.992 167.49 127.15 166.208 128.145C164.914 129.203 163.359 130.086 162.338 131.169V131.193H168.634V134.13H157.398C157.436 131.704 158.518 130.31 159.949 129.103L159.962 129.078Z" fill="#2D2D2D"/>
<path d="M176.806 130.896H170.074V127.623L176.768 119.498H180.277V128.196H182.368V130.896H180.277V134.106H176.818V130.896H176.806ZM176.806 128.183V123.218H176.768L172.762 128.133V128.171H176.818L176.806 128.183Z" fill="#2D2D2D"/>
<path d="M115.503 65.7484C119.509 62.5754 123.902 60.3357 123.902 56.2421C123.902 53.2558 122.322 51.2525 119.472 51.2525C116.249 51.2525 114.346 53.5793 114.246 57.7352H108.274C108.274 50.4561 112.006 45.8398 119.609 45.8398C126.552 45.8398 130.472 50.5557 130.472 56.0554C130.472 62.0653 126.365 64.9147 122.446 67.5277C119.97 69.1079 117.083 71.161 116.013 73.214H130.745V78.44H107.801C108.037 72.3306 111.857 68.5978 115.49 65.7608L115.503 65.7484Z" fill="#2D2D2D"/>
<path d="M133.496 62.4893C133.496 52.2737 138.772 45.791 146.885 45.791C154.997 45.791 160.174 52.224 160.174 62.4893C160.174 72.7546 155.134 79.1876 146.835 79.1876C138.535 79.1876 133.496 72.6551 133.496 62.4893ZM153.541 62.4893C153.541 55.7328 151.588 51.2036 146.872 51.2036C142.156 51.2036 140.116 55.6831 140.116 62.4893C140.116 69.2955 142.119 73.7749 146.872 73.7749C151.625 73.7749 153.541 69.3453 153.541 62.4893Z" fill="#2D2D2D"/>
<path d="M170.462 65.7484C174.468 62.5754 178.861 60.3357 178.861 56.2421C178.861 53.2558 177.281 51.2525 174.431 51.2525C171.208 51.2525 169.305 53.5793 169.205 57.7352H163.233C163.233 50.4561 166.965 45.8398 174.568 45.8398C181.511 45.8398 185.431 50.5557 185.431 56.0554C185.431 62.0653 181.324 64.9147 177.405 67.5277C174.929 69.1079 172.042 71.161 170.972 73.214H185.704V78.44H162.76C162.996 72.3306 166.816 68.5978 170.449 65.7608L170.462 65.7484Z" fill="#2D2D2D"/>
<path d="M202.914 71.4852H188.182V64.6292L202.69 46.1143H209.123V66.3961H213.976V71.4727H209.123V78.4158H202.926V71.4727L202.914 71.4852ZM193.308 66.4085H202.914V54.003H202.814L193.296 66.2716V66.4085H193.308Z" fill="#2D2D2D"/>
<path d="M45.7692 48.1676C45.5203 48.9308 45.2507 49.8515 44.9604 50.9299C44.1143 53.9162 42.7829 57.4126 41.7501 59.5155C41.016 61.0211 40.4934 61.8423 39.5726 63.1985C38.0173 61.469 37.3578 60.7971 35.2176 59.2168C35.8771 58.408 36.0638 58.1468 36.549 57.338C35.8896 57.2633 35.1803 57.226 34.5208 57.226H33.4134C34.7075 59.8016 35.6656 61.0957 37.9799 63.4225C36.8725 65.5253 36.4744 66.5581 35.8025 68.6609C34.5831 67.1927 33.9982 66.2222 33.1895 64.5299C33.2641 65.6373 33.3014 66.7074 33.3014 68.5489V75.7782C33.3014 77.6571 33.3761 79.2498 33.5254 80.5314H27.7395C27.8888 79.2747 27.9635 77.5451 27.9635 75.7782V71.3859C27.9884 69.4448 28.0257 68.0056 28.0755 67.0682C26.8561 70.1292 26.1219 71.5228 24.7906 73.3768C24.1684 70.8011 23.6085 69.0964 22.6504 66.9936C24.9399 64.1193 26.5574 60.8717 27.4782 57.226H26.3708C25.1887 57.226 24.4173 57.2633 23.6458 57.4126V51.9129C24.3426 52.0622 25.1514 52.0995 26.4455 52.0995H27.9261V49.6608C27.9261 47.9312 27.8888 46.8984 27.7022 45.791H33.5254C33.3761 46.8611 33.3014 47.9685 33.3014 49.6608V52.0995H34.4835C35.2923 52.0995 36.1011 52.0249 36.7357 51.9129V57.0393C38.291 54.2397 39.7219 49.6607 40.0579 46.3883L45.7692 48.1552V48.1676ZM49.614 58.9307C49.4896 59.2957 49.3154 59.8348 49.0914 60.5482C47.648 65.376 46.4411 68.7729 44.6617 72.9039C46.9139 72.6053 48.096 72.4187 50.0495 72.0205C49.3154 70.1043 48.8301 69.0716 47.5485 66.3839L52.5256 64.3557C55.1013 69.4822 56.0594 71.8712 57.9507 77.3709L52.6003 80.1705C52.1896 78.6152 52.0154 77.9557 51.7168 76.9603C47.2498 78.0304 43.0939 78.7645 38.0795 79.3244C37.4573 79.3991 37.1587 79.4364 36.5615 79.5857L35.566 73.5385C35.8273 73.5759 36.1882 73.5759 36.3748 73.5759C36.7481 73.5759 37.5569 73.5385 38.6643 73.4639C39.809 70.6269 40.3939 68.9969 41.3519 66.0106C42.6833 61.9169 43.4175 59.1546 43.6414 57.5246L49.614 58.9307ZM52.1523 46.2888C53.2224 51.0419 55.2506 55.0609 58.1622 58.0845C56.358 59.8887 55.91 60.4487 54.0685 63.0243C52.5132 61.1081 51.667 59.8141 50.597 57.7859C49.3776 55.4218 48.8674 54.0655 47.5734 49.7479C47.4614 49.2626 47.3121 48.8644 47.0508 48.2049L52.1399 46.2888H52.1523Z" fill="#2D2D2D"/>
<path d="M65.84 54.8C69.0129 56.6789 70.2323 57.4876 73.1066 59.7025L69.9337 64.3809C67.0968 61.9795 65.5787 60.9467 62.4805 59.2918L65.84 54.7875V54.8ZM73.0569 68.1138C71.3273 73.0163 70.5185 74.8951 68.8512 78.0307C68.6272 78.5035 68.5152 78.6529 68.0797 79.3994C67.8807 79.7229 67.6982 80.0423 67.5323 80.3576L62.5925 76.1146C64.434 73.9744 66.3502 70.1793 68.341 64.8662L73.0569 68.1138ZM70.8918 55.0986C68.4157 52.8838 66.9848 51.8137 63.6625 49.7482L67.1714 45.6172C70.0457 47.2721 71.5637 48.2675 74.214 50.3704V47.72C75.5081 47.8693 76.7524 47.944 78.8552 47.944H91.7957C93.8239 47.944 95.0433 47.8693 96.3623 47.72V53.6552C95.1055 53.5059 93.6746 53.4313 91.7957 53.4313H87.6647V72.9043H92.3432C94.4087 72.9043 96.0263 72.8296 97.0964 72.6803V78.6529C95.765 78.5035 94.4461 78.4289 92.3432 78.4289H77.2252C75.1224 78.4289 73.791 78.5035 72.4721 78.6529V72.6803C73.6541 72.8296 75.1597 72.9043 77.2252 72.9043H81.7668V53.4313H78.7806C76.8644 53.4313 75.421 53.5059 74.214 53.6552V50.8556L70.8918 55.0986Z" fill="#2D2D2D"/>
<path d="M15.2151 4.56696C15.2151 3.06138 15.1404 2.09084 14.9911 1.0332H21.2996C21.1503 2.02863 21.0756 3.06138 21.0756 4.56696V13.5258H29.9598C31.9507 13.5258 33.6802 13.4511 34.9743 13.2645V18.9757C33.4562 18.7891 31.8013 18.7145 29.9971 18.7145H23.9499C25.2813 20.3694 27.2348 22.2855 29.1137 23.6916C31.1419 25.1972 33.506 26.4912 36.1937 27.5613C34.5761 29.5148 33.9042 30.5849 32.6599 33.0984C29.151 31.1075 27.5708 29.9254 25.244 27.7479C23.4024 26.0557 22.2577 24.6497 20.9637 22.5468L21.001 23.2063C21.0383 24.1644 21.0756 24.7866 21.0756 25.4211V30.8462C21.0756 32.3891 21.1503 34.0938 21.3369 35.5994H14.9538C15.1031 34.4173 15.2151 32.7251 15.2151 30.8462V25.4958C15.2151 24.351 15.2524 23.5796 15.3271 22.5842C13.921 24.8363 12.6021 26.3792 10.2753 28.4447C8.17244 30.3609 6.40556 31.655 4.04142 32.9739C2.71004 30.4356 2.0879 29.5024 0.644531 27.8102C3.55615 26.4788 5.47234 25.2718 7.83648 23.2685C9.67802 21.7256 10.9347 20.3942 12.1541 18.702H6.87838C4.88753 18.702 3.34462 18.7767 1.78927 18.9633V13.2521C2.97134 13.4387 4.40226 13.5133 6.84106 13.5133H15.2151V4.55452V4.56696ZM8.58305 13.4511C7.25167 10.3902 6.10693 8.39935 3.79256 5.22643L8.43374 2.38947C10.8352 5.52506 11.9053 7.14263 13.5975 10.3529L8.58305 13.4511ZM22.631 10.4649C24.7712 7.73988 25.9906 5.78636 27.6081 2.35214L32.6599 5.03979C30.7064 8.72287 29.4123 10.7137 27.2348 13.4511L22.631 10.4649Z" fill="#2D2D2D"/>
<path d="M96.1918 10.1782C95.9305 10.6262 95.6443 11.4723 95.2337 12.6792C91.7248 23.7409 85.5034 30.5969 74.4417 35.574C73.3716 33.4712 71.8287 31.4803 70.0121 29.9374C79.7424 26.441 85.7522 20.568 88.4897 11.9824L78.6847 12.0944C76.3952 15.7402 73.4463 18.9504 70.3107 21.3519C68.5438 19.3237 67.3617 18.291 65.0723 16.9222C69.3153 14.0106 72.5628 10.2902 74.8772 5.67392C75.8353 3.75773 76.3579 2.31436 76.4574 1.24428L83.4254 2.50102C83.2388 2.8743 83.2015 2.91162 82.9775 3.38445C82.9402 3.49643 82.8282 3.72041 82.7162 3.96926C82.5669 4.30522 82.4176 4.62873 82.3802 4.74071C82.1189 5.2882 81.9696 5.66149 81.9323 5.69881C81.895 5.8108 81.783 6.0721 81.6337 6.32095L90.0077 6.2463H90.8165C90.2316 4.98958 89.5971 3.95683 88.7136 2.71254L92.3594 1.53046C93.6534 3.22269 94.6115 5.02691 95.4203 7.16708L94.2756 7.57767L96.1544 10.1533L96.1918 10.1782ZM97.548 0C98.7674 1.61757 99.6135 3.17292 100.609 5.49972L97.1001 6.79379C96.0673 4.355 95.2212 2.73743 94.0765 1.15719L97.548 0.012455V0Z" fill="#2D2D2D"/>
<path d="M102.899 11.684C104.554 11.908 105.736 11.9826 108.834 11.9826H127.349C129.116 11.9826 129.377 11.9453 130.298 11.572L133.173 14.6703C132.725 15.3298 132.65 15.4791 132.14 16.9971C130.224 22.4968 127.573 26.6154 123.952 29.639C121.153 32.0031 118.49 33.4341 113.438 35.3876C112.48 33.2101 111.447 31.7045 109.307 29.3404C113.737 28.1956 116.387 27.0136 119.037 25.0227C121.725 23.0319 123.355 20.929 124.711 17.6441H108.747C105.836 17.6441 105.214 17.6814 102.887 17.8681V11.6716L102.899 11.684ZM105.96 2.46387C107.403 2.68784 108.76 2.7625 111.385 2.7625H123.144C126.055 2.7625 127.648 2.68784 128.93 2.46387V8.66041C127.524 8.54842 125.794 8.47375 123.256 8.47375H111.311C108.399 8.47375 107.59 8.51109 105.96 8.66041V2.46387Z" fill="#2D2D2D"/>
<path d="M142.243 3.71973C146.884 6.4447 149.286 8.14937 152.384 10.949L148.029 16.6976C144.819 13.338 141.683 10.9117 138 8.92082L142.243 3.71973ZM138.373 26.6145C142.131 26.3159 146.001 25.3951 149.472 23.9642C154.113 22.048 157.436 19.2857 160.273 14.856C161.816 12.4919 162.811 10.4637 163.881 7.62677C165.685 9.80427 166.531 10.5384 169.306 12.5666C165.947 19.8332 162.45 24.1757 157.286 27.498C153.305 30.0736 149.796 31.4423 142.94 33.0226C141.496 33.3585 141.285 33.3959 140.289 33.682L138.373 26.6021V26.6145Z" fill="#2D2D2D"/>
<path d="M202.455 9.10761L202.417 9.25691C202.38 9.40623 202.343 9.51822 202.306 9.6302L202.082 10.5883C199.058 22.4214 192.637 29.8747 180.916 35.1131C179.697 32.637 178.664 31.2434 176.275 28.9166C186.08 25.8556 192.725 19.3232 194.827 10.7376H179.411C175.504 10.7749 174.62 10.8123 173.326 10.9616V4.32955C174.732 4.55352 175.765 4.62818 179.523 4.62818H198.324C198.436 2.3387 200.203 0.646484 202.455 0.646484C204.707 0.646484 206.623 2.48801 206.623 4.81482C206.623 7.14163 204.819 8.94584 202.492 8.98317L202.455 9.13248V9.10761ZM200.352 4.78995C200.352 5.89736 201.31 6.85546 202.455 6.85546C203.6 6.85546 204.558 5.89736 204.558 4.78995C204.558 3.68254 203.6 2.68711 202.455 2.68711C201.31 2.68711 200.352 3.64521 200.352 4.78995Z" fill="#2D2D2D"/>
<path d="M218.83 2.7627C218.681 4.45492 218.644 5.12683 218.644 7.7025V15.0438C218.644 17.6567 218.681 18.8388 218.83 20.3195H211.676C211.862 18.9881 211.9 17.7065 211.9 14.9318V7.62784C211.9 5.37569 211.862 4.38026 211.676 2.7627H218.83ZM235.977 2.7627C235.827 4.8282 235.79 5.37569 235.79 7.73982V12.0575C235.79 17.1093 235.491 20.643 234.944 22.7832C233.836 26.8022 231.335 29.8258 227.279 32.1526C225.176 33.372 223.223 34.1435 219.614 35.1762C218.768 32.7001 217.847 31.1572 215.857 28.8677C219.39 28.2083 221.282 27.611 223.16 26.6156C226.408 24.886 228.063 22.7085 228.66 19.461C228.884 18.0922 229.071 14.8571 229.071 11.6469V7.81448C229.071 5.12683 229.034 4.34293 228.847 2.7627H236.001H235.977Z" fill="#2D2D2D"/>
<path d="M47.4398 11.9569H40V7.52646C44.0314 7.37585 47.623 5.85721 48.2949 1.51465H54V35.5146H47.4276V11.9569H47.4398Z" fill="#2D2D2D"/>
</svg>
