<svg width="193" height="98" viewBox="0 0 193 98" fill="none" xmlns="http://www.w3.org/2000/svg">
<path d="M32.9747 13.2027C38.1292 9.74936 45.4773 12.3661 48.6285 9.88415C48.7029 9.82373 48.8191 9.8888 48.9121 9.89345C48.2242 3.92102 44.6268 1.99218 42.275 1.37402C38.1292 4.52059 27.9505 1.32755 25.0781 7.18378C28.1457 8.01573 30.7949 10.0422 32.9747 13.198V13.2027Z" fill="white"/>
<path d="M17.3577 25.775C20.0952 20.207 27.7641 18.7987 29.2561 15.0758C29.2932 14.9875 29.4234 14.9875 29.507 14.941C25.9236 10.1119 21.8475 10.2374 19.5003 10.8835C17.4832 15.68 7.0721 18.0086 7.51364 24.5155C10.5905 23.7021 13.8951 24.1344 17.3577 25.7797V25.775Z" fill="white"/>
<path d="M10.1212 44.4732C9.70752 38.2823 15.6474 33.2301 15.0757 29.2563C15.0618 29.1633 15.178 29.0936 15.2245 29.0146C9.70752 26.621 6.24026 28.7729 4.52987 30.5065C5.18056 35.6702 -2.66958 42.8883 0.965004 48.303C3.22384 46.0627 6.30068 44.7799 10.1212 44.4732Z" fill="white"/>
<path d="M13.2027 64.282C9.74936 59.1276 12.3661 51.7795 9.88415 48.6282C9.82373 48.5539 9.8888 48.4377 9.89345 48.3447C3.92102 49.0326 1.99218 52.63 1.37402 54.9818C4.52059 59.1276 1.32755 69.3063 7.18378 72.1787C8.01573 69.1111 10.0422 66.4619 13.198 64.282H13.2027Z" fill="white"/>
<path d="M25.775 79.8986C20.207 77.1611 18.7987 69.4922 15.0758 68.0002C14.9875 67.9631 14.9875 67.8329 14.941 67.7493C10.1119 71.3327 10.2374 75.4088 10.8835 77.756C15.68 79.7731 18.0086 90.1842 24.5155 89.7427C23.7021 86.6658 24.1344 83.3612 25.7797 79.8986H25.775Z" fill="white"/>
<path d="M44.4729 87.1355C38.2821 87.5492 33.2299 81.6093 29.256 82.181C29.1631 82.1949 29.0934 82.0787 29.0143 82.0322C26.6207 87.5492 28.7727 91.0164 30.5063 92.7268C35.67 92.0761 42.888 99.9263 48.3027 96.2917C46.0625 94.0328 44.7797 90.956 44.4729 87.1355Z" fill="white"/>
<path d="M64.2823 84.0537C59.1279 87.507 51.7797 84.8903 48.6285 87.3722C48.5541 87.4327 48.4379 87.3676 48.345 87.3629C49.0328 93.3354 52.6302 95.2642 54.982 95.8824C59.1279 92.7358 69.3066 95.9288 72.1789 90.0726C69.1114 89.2407 66.4621 87.2142 64.2823 84.0584V84.0537Z" fill="white"/>
<path d="M79.8984 71.4773C77.1608 77.0454 69.4919 78.4537 68 82.1765C67.9628 82.2649 67.8327 82.2649 67.749 82.3113C71.3325 87.1404 75.4086 87.0149 77.7557 86.3689C79.7729 81.5723 90.184 79.2438 89.7424 72.7369C86.6656 73.5502 83.361 73.118 79.8984 71.4727V71.4773Z" fill="white"/>
<path d="M87.1355 52.7829C87.5492 58.9738 81.6093 64.0259 82.181 67.9998C82.1949 68.0928 82.0787 68.1625 82.0322 68.2415C87.5492 70.6351 91.0164 68.4832 92.7268 66.7496C92.0761 61.5858 99.9263 54.3678 96.2917 48.9531C94.0328 51.1934 90.956 52.4762 87.1355 52.7829Z" fill="white"/>
<path d="M84.0537 32.9747C87.507 38.1292 84.8903 45.4773 87.3722 48.6285C87.4327 48.7029 87.3676 48.8191 87.3629 48.9121C93.3354 48.2242 95.2642 44.6268 95.8824 42.275C92.7358 38.1292 95.9288 27.9505 90.0726 25.0781C89.2407 28.1457 87.2142 30.7949 84.0584 32.9747H84.0537Z" fill="white"/>
<path d="M71.4773 17.3577C77.0454 20.0952 78.4537 27.7641 82.1765 29.2561C82.2649 29.2932 82.2649 29.4234 82.3113 29.507C87.1404 25.9236 87.0149 21.8475 86.3689 19.5003C81.5723 17.4832 79.2438 7.0721 72.7369 7.51364C73.5502 10.5905 73.118 13.8951 71.4727 17.3577H71.4773Z" fill="white"/>
<path d="M52.7829 10.1212C58.9738 9.70752 64.0259 15.6474 67.9998 15.0757C68.0928 15.0618 68.1625 15.178 68.2415 15.2245C70.6351 9.70752 68.4832 6.24026 66.7496 4.52987C61.5858 5.18056 54.3678 -2.66958 48.9531 0.965004C51.1934 3.22384 52.4762 6.30068 52.7829 10.1212Z" fill="white"/>
<path d="M60.2478 28.9355C60.2711 32.7002 60.4059 36.4695 60.2478 40.2389C60.0945 42.8417 58.742 47.1409 56.748 49.2603C60.945 48.9954 66.3272 48.8327 70.5195 49.2324C65.9275 46.5181 67.9539 24.85 68.1956 21.4014C68.1956 21.4014 68.1212 21.4478 67.9771 21.5269C64.7051 23.4603 61.1728 25.0127 57.4917 25.9702C59.1324 26.1607 60.2664 27.1553 60.2525 28.9355H60.2478Z" fill="white"/>
<path d="M39.3325 68.9435C38.2403 69.9707 36.1534 70.6679 34.6522 70.5749C31.9518 70.4076 29.7906 68.2464 29.6232 65.546C29.5303 64.0401 30.0462 62.6086 31.0734 61.5163C32.0866 60.4381 33.5181 59.8199 34.9961 59.8199C36.1673 59.8199 37.3014 60.201 38.231 60.8982L44.9563 55.5765C44.1476 55.3905 43.404 54.9397 42.5906 54.447C40.9406 53.4478 38.8863 52.2021 34.9961 52.2021C31.4638 52.2021 28.1638 53.5918 25.6958 56.1202C23.2279 58.644 21.9172 61.9811 22.0008 65.5181C22.0799 68.8506 23.437 72.0018 25.8167 74.3815C28.201 76.7658 31.3476 78.1183 34.68 78.1973C36.3068 78.2391 37.5152 78.1043 38.9886 77.5791C40.0576 74.3722 39.3371 68.9435 39.3371 68.9435H39.3325Z" fill="white"/>
<path d="M47.6152 70.9511C47.6384 70.1795 47.6896 69.4173 47.7686 68.669C47.8197 68.2042 47.8801 67.7441 47.9545 67.2932C48.0893 66.4566 47.8662 65.6014 47.3456 64.9508C46.8251 64.3001 46.0814 63.9143 45.2495 63.8678C43.8923 63.7842 43.223 63.8864 42.577 63.984C41.6428 64.1234 40.7504 64.2582 38.1895 63.8818C38.6728 64.3465 39.0911 64.9043 39.4444 65.5503C39.5699 65.7827 39.6907 66.0244 39.8022 66.2754C39.8998 66.5031 39.9882 66.7448 40.0718 66.9865C40.5738 68.4506 40.8201 70.226 40.8015 72.2989C40.7876 74.0651 40.5831 75.7429 40.3693 77.049C40.3367 77.2349 40.3089 77.4115 40.2763 77.5835C40.2438 77.774 40.2066 77.96 40.1741 78.1273C40.1369 78.3225 40.0997 78.4991 40.0672 78.6571C40.5924 78.4666 41.1269 78.3968 41.666 78.3968C42.4097 78.3968 43.1672 78.527 43.9481 78.6618C45.3378 78.9035 46.7739 79.1544 48.4053 78.7501C47.8058 76.3518 47.5362 73.6189 47.6152 70.9464V70.9511Z" fill="white"/>
<path d="M59.0352 62.2087L60.3924 63.2033L60.1879 53.7078C57.9244 53.9309 54.3921 53.917 51.292 53.5498C52.6259 55.0557 54.0853 58.0117 54.0853 62.6455C54.0853 63.7145 54.09 64.7371 54.0993 65.7085C54.1411 72.2897 54.1736 76.6587 52.0263 78.8757C53.8483 78.7641 55.7167 78.7084 57.5247 78.7084C59.6952 78.7084 61.7728 78.7874 63.5622 78.9454C62.2422 77.4395 61.3498 74.6973 60.8758 71.481C56.7253 69.2083 59.0399 62.2087 59.0399 62.2087H59.0352Z" fill="white"/>
<path d="M71.6633 54.2238C69.5904 52.7411 66.7599 52.6528 64.752 52.8387C63.0928 52.9921 61.7077 53.3546 61.1035 53.5312L61.2522 59.7407C62.6977 59.3224 66.3648 58.4672 68.1496 59.9173C68.9583 60.5727 69.2836 61.5859 69.1163 62.9198C68.9211 64.4768 67.88 65.5737 66.2626 65.9362C64.8496 66.2523 61.3777 65.1693 59.6209 63.8354C59.6209 63.8354 57.4225 71.7739 65.8768 72.0992C67.7359 72.1689 69.7531 71.6112 71.3054 69.7521C73.1227 67.5769 74.6286 65.1414 74.6054 61.307C74.5868 57.9885 73.5922 55.6042 71.654 54.2191L71.6633 54.2238Z" fill="white"/>
<path d="M42.4792 39.8813C42.4095 39.305 42.3537 38.7287 42.3165 38.1523C40.9547 38.3987 39.5929 38.6404 38.2218 38.8588C37.1993 39.0168 36.1768 39.1609 35.1543 39.2911C35.2612 41.2292 35.0985 43.3161 34.4338 45.1473C34.3176 45.4633 34.2572 45.798 34.2433 46.1373C34.1782 47.5363 34.0899 48.9306 33.9319 50.3249C35.5911 49.9299 37.3108 49.7951 38.9933 49.6742C40.0716 49.5627 41.2661 49.5581 42.1864 48.9631C42.6976 48.5913 42.8092 48.001 42.7952 47.355C42.9068 45.9746 42.9533 44.5895 42.9672 43.1999C42.9672 42.8234 42.9254 42.4469 42.8464 42.0797C42.6883 41.3407 42.5721 40.6017 42.4745 39.8906L42.4792 39.8813Z" fill="white"/>
<path d="M34.0805 30.0925C34.3315 30.3435 34.615 30.5294 34.9311 30.6223C36.0837 31.0639 37.6965 30.0135 37.6965 30.0135C37.6965 30.0135 37.1434 31.5565 36.0326 32.2212C37.3944 31.9563 38.7283 31.6913 40.0948 31.4357C40.9871 30.5061 42.1584 29.0979 42.8323 28.0056C42.8463 27.4107 42.8649 26.8204 42.8881 26.2255C42.9485 25.0636 43.1949 22.8094 44.2406 21.666C41.7076 22.2005 39.0908 22.168 36.516 22.2191C35.9675 22.2702 35.3819 22.4283 34.9497 22.7722C34.0294 23.4833 33.8621 24.7429 33.8993 25.8351C33.9597 27.2527 34.0247 28.6749 34.0805 30.0971V30.0925Z" fill="white"/>
<path d="M33.2717 45.835C33.3368 45.7002 33.4018 45.5654 33.4622 45.426C33.6342 45.0402 33.7829 44.6451 33.9084 44.2454C34.099 43.6412 34.2431 43.0184 34.3453 42.3863C34.5034 41.3917 34.5591 40.3738 34.5452 39.3652C34.4801 39.3745 34.4104 39.3792 34.3453 39.3885C34.2152 39.4024 34.0897 39.421 33.9596 39.435C33.8341 39.4489 33.7039 39.4628 33.5784 39.4768C31.7286 39.6813 29.8788 39.8347 28.0197 39.9137C27.6618 42.5955 26.4255 45.2308 24.1388 46.7552C23.7762 46.9876 23.3858 47.1828 22.9768 47.3269C25.0497 47.8568 27.039 48.8142 29.1816 48.7724C31.0314 48.7445 32.4676 47.4199 33.267 45.8303L33.2717 45.835Z" fill="white"/>
<path d="M55.8086 46.741C55.1114 46.4947 54.4607 46.0996 53.8983 45.6349C51.5512 43.6409 49.785 40.3131 49.0692 37.1387C47.5959 37.148 45.7089 37.5291 45.2023 37.622C44.6352 37.7289 44.0682 37.8312 43.5058 37.9381C43.4036 37.9567 43.306 37.9753 43.2037 37.9939C43.1061 38.0125 43.0085 38.031 42.9109 38.0496C42.9109 38.0496 42.9063 38.0496 42.9016 38.0496C42.9063 38.1008 42.9109 38.1519 42.9156 38.203C42.9992 39.0489 43.1247 39.8948 43.2874 40.7268C43.3989 41.2892 43.5244 41.8469 43.6685 42.3953C43.6964 42.5022 43.7243 42.6045 43.7522 42.7114C44.4214 44.9516 45.4626 47.48 47.7167 48.47C49.0599 49.0231 50.5008 48.7396 51.8672 48.2609C53.1918 47.81 54.4653 47.1733 55.8086 46.7317V46.741Z" fill="white"/>
<path d="M29.0788 32.8444C29.6923 32.7747 30.3058 32.6818 30.9194 32.5888C31.7885 32.4494 32.653 32.296 33.5221 32.138C33.6337 32.1194 33.7452 32.0961 33.8568 32.0775C33.9683 32.0589 34.0752 32.0357 34.1868 32.0171C34.4749 31.9613 35.6694 31.5244 35.9669 31.2038C35.2372 31.4083 34.6237 31.2688 34.117 30.9063C34.0055 30.8273 33.894 30.7343 33.7917 30.6321C33.6755 30.5159 33.5686 30.3904 33.4664 30.251C32.165 28.4662 31.9558 24.8595 32.6251 23.1073C31.2122 22.8563 29.8085 23.1073 28.4653 23.5581C27.2522 23.9485 26.0252 24.3947 24.7424 24.5527C25.7417 26.7883 26.2018 29.2238 27.4707 31.3199C27.9169 32.0729 28.47 32.4215 29.0788 32.8584V32.8444Z" fill="white"/>
<path d="M25.0269 39.1702C26.1982 39.1702 31.7616 38.8635 33.5835 38.6822C33.709 38.6682 33.8345 38.659 33.9647 38.645C34.0902 38.6311 34.2156 38.6171 34.3458 38.6078C34.4062 38.6032 34.4713 38.5939 34.5317 38.5892C34.6293 38.5799 34.7269 38.566 34.8292 38.5567C34.9221 38.5474 35.0151 38.5381 35.108 38.5242C36.1166 38.4126 37.1252 38.2918 38.1337 38.1616C39.5234 37.985 44.3293 37.181 46.2953 36.8695C53.3042 35.7587 50.957 37.9525 51.0453 38.7473C51.6774 37.7294 52.9509 38.0454 53.2623 36.1491C53.3832 35.4101 53.3692 34.6525 53.3506 33.8996C53.3367 32.3008 53.6899 29.6701 49.2978 30.1442C44.2735 30.6926 38.3987 32.9003 38.3987 32.9003C39.068 32.403 39.6954 31.8546 40.2857 31.2597C38.8681 31.5711 37.4552 31.9057 36.0422 32.231C35.7959 32.2868 26.7187 34.634 24.3344 33.2117C24.0184 34.0204 25.4824 36.5163 25.0316 39.1795L25.0269 39.1702Z" fill="white"/>
<path d="M44.5052 21.0993C44.5052 21.0993 44.5284 21.0993 44.5377 21.0993C45.5788 21.1411 45.4905 22.5866 45.3789 23.5719C44.8259 28.322 40.3128 31.7939 40.2617 31.8496C40.2617 31.8496 44.3285 29.2933 48.7765 29.0238C49.1018 29.0052 50.5752 29.1911 51.3886 27.8432C52.3507 26.2537 52.5273 23.0932 52.7922 21.0156C50.1104 21.4386 47.2427 20.1325 44.6585 20.9227C44.6446 20.9227 44.6307 20.9319 44.6214 20.9366C44.6214 20.9366 44.6121 20.9366 44.6074 20.9366C44.3797 21.011 44.1519 21.0946 43.9288 21.2062C44.1426 21.1318 44.3285 21.0993 44.4912 21.0993C44.4959 21.0993 44.5005 21.0993 44.5052 21.0993Z" fill="white"/>
<path d="M104.891 58.7703H107.61C108.191 58.7703 108.627 58.9144 108.925 59.156C109.246 59.4256 109.413 59.7881 109.413 60.2343C109.413 60.7921 109.12 61.1499 108.623 61.3359V61.3591C109.236 61.5497 109.631 62.0702 109.631 62.7395C109.631 63.3065 109.427 63.7155 109.055 63.999C108.725 64.2593 108.26 64.3988 107.67 64.3988H104.891V58.7656V58.7703ZM107.405 60.9966C107.809 60.9966 108.084 60.8014 108.084 60.4295C108.084 60.0577 107.823 59.8718 107.414 59.8718H106.271V60.9966H107.405ZM107.517 63.2833C107.972 63.2833 108.256 63.023 108.256 62.6233C108.256 62.1725 107.926 61.9447 107.498 61.9447H106.266V63.2833H107.512H107.517Z" fill="white"/>
<path d="M110.18 58.7695H114.451V59.9222H111.574V60.9308H114.042V62.0183H111.574V63.2221H114.497V64.4027H110.18V58.7695Z" fill="white"/>
<path d="M115.139 58.7695H116.533V64.4027H115.139V58.7695Z" fill="white"/>
<path d="M117.17 61.2559H119.313V62.3574H117.17V61.2559Z" fill="white"/>
<path d="M119.875 61.5956C119.875 59.9085 120.953 58.6582 122.654 58.6582C124.355 58.6582 125.443 59.9131 125.443 61.5956C125.443 63.2781 124.365 64.533 122.654 64.533C120.944 64.533 119.875 63.2781 119.875 61.5956ZM124.025 61.5956C124.025 60.5731 123.574 59.783 122.663 59.783C121.752 59.783 121.292 60.5731 121.292 61.5956C121.292 62.6181 121.757 63.399 122.663 63.399C123.57 63.399 124.025 62.6181 124.025 61.5956Z" fill="white"/>
<path d="M125.987 58.7695H127.391L129.059 61.6C129.148 61.7581 129.445 62.3158 129.445 62.3158H129.459C129.459 62.3158 129.445 61.6372 129.445 61.442V58.7695H130.807V64.4027H129.403L127.749 61.614C127.656 61.4653 127.349 60.8564 127.349 60.8564H127.335C127.335 60.8564 127.349 61.5815 127.349 61.7767V64.4027H125.987V58.7695Z" fill="white"/>
<path d="M131.583 58.7695H135.854V59.9222H132.977V60.9308H135.445V62.0183H132.977V63.2221H135.901V64.4027H131.583V58.7695Z" fill="white"/>
<path d="M105.429 71.9785C104.941 71.444 104.672 70.7003 104.672 69.8451C104.672 68.9899 104.969 68.1812 105.508 67.6467C105.973 67.1727 106.629 66.8984 107.437 66.8984C108.887 66.8984 109.752 67.67 109.933 68.8505H108.576C108.474 68.395 108.097 68.0464 107.479 68.0464C106.55 68.0464 106.085 68.818 106.085 69.8451C106.085 70.8723 106.619 71.6438 107.502 71.6438C108.237 71.6438 108.669 71.1558 108.725 70.6585V70.6446H107.67V69.622H110.017V72.6478H109.041L108.962 71.9692H108.948C108.576 72.5455 108.028 72.7733 107.349 72.7733C106.545 72.7733 105.89 72.4897 105.425 71.9831L105.429 71.9785Z" fill="white"/>
<path d="M110.7 67.0098H113.261C113.949 67.0098 114.451 67.191 114.804 67.521C115.157 67.8603 115.371 68.3112 115.371 68.8689C115.371 69.6172 114.967 70.1749 114.325 70.4538L115.632 72.6429H114.065L112.922 70.649H112.118V72.6429H110.7V67.0098ZM113.182 69.5521C113.679 69.5521 113.963 69.3011 113.963 68.8596C113.963 68.4181 113.679 68.181 113.182 68.181H112.118V69.5521H113.182Z" fill="white"/>
<path d="M117.658 67.0098H119.09L121.121 72.6429H119.657L119.327 71.625H117.356L117.035 72.6429H115.632L117.658 67.0098ZM119.006 70.6258L118.579 69.264C118.486 68.9711 118.36 68.4692 118.36 68.4692H118.346C118.346 68.4692 118.211 68.9711 118.118 69.264L117.686 70.6258H119.011H119.006Z" fill="white"/>
<path d="M121.521 67.0098H122.924L124.593 69.8403C124.681 69.9983 124.978 70.556 124.978 70.556H124.992C124.992 70.556 124.978 69.8775 124.978 69.6823V67.0098H126.34V72.6429H124.937L123.282 69.8542C123.189 69.7055 122.882 69.0966 122.882 69.0966H122.868C122.868 69.0966 122.882 69.8217 122.882 70.0169V72.6429H121.521V67.0098Z" fill="white"/>
<path d="M127.116 67.0107H129.519C131.081 67.0107 132.127 68.1355 132.127 69.8645C132.127 70.8591 131.778 71.6539 131.15 72.1326C130.709 72.4626 130.142 72.6439 129.431 72.6439H127.116V67.0107ZM129.329 71.468C130.244 71.468 130.714 70.8917 130.714 69.8598C130.714 68.828 130.216 68.1727 129.343 68.1727H128.506V71.468H129.324H129.329Z" fill="white"/>
<path d="M133.93 67.0107H136.467C137.155 67.0107 137.657 67.2013 138.006 67.5313C138.368 67.8706 138.573 68.3493 138.573 68.9163C138.573 69.9946 137.825 70.7615 136.667 70.7615H135.352V72.6439H133.934V67.0107H133.93ZM136.384 69.6553C136.886 69.6553 137.174 69.3579 137.174 68.907C137.174 68.4562 136.881 68.182 136.384 68.182H135.352V69.6553H136.384Z" fill="white"/>
<path d="M139.07 67.0107H141.631C142.319 67.0107 142.821 67.192 143.174 67.522C143.528 67.8613 143.741 68.3121 143.741 68.8699C143.741 69.6182 143.337 70.1759 142.696 70.4548L144.002 72.6439H142.435L141.292 70.65H140.488V72.6439H139.07V67.0107ZM141.552 69.5531C142.05 69.5531 142.333 69.3021 142.333 68.8606C142.333 68.419 142.05 68.182 141.552 68.182H140.488V69.5531H141.552Z" fill="white"/>
<path d="M144.406 67.0107H145.801V72.6439H144.406V67.0107Z" fill="white"/>
<path d="M148.078 69.6869L146.368 67.0098H147.957L148.91 68.6504H148.924L149.891 67.0098H151.401L149.733 69.673L151.601 72.6429H149.956L148.901 70.7373H148.887L147.79 72.6429H146.205L148.073 69.6869H148.078Z" fill="white"/>
<path d="M104.89 75.2461H106.763L107.447 77.7141C107.549 78.0673 107.772 78.9969 107.772 78.9969H107.786C107.786 78.9969 108.004 78.0673 108.102 77.7141L108.795 75.2461H110.686V80.8792H109.408V78.0441C109.408 77.8163 109.431 76.9193 109.431 76.9193H109.417C109.417 76.9193 109.222 77.7606 109.157 77.9651L108.344 80.8792H107.196L106.392 77.9697C106.327 77.7652 106.131 76.9147 106.131 76.9147H106.117C106.117 76.9147 106.141 77.821 106.141 78.0487V80.8792H104.886V75.2461H104.89Z" fill="white"/>
<path d="M111.356 79.7547C111.356 78.8623 112.067 78.5974 112.899 78.4859C113.657 78.3929 113.922 78.3139 113.922 78.035C113.922 77.7747 113.754 77.6028 113.368 77.6028C112.959 77.6028 112.755 77.784 112.713 78.1233H111.533C111.565 77.375 112.137 76.7383 113.359 76.7383C113.968 76.7383 114.377 76.8498 114.665 77.0683C115.014 77.3193 115.176 77.7143 115.176 78.2209V80.252C115.176 80.5774 115.209 80.754 115.321 80.8283V80.8841H114.075C114.01 80.7958 113.973 80.6378 113.94 80.4333H113.926C113.689 80.7726 113.336 80.9864 112.727 80.9864C111.923 80.9864 111.347 80.5541 111.347 79.7594L111.356 79.7547ZM113.954 79.4387V78.9599C113.787 79.0482 113.554 79.1087 113.294 79.1737C112.797 79.2853 112.592 79.4108 112.592 79.7175C112.592 80.0429 112.829 80.1684 113.145 80.1684C113.624 80.1684 113.959 79.8755 113.959 79.4433L113.954 79.4387Z" fill="white"/>
<path d="M116.119 79.8194V77.6535H115.585V76.8494H116.119V75.5713H117.374V76.8494H118.109V77.6535H117.374V79.5452C117.374 79.8612 117.546 79.9402 117.825 79.9402C117.937 79.9402 118.062 79.9309 118.109 79.9309V80.8698C117.997 80.9023 117.755 80.9348 117.407 80.9348C116.659 80.9348 116.124 80.6885 116.124 79.824L116.119 79.8194Z" fill="white"/>
<path d="M118.643 79.5737H119.856C119.902 79.9781 120.172 80.1733 120.595 80.1733C120.98 80.1733 121.227 80.0292 121.227 79.7689C121.227 79.4064 120.739 79.3692 120.204 79.2716C119.502 79.1554 118.754 78.9648 118.754 78.0167C118.754 77.1661 119.544 76.7246 120.497 76.7246C121.64 76.7246 122.254 77.2219 122.319 78.0167H121.138C121.092 77.6542 120.846 77.5426 120.492 77.5426C120.176 77.5426 119.935 77.6588 119.935 77.9144C119.935 78.198 120.39 78.2398 120.906 78.3327C121.617 78.4489 122.449 78.6302 122.449 79.6667C122.449 80.5498 121.668 81.0052 120.613 81.0052C119.433 81.0052 118.689 80.4614 118.652 79.5691L118.643 79.5737Z" fill="white"/>
<path d="M122.984 79.4947V76.8455H124.263V79.2251C124.263 79.6667 124.458 79.9084 124.867 79.9084C125.308 79.9084 125.578 79.5784 125.578 79.095V76.8408H126.861V80.8751H125.634V80.3778H125.61C125.318 80.7729 124.964 80.9913 124.407 80.9913C123.477 80.9913 122.989 80.3871 122.989 79.4854L122.984 79.4947Z" fill="white"/>
<path d="M127.455 78.8572C127.455 77.6534 128.296 76.7285 129.528 76.7285C130.104 76.7285 130.56 76.9191 130.908 77.2305C131.387 77.672 131.624 78.3738 131.62 79.1919H128.719C128.798 79.7356 129.096 80.0749 129.626 80.0749C129.965 80.0749 130.183 79.9262 130.295 79.6752H131.55C131.461 80.0377 131.229 80.3863 130.871 80.628C130.532 80.8651 130.123 80.9998 129.612 80.9998C128.278 80.9998 127.46 80.0796 127.46 78.8572H127.455ZM130.313 78.4296C130.267 77.9509 129.965 77.6395 129.551 77.6395C129.063 77.6395 128.812 77.9462 128.724 78.4296H130.313Z" fill="white"/>
<path d="M134.088 79.0069C134.576 78.5886 135.208 78.1935 135.631 77.817C135.849 77.6218 135.984 77.4173 135.984 77.1478C135.984 76.7295 135.738 76.4459 135.282 76.4459C135.031 76.4459 134.831 76.525 134.701 76.6923C134.543 76.8735 134.464 77.1199 134.455 77.4871H133.209C133.209 76.855 133.321 76.4692 133.581 76.116C133.888 75.6744 134.473 75.377 135.315 75.377C136.616 75.377 137.318 76.1485 137.318 77.1013C137.318 77.8496 136.899 78.2818 136.421 78.6537C135.942 79.0487 135.356 79.3787 134.98 79.7784V79.7877H137.327V80.8846H133.135C133.149 79.9783 133.553 79.4577 134.088 79.0069Z" fill="white"/>
<path d="M137.89 78.1884C137.89 76.4687 138.856 75.3672 140.279 75.3672C141.701 75.3672 142.668 76.4687 142.668 78.1884C142.668 79.9081 141.705 81.0096 140.274 81.0096C138.842 81.0096 137.894 79.9081 137.894 78.1884H137.89ZM141.292 78.1884C141.292 77.1426 140.999 76.399 140.274 76.399C139.549 76.399 139.251 77.1333 139.251 78.1884C139.251 79.2435 139.549 79.9685 140.274 79.9685C140.999 79.9685 141.292 79.2527 141.292 78.1884Z" fill="white"/>
<path d="M144.132 79.0059C144.62 78.5876 145.252 78.1925 145.675 77.8161C145.893 77.6209 146.028 77.4164 146.028 77.1468C146.028 76.7285 145.781 76.445 145.326 76.445C145.075 76.445 144.875 76.524 144.745 76.6913C144.587 76.8726 144.508 77.1189 144.499 77.4861H143.253C143.253 76.854 143.365 76.4682 143.625 76.115C143.932 75.6734 144.517 75.376 145.359 75.376C146.66 75.376 147.362 76.1475 147.362 77.1003C147.362 77.8486 146.943 78.2809 146.465 78.6527C145.986 79.0477 145.4 79.3777 145.024 79.7774V79.7867H147.371V80.8836H143.179C143.193 79.9773 143.597 79.4568 144.132 79.0059Z" fill="white"/>
<path d="M150.42 79.6849H147.906V78.4625L150.401 75.4275H151.707V78.6717H152.488V79.6802H151.707V80.8794H150.415V79.6802L150.42 79.6849ZM150.42 78.6763V76.8265H150.406L148.909 78.6624V78.6763H150.42Z" fill="white"/>
<path d="M138.953 48.2844C140.45 47.0992 142.086 46.2672 142.086 44.7335C142.086 43.618 141.496 42.8697 140.431 42.8697C139.232 42.8697 138.516 43.7388 138.484 45.2912H136.258C136.258 42.5769 137.652 40.8525 140.487 40.8525C143.081 40.8525 144.54 42.6094 144.54 44.6637C144.54 46.9086 143.011 47.9683 141.547 48.9444C140.627 49.5346 139.544 50.3015 139.144 51.0684H144.642V53.0158H136.081C136.169 50.7338 137.596 49.3441 138.953 48.2797V48.2844Z" fill="white"/>
<path d="M145.67 47.0667C145.67 43.2555 147.636 40.834 150.666 40.834C153.697 40.834 155.626 43.2369 155.626 47.0667C155.626 50.8965 153.748 53.2994 150.648 53.2994C147.548 53.2994 145.67 50.8639 145.67 47.0667ZM153.153 47.0667C153.153 44.5429 152.423 42.8558 150.666 42.8558C148.909 42.8558 148.143 44.5243 148.143 47.0667C148.143 49.609 148.891 51.2776 150.666 51.2776C152.442 51.2776 153.153 49.623 153.153 47.0667Z" fill="white"/>
<path d="M159.474 48.2844C160.97 47.0992 162.607 46.2672 162.607 44.7335C162.607 43.618 162.016 42.8697 160.952 42.8697C159.753 42.8697 159.037 43.7388 159.004 45.2912H156.778C156.778 42.5769 158.173 40.8525 161.008 40.8525C163.601 40.8525 165.061 42.6094 165.061 44.6637C165.061 46.9086 163.531 47.9683 162.067 48.9444C161.147 49.5346 160.064 50.3015 159.664 51.0684H165.163V53.0158H156.602C156.69 50.7338 158.117 49.3441 159.474 48.2797V48.2844Z" fill="white"/>
<path d="M171.585 50.4226H166.087V47.8664L171.502 40.9551H173.905V48.5263H175.713V50.4226H173.905V53.0161H171.59V50.4226H171.585ZM168.002 48.5263H171.585V43.8971H171.548L167.997 48.4752V48.5263H168.002Z" fill="white"/>
<path d="M112.926 41.7168C112.833 42.0019 112.732 42.3458 112.624 42.7486C112.308 43.8641 111.81 45.1701 111.424 45.9556C111.15 46.518 110.955 46.8247 110.611 47.3313C110.035 46.6853 109.784 46.4343 108.984 45.8441C109.231 45.5419 109.3 45.4443 109.482 45.1422C109.235 45.1143 108.97 45.1004 108.724 45.1004H108.31C108.794 46.0625 109.152 46.5459 110.016 47.415C109.602 48.2005 109.454 48.5863 109.203 49.3717C108.747 48.8233 108.529 48.4608 108.227 47.8287C108.255 48.2423 108.269 48.642 108.269 49.3299V52.0256C108.269 52.7274 108.296 53.3177 108.352 53.8011H106.191C106.247 53.3317 106.275 52.6856 106.275 52.0256V50.3896C106.284 49.6645 106.298 49.1285 106.316 48.7815C105.861 49.9248 105.587 50.4454 105.089 51.1333C104.857 50.1712 104.648 49.5344 104.29 48.7536C105.145 47.6799 105.749 46.4669 106.093 45.1051H105.68C105.238 45.1051 104.95 45.119 104.662 45.1748V43.1251C104.922 43.1809 105.224 43.1948 105.708 43.1948H106.256V42.2885C106.256 41.6424 106.242 41.2567 106.172 40.843H108.348C108.292 41.2427 108.264 41.6564 108.264 42.2885V43.1948H108.705C109.008 43.1948 109.31 43.1669 109.547 43.1251V45.04C110.123 43.9942 110.662 42.2885 110.788 41.0615L112.921 41.7215L112.926 41.7168ZM114.357 45.7372C114.311 45.8735 114.247 46.0749 114.167 46.3414C113.627 48.1447 113.177 49.4089 112.517 50.952C113.358 50.8404 113.795 50.7707 114.525 50.622C114.25 49.9062 114.069 49.5205 113.59 48.5165L115.449 47.7589C116.412 49.6738 116.769 50.5662 117.471 52.6159L115.477 53.6617C115.324 53.0853 115.259 52.8343 115.147 52.4625C113.483 52.8622 111.926 53.1365 110.053 53.3456C109.821 53.3735 109.709 53.3874 109.491 53.4432L109.119 51.1844C109.217 51.1983 109.351 51.1983 109.421 51.1983C109.561 51.1983 109.863 51.1844 110.276 51.1565C110.704 50.0968 110.922 49.4926 111.28 48.3771C111.778 46.848 112.052 45.8162 112.136 45.212L114.366 45.7325L114.357 45.7372ZM115.305 41.015C115.705 42.7904 116.463 44.2917 117.55 45.4211C116.876 46.095 116.709 46.3042 116.021 47.2663C115.445 46.5505 115.129 46.0671 114.729 45.3096C114.274 44.4265 114.083 43.9199 113.6 42.3071C113.558 42.1305 113.502 41.9771 113.409 41.7307L115.31 41.015H115.305Z" fill="white"/>
<path d="M120.413 44.194C121.598 44.8958 122.049 45.1979 123.123 46.0252L121.938 47.7728C120.878 46.8758 120.311 46.4946 119.158 45.8718L120.408 44.194H120.413ZM123.113 49.1625C122.467 50.9937 122.165 51.6955 121.543 52.8668C121.459 53.0434 121.417 53.0992 121.254 53.378C121.18 53.4989 121.112 53.6182 121.05 53.7359L119.205 52.151C119.893 51.3516 120.608 49.934 121.352 47.9541L123.113 49.1671V49.1625ZM122.3 44.3055C121.38 43.4782 120.841 43.0785 119.604 42.3116L120.91 40.7686C121.984 41.3867 122.546 41.7585 123.541 42.544V41.554C124.024 41.6098 124.489 41.6377 125.275 41.6377H130.108C130.866 41.6377 131.321 41.6098 131.814 41.554V43.771C131.345 43.7153 130.81 43.6874 130.108 43.6874H128.565V50.9565H130.313C131.084 50.9565 131.689 50.9286 132.088 50.8729V53.1038C131.591 53.048 131.098 53.0202 130.313 53.0202H124.67C123.885 53.0202 123.392 53.048 122.895 53.1038V50.8729C123.337 50.9286 123.899 50.9565 124.67 50.9565H126.362V43.6874H125.247C124.531 43.6874 123.992 43.7153 123.541 43.771V42.7253L122.3 44.3102V44.3055Z" fill="white"/>
<path d="M110.087 25.4403C110.087 24.878 110.059 24.5201 110.003 24.1204H112.355C112.299 24.4922 112.271 24.878 112.271 25.4403V28.7868H115.59C116.333 28.7868 116.979 28.7589 117.463 28.6891V30.8225C116.9 30.7528 116.277 30.7249 115.604 30.7249H113.345C113.842 31.343 114.572 32.0588 115.274 32.584C116.031 33.1464 116.91 33.6298 117.918 34.0295C117.314 34.7592 117.063 35.1589 116.598 36.0931C115.292 35.3495 114.697 34.9079 113.833 34.0992C113.145 33.4671 112.717 32.9419 112.234 32.1564L112.248 32.4027C112.262 32.7606 112.276 32.993 112.276 33.2301V35.2518C112.276 35.8282 112.304 36.4649 112.373 37.0273H109.994C110.049 36.5858 110.091 35.9537 110.091 35.2518V33.2579C110.091 32.8303 110.105 32.5422 110.133 32.1704C109.608 33.0116 109.115 33.5879 108.246 34.3595C107.461 35.0752 106.801 35.5586 105.918 36.0513C105.42 35.1031 105.188 34.7592 104.653 34.1224C105.741 33.6251 106.457 33.1743 107.34 32.4306C108.028 31.8543 108.497 31.357 108.953 30.7249H106.982C106.238 30.7249 105.662 30.7528 105.081 30.8225V28.6891C105.522 28.7589 106.057 28.7868 106.968 28.7868H110.091V25.4403H110.087ZM107.609 28.7589C107.112 27.6155 106.689 26.8719 105.82 25.6913L107.554 24.6316C108.451 25.8029 108.846 26.4071 109.482 27.6062L107.609 28.7635V28.7589ZM112.852 27.6434C113.651 26.6255 114.107 25.8958 114.711 24.613L116.598 25.617C115.868 26.9927 115.385 27.7363 114.576 28.7542L112.857 27.6387L112.852 27.6434Z" fill="white"/>
<path d="M140.316 27.5319C140.218 27.6992 140.112 28.0152 139.958 28.4661C138.652 32.5933 136.324 35.1543 132.196 37.0134C131.797 36.2279 131.22 35.4843 130.546 34.9079C134.181 33.6019 136.426 31.4128 137.444 28.2058L133.781 28.2476C132.926 29.6094 131.824 30.8086 130.658 31.701C129.998 30.9434 129.556 30.5576 128.701 30.051C130.286 28.9634 131.495 27.5737 132.364 25.854C132.722 25.1383 132.912 24.5991 132.954 24.204L135.557 24.6735C135.487 24.8129 135.473 24.8269 135.389 25.0035C135.375 25.0453 135.334 25.129 135.292 25.2219C135.236 25.3474 135.18 25.4682 135.166 25.5101C135.069 25.7146 135.013 25.854 134.999 25.868C134.985 25.9098 134.943 26.0074 134.887 26.1004L138.011 26.0725H138.313C138.094 25.603 137.857 25.2173 137.527 24.7525L138.889 24.3109C139.373 24.943 139.73 25.617 140.033 26.4164L139.605 26.5698L140.307 27.5319H140.316ZM140.823 23.7346C141.278 24.3388 141.594 24.9198 141.966 25.7843L140.66 26.2677C140.274 25.3567 139.958 24.7525 139.531 24.1622L140.823 23.7346Z" fill="white"/>
<path d="M142.816 28.0986C143.435 28.1822 143.876 28.2101 145.033 28.2101H151.945C152.605 28.2101 152.702 28.1962 153.046 28.0567L154.12 29.214C153.953 29.4604 153.925 29.5161 153.734 30.0832C153.018 32.1329 152.028 33.6759 150.676 34.8053C149.63 35.6884 148.64 36.2229 146.753 36.9526C146.395 36.1393 146.009 35.5769 145.21 34.6938C146.86 34.2662 147.855 33.8247 148.845 33.081C149.849 32.3374 150.457 31.5519 150.964 30.3295H145.006C143.918 30.3295 143.686 30.3435 142.816 30.4132V28.0986ZM143.96 24.6545C144.499 24.7382 145.006 24.7661 145.982 24.7661H150.374C151.461 24.7661 152.052 24.7382 152.535 24.6545V26.9691C152.014 26.9273 151.364 26.8994 150.416 26.8994H145.954C144.866 26.8994 144.564 26.9134 143.96 26.9691V24.6545Z" fill="white"/>
<path d="M157.508 25.1243C159.242 26.1421 160.139 26.7742 161.292 27.8246L159.665 29.9719C158.466 28.717 157.299 27.8107 155.919 27.067L157.504 25.1243H157.508ZM156.063 33.6716C157.467 33.56 158.912 33.2161 160.209 32.6816C161.943 31.9658 163.183 30.934 164.243 29.2794C164.819 28.3963 165.191 27.6434 165.591 26.5837C166.265 27.397 166.581 27.6713 167.613 28.4289C166.363 31.1385 165.052 32.7653 163.123 34.0016C161.636 34.9637 160.33 35.4749 157.769 36.0652C157.23 36.1907 157.151 36.2046 156.779 36.3115L156.063 33.6669V33.6716Z" fill="white"/>
<path d="M179.985 27.1373L179.971 27.1931C179.957 27.2489 179.943 27.2907 179.929 27.3325L179.846 27.6904C178.716 32.1105 176.323 34.8898 171.945 36.8466C171.489 35.9263 171.103 35.4011 170.211 34.532C173.873 33.3886 176.351 30.9532 177.136 27.7462H171.382C169.923 27.7601 169.593 27.7741 169.109 27.8298V25.3526C169.635 25.4362 170.02 25.4641 171.424 25.4641H178.447C178.489 24.6089 179.149 23.9768 179.99 23.9768C180.831 23.9768 181.547 24.6647 181.547 25.5338C181.547 26.403 180.873 27.0769 180.004 27.0908L179.99 27.1466L179.985 27.1373ZM179.2 25.5245C179.2 25.9382 179.558 26.2961 179.985 26.2961C180.413 26.2961 180.771 25.9382 180.771 25.5245C180.771 25.1109 180.413 24.739 179.985 24.739C179.558 24.739 179.2 25.0969 179.2 25.5245Z" fill="white"/>
<path d="M186.097 24.7666C186.042 25.3987 186.028 25.6497 186.028 26.6118V29.3493C186.028 30.3254 186.042 30.7669 186.097 31.3154H183.425C183.495 30.818 183.508 30.3393 183.508 29.3075V26.5839C183.508 25.7427 183.495 25.3708 183.425 24.7666H186.097ZM192.497 24.7666C192.442 25.5381 192.428 25.7427 192.428 26.6257V28.2339C192.428 30.1209 192.316 31.4409 192.112 32.2403C191.698 33.7415 190.764 34.8709 189.248 35.7354C188.463 36.1909 187.733 36.4791 186.385 36.8648C186.069 35.9446 185.725 35.3636 184.982 34.5131C186.302 34.2667 187.004 34.0436 187.705 33.6718C188.919 33.0258 189.537 32.2124 189.755 30.9993C189.839 30.4881 189.908 29.2796 189.908 28.0805V26.649C189.908 25.645 189.895 25.3569 189.825 24.762H192.497V24.7666Z" fill="white"/>
<path d="M122.115 28.2617H119.289V26.6211C120.823 26.5653 122.189 26.0029 122.445 24.3948H124.615V36.981H122.115V28.2617Z" fill="white"/>
</svg>
