<svg width="226" height="32" viewBox="0 0 226 32" fill="none" xmlns="http://www.w3.org/2000/svg">
<path d="M10.7865 4.31724C12.4718 3.18733 14.8733 4.04146 15.9075 3.23329C15.9305 3.21414 15.9688 3.23329 15.9994 3.23329C15.7734 1.27988 14.5976 0.647901 13.8277 0.44873C12.4718 1.47906 9.14336 0.43341 8.20496 2.34851C9.20847 2.62046 10.0741 3.28308 10.7865 4.31724Z" fill="white"/>
<path d="M5.67745 8.43085C6.57372 6.6115 9.0825 6.14805 9.56894 4.93004C9.58043 4.8994 9.62256 4.8994 9.64937 4.88408C8.47733 3.30603 7.14442 3.34817 6.37455 3.55883C5.71575 5.12921 2.3107 5.88759 2.45242 8.01719C3.45976 7.7529 4.53988 7.89079 5.67362 8.43085H5.67745Z" fill="white"/>
<path d="M3.30996 14.5479C3.17591 12.5217 5.11782 10.8709 4.93014 9.57244C4.92631 9.54179 4.96461 9.51881 4.97993 9.492C3.17591 8.71064 2.04217 9.41157 1.48296 9.97844C1.69745 11.6676 -0.872619 14.027 0.314744 15.8003C1.05397 15.0688 2.06132 14.6475 3.30996 14.5479Z" fill="white"/>
<path d="M4.31748 21.0247C3.18757 19.3394 4.04171 16.9378 3.23353 15.9037C3.21438 15.8807 3.23353 15.8424 3.23353 15.8118C1.28013 16.0377 0.648145 17.2136 0.448975 17.9835C1.4793 19.3394 0.433654 22.6678 2.34876 23.6062C2.6207 22.6027 3.28333 21.7371 4.31748 21.0247Z" fill="white"/>
<path d="M8.4306 26.134C6.61126 25.2378 6.1478 22.729 4.9298 22.2425C4.89916 22.2311 4.89916 22.1889 4.88383 22.1621C3.30579 23.3342 3.34792 24.6671 3.55858 25.4369C5.12897 26.0957 5.88735 29.5008 8.01694 29.3591C7.75266 28.3517 7.89055 27.2716 8.4306 26.1379V26.134Z" fill="white"/>
<path d="M14.5474 28.4974C12.5212 28.6314 10.8704 26.6895 9.57195 26.8772C9.54131 26.881 9.51833 26.8427 9.49151 26.8274C8.71015 28.6314 9.41108 29.7652 9.97795 30.3244C11.6671 30.1099 14.0265 32.6799 15.7999 31.4926C15.0683 30.7534 14.647 29.746 14.5474 28.4974Z" fill="white"/>
<path d="M21.0247 27.49C19.3394 28.6199 16.9378 27.7658 15.9037 28.5739C15.8807 28.5931 15.8424 28.5739 15.8118 28.5739C16.0377 30.5273 17.2136 31.1593 17.9835 31.3585C19.3394 30.3282 22.6678 31.3738 23.6062 29.4587C22.6027 29.1868 21.7371 28.5241 21.0247 27.49Z" fill="white"/>
<path d="M26.1339 23.3801C25.2376 25.1995 22.7289 25.6629 22.2424 26.8809C22.2309 26.9116 22.1888 26.9116 22.162 26.9269C23.334 28.5049 24.6669 28.4628 25.4368 28.2521C26.0956 26.6818 29.5007 25.9234 29.3589 23.7938C28.3516 24.0581 27.2715 23.9202 26.1377 23.3801H26.1339Z" fill="white"/>
<path d="M28.4971 17.2635C28.6312 19.2896 26.6893 20.9405 26.8769 22.2389C26.8808 22.2695 26.8425 22.2925 26.8271 22.3193C28.6312 23.1007 29.7649 22.3998 30.3241 21.8329C30.1096 20.1438 32.6797 17.7844 31.4923 16.011C30.7531 16.7426 29.7458 17.1639 28.4971 17.2635Z" fill="white"/>
<path d="M27.4904 10.7864C28.6203 12.4717 27.7661 14.8732 28.5743 15.9074C28.5935 15.9304 28.5743 15.9687 28.5743 15.9993C30.5277 15.7733 31.1597 14.5974 31.3589 13.8276C30.3285 12.4717 31.3742 9.14323 29.4591 8.20483C29.1871 9.20835 28.5245 10.074 27.4904 10.7864Z" fill="white"/>
<path d="M23.38 5.67708C25.1994 6.57335 25.6628 9.08214 26.8808 9.56857C26.9115 9.58006 26.9115 9.6222 26.9268 9.64901C28.5048 8.47696 28.4627 7.14405 28.252 6.37418C26.6816 5.71539 25.9233 2.31033 23.7937 2.45205C24.058 3.4594 23.9201 4.53951 23.38 5.67325V5.67708Z" fill="white"/>
<path d="M17.2629 3.30996C19.289 3.17591 20.9398 5.11782 22.2383 4.93014C22.2689 4.92631 22.2919 4.96461 22.3187 4.97993C23.1001 3.17591 22.3992 2.04217 21.8323 1.48296C20.1432 1.69745 17.7838 -0.872619 16.0104 0.314744C16.7419 1.05397 17.1633 2.06132 17.2629 3.30996Z" fill="white"/>
<path d="M19.7065 9.46519C19.7142 10.6947 19.7563 11.928 19.7065 13.1613C19.6567 14.0116 19.2124 15.4212 18.5613 16.1106C19.9325 16.0225 21.6944 15.9727 23.0656 16.1029C21.5642 15.2143 22.2268 8.12845 22.3034 6.99854C22.3034 6.99854 22.2804 7.01386 22.2306 7.04067C21.162 7.67265 20.0053 8.17824 18.8026 8.49231C19.3388 8.5536 19.7103 8.87917 19.7065 9.46136V9.46519Z" fill="white"/>
<path d="M12.8659 22.5491C12.5096 22.8862 11.8279 23.1122 11.3338 23.0815C10.449 23.0279 9.74424 22.3193 9.68679 21.4345C9.65615 20.9443 9.82467 20.4732 10.1617 20.117C10.495 19.7646 10.9622 19.5616 11.4448 19.5616C11.8279 19.5616 12.1994 19.688 12.502 19.914L14.7005 18.175C14.4362 18.1138 14.1949 17.9682 13.9268 17.8035C13.3868 17.4779 12.7165 17.0681 11.4448 17.0681C10.292 17.0681 9.21184 17.5239 8.40367 18.3474C7.59549 19.1747 7.16651 20.2663 7.19332 21.4192C7.22013 22.5108 7.66061 23.5412 8.44197 24.3187C9.2195 25.0962 10.2498 25.5405 11.3414 25.5673C11.8738 25.5788 12.2683 25.5367 12.751 25.3643C13.0995 24.3149 12.8659 22.5376 12.8659 22.5376V22.5491Z" fill="white"/>
<path d="M15.5735 23.208C15.5812 22.9552 15.5965 22.7063 15.6233 22.4611C15.6387 22.3079 15.6578 22.1585 15.6846 22.013C15.7306 21.741 15.6578 21.4614 15.4855 21.2469C15.3169 21.0363 15.0718 20.9099 14.7998 20.8907C14.3555 20.8639 14.1372 20.8984 13.9266 20.929C13.6201 20.975 13.329 21.0171 12.4902 20.8946C12.6473 21.0478 12.7852 21.2278 12.9001 21.4385C12.9422 21.5151 12.9805 21.5917 13.015 21.6759C13.0456 21.7487 13.0763 21.8291 13.1031 21.9096C13.2678 22.3883 13.3482 22.9705 13.3405 23.6485C13.3367 24.2268 13.2678 24.7746 13.1988 25.2036C13.1873 25.2648 13.1797 25.3223 13.1682 25.3797C13.1567 25.441 13.1452 25.5023 13.1337 25.5598C13.1222 25.621 13.1107 25.6823 13.0992 25.7321C13.2716 25.6708 13.4478 25.6479 13.624 25.6479C13.8653 25.6479 14.1142 25.69 14.3709 25.7359C14.8267 25.8164 15.2939 25.8968 15.8302 25.7628C15.6348 24.9776 15.5467 24.0851 15.5697 23.2118L15.5735 23.208Z" fill="white"/>
<path d="M19.3074 20.3466L19.7517 20.6722L19.6828 17.5659C18.9436 17.6387 17.7869 17.6348 16.7719 17.5161C17.2085 18.0064 17.6834 18.9754 17.6834 20.4922C17.6834 20.8407 17.6834 21.1778 17.6873 21.4957C17.7026 23.6483 17.7103 25.0769 17.0093 25.8008C17.603 25.7625 18.2158 25.7472 18.8095 25.7472C19.5181 25.7472 20.1999 25.774 20.7821 25.8238C20.3493 25.3297 20.0582 24.4335 19.9011 23.3802C18.5452 22.6371 19.2998 20.3466 19.2998 20.3466H19.3074Z" fill="white"/>
<path d="M23.4359 17.7346C22.7579 17.252 21.831 17.2213 21.1761 17.2826C20.636 17.3324 20.1802 17.4511 19.981 17.5086L20.0308 19.5386C20.5019 19.4007 21.7008 19.1211 22.2868 19.596C22.5511 19.8105 22.6583 20.1399 22.6009 20.5766C22.5358 21.086 22.1949 21.446 21.6663 21.5648C21.2029 21.6682 20.0691 21.3158 19.4946 20.8792C19.4946 20.8792 18.7745 23.476 21.5399 23.5833C22.1489 23.6063 22.8077 23.4224 23.3171 22.8172C23.9108 22.1048 24.4049 21.3081 24.3973 20.0557C24.3896 18.9717 24.0679 18.1904 23.432 17.7384L23.4359 17.7346Z" fill="white"/>
<path d="M13.8931 13.0466C13.8701 12.8589 13.851 12.6712 13.8395 12.4797C13.3952 12.5602 12.947 12.6406 12.4989 12.7095C12.1657 12.7593 11.8324 12.8091 11.4954 12.8513C11.5299 13.4871 11.4762 14.1689 11.2617 14.7664C11.2234 14.8698 11.2043 14.9809 11.2005 15.0881C11.1775 15.5439 11.1507 16.0035 11.097 16.4555C11.6409 16.3253 12.2001 16.2831 12.7517 16.241C13.1041 16.2027 13.4948 16.2027 13.7973 16.0074C13.9659 15.8848 14.0003 15.6933 13.9965 15.4826C14.031 15.0307 14.0501 14.5787 14.054 14.1229C14.054 14.0003 14.0386 13.8778 14.0157 13.7552C13.9659 13.5139 13.9276 13.2726 13.8931 13.0389V13.0466Z" fill="white"/>
<path d="M11.1464 9.84449C11.2307 9.92493 11.3226 9.98621 11.426 10.0169C11.8014 10.1624 12.33 9.81768 12.33 9.81768C12.33 9.81768 12.15 10.3233 11.7861 10.5416C12.2304 10.4535 12.667 10.3692 13.1152 10.285C13.4063 9.98238 13.7893 9.51893 14.0114 9.16272C14.0153 8.96738 14.0229 8.77587 14.0306 8.58053C14.0497 8.20134 14.1302 7.46211 14.4711 7.09058C13.6437 7.26677 12.7858 7.25527 11.9431 7.2706C11.7631 7.28592 11.5716 7.33954 11.4299 7.45062C11.1273 7.68426 11.0737 8.09409 11.0852 8.4503C11.1043 8.91375 11.1273 9.37721 11.1464 9.84449Z" fill="white"/>
<path d="M10.8821 14.9924C10.905 14.9502 10.9242 14.9043 10.9433 14.8583C11.0008 14.7319 11.0468 14.6017 11.0889 14.4715C11.1502 14.2723 11.2 14.0693 11.2306 13.8625C11.2842 13.5369 11.2995 13.2037 11.2957 12.8743C11.2727 12.8743 11.2536 12.8781 11.2306 12.8819C11.1885 12.8858 11.1463 12.8934 11.1042 12.8972C11.0621 12.9011 11.0199 12.9049 10.9778 12.9126C10.3726 12.9815 9.76746 13.0275 9.15846 13.0543C9.03973 13.9314 8.63755 14.7932 7.89066 15.2911C7.77193 15.3677 7.64553 15.429 7.51147 15.4788C8.18942 15.6512 8.84056 15.9652 9.54148 15.9499C10.1467 15.9423 10.6178 15.5094 10.8782 14.9885L10.8821 14.9924Z" fill="white"/>
<path d="M18.2545 15.2873C18.0247 15.2069 17.8141 15.0767 17.6302 14.9273C16.8642 14.2762 16.2858 13.1884 16.0522 12.1504C15.5696 12.1504 14.9529 12.2768 14.7882 12.3074C14.6043 12.3419 14.4167 12.3764 14.2328 12.4108C14.1983 12.4185 14.1677 12.4223 14.1332 12.43C14.1026 12.4377 14.0681 12.4415 14.0375 12.4491C14.0375 12.4645 14.0375 12.4836 14.0413 12.4989C14.0681 12.7747 14.1102 13.0505 14.1639 13.3263C14.1983 13.5101 14.2405 13.694 14.2903 13.874C14.2979 13.9085 14.3094 13.9429 14.3171 13.9774C14.5354 14.709 14.8763 15.5363 15.6117 15.8619C16.0522 16.0419 16.5233 15.95 16.9676 15.7929C17.4004 15.6435 17.8179 15.4367 18.2584 15.295L18.2545 15.2873Z" fill="white"/>
<path d="M9.51024 10.7445C9.70941 10.7215 9.91241 10.6908 10.1116 10.6602C10.395 10.6142 10.6785 10.5644 10.9619 10.5147C11.0002 10.507 11.0347 10.4993 11.073 10.4955C11.1074 10.4878 11.1457 10.484 11.1802 10.4764C11.2721 10.4572 11.6666 10.3155 11.7624 10.2082C11.5249 10.2734 11.3219 10.2312 11.1572 10.1125C11.1189 10.0857 11.0845 10.055 11.05 10.0206C11.0117 9.98225 10.9772 9.94012 10.9427 9.89416C10.5176 9.31197 10.4486 8.12844 10.667 7.55774C10.2035 7.4773 9.74388 7.55774 9.30724 7.70328C8.9089 7.82968 8.51056 7.97523 8.08923 8.02885C8.4148 8.76042 8.56418 9.5571 8.98167 10.2427C9.12722 10.4878 9.30724 10.6027 9.50641 10.7445H9.51024Z" fill="white"/>
<path d="M8.18498 12.8129C8.568 12.8129 10.3873 12.7133 10.981 12.652C11.0232 12.6482 11.0653 12.6443 11.1036 12.6405C11.1457 12.6367 11.1879 12.6328 11.2262 12.629C11.2453 12.629 11.2683 12.6252 11.2874 12.6213C11.3181 12.6213 11.3526 12.6137 11.3832 12.6099C11.4138 12.6099 11.4445 12.6022 11.4751 12.5984C11.8045 12.5601 12.1339 12.5218 12.4633 12.4796C12.9191 12.4222 14.4895 12.1579 15.133 12.0583C17.4234 11.6944 16.6574 12.4107 16.688 12.6711C16.8949 12.3379 17.3124 12.4413 17.4119 11.8208C17.4502 11.5795 17.4464 11.3306 17.4426 11.0854C17.4388 10.5607 17.5537 9.70273 16.1173 9.85593C14.4742 10.036 12.5514 10.756 12.5514 10.756C12.7697 10.5952 12.9766 10.4151 13.1681 10.2198C12.7046 10.3232 12.2412 10.4305 11.7777 10.5377C11.6973 10.5569 8.72887 11.3229 7.94751 10.8594C7.84409 11.1237 8.32287 11.9396 8.17732 12.809L8.18498 12.8129Z" fill="white"/>
<path d="M14.5579 6.90274C14.5579 6.90274 14.5656 6.90274 14.5694 6.90274C14.9103 6.91806 14.8797 7.38918 14.8452 7.71091C14.6652 9.26598 13.1867 10.3997 13.1714 10.4189C13.1714 10.4189 14.5005 9.58388 15.9559 9.49579C16.0632 9.48813 16.5458 9.54941 16.8101 9.10894C17.1242 8.58803 17.1816 7.55388 17.2697 6.87593C16.3926 7.01382 15.4542 6.58483 14.6115 6.84529C14.6077 6.84529 14.6039 6.84529 14.6001 6.84912C14.6001 6.84912 14.6001 6.84912 14.5962 6.84912C14.5196 6.8721 14.4468 6.90274 14.3741 6.93721C14.443 6.91423 14.5043 6.90274 14.5579 6.90274C14.5579 6.90274 14.5579 6.90274 14.5618 6.90274H14.5579Z" fill="white"/>
<path d="M44.6596 9.81754C44.6596 9.17024 44.6289 8.76041 44.5638 8.30078H47.2603C47.1952 8.72593 47.1645 9.17024 47.1645 9.81754V13.6516H50.9679C51.8182 13.6516 52.5613 13.6209 53.1128 13.5405V15.988C52.4655 15.9076 51.7569 15.8769 50.9832 15.8769H48.394C48.9609 16.5855 49.7997 17.409 50.604 18.0065C51.4735 18.6538 52.4808 19.2054 53.6337 19.665C52.9405 20.5 52.657 20.9596 52.117 22.0321C50.6194 21.1818 49.9376 20.6762 48.9456 19.7454C48.1565 19.0215 47.6663 18.4202 47.1147 17.5201L47.1301 17.8035C47.1454 18.2134 47.1607 18.4815 47.1607 18.7496V21.0707C47.1607 21.7333 47.1913 22.4572 47.2718 23.1045H44.5408C44.6059 22.5989 44.6519 21.875 44.6519 21.0707V18.7841C44.6519 18.2938 44.6672 17.9644 44.6979 17.5392C44.0965 18.5006 43.5297 19.1632 42.5376 20.048C41.6375 20.8677 40.8792 21.4192 39.8718 21.9899C39.3049 20.9022 39.0368 20.5076 38.4202 19.7799C39.665 19.213 40.4885 18.6921 41.4958 17.838C42.2848 17.1754 42.8211 16.6085 43.342 15.8808H41.086C40.2357 15.8808 39.5692 15.9114 38.9066 15.9918V13.5443C39.4122 13.6248 40.0289 13.6554 41.0668 13.6554H44.6481V9.82137L44.6596 9.81754ZM41.8176 13.6209C41.2507 12.311 40.7604 11.4607 39.7646 10.101L41.7524 8.8868C42.7789 10.2274 43.2347 10.9206 43.9625 12.2957L41.8176 13.6209ZM47.831 12.3416C48.7464 11.1734 49.2673 10.3384 49.9606 8.87148L52.1208 10.0244C51.2858 11.6024 50.7343 12.4527 49.7997 13.6209L47.8272 12.3416H47.831Z" fill="white"/>
<path d="M79.3076 12.2153C79.1965 12.403 79.0701 12.7668 78.8978 13.2878C77.4002 18.0219 74.7305 20.9558 69.9964 23.0854C69.5368 22.1853 68.878 21.335 68.1043 20.6724C72.2715 19.1748 74.8416 16.666 76.0098 12.989L71.8119 13.035C70.8352 14.5977 69.5712 15.9689 68.2307 16.9954C67.4723 16.1259 66.9667 15.6855 65.99 15.1033C67.8055 13.8585 69.192 12.2613 70.1879 10.2887C70.5977 9.46904 70.8199 8.85237 70.8658 8.39658L73.8496 8.93281C73.7691 9.08985 73.7538 9.10517 73.6581 9.312C73.6427 9.35796 73.5968 9.45372 73.547 9.56479C73.4819 9.70651 73.4206 9.84823 73.4053 9.89802C73.2942 10.1355 73.2329 10.2925 73.2176 10.3079C73.2023 10.3538 73.1525 10.4649 73.0912 10.576L76.6724 10.5453H77.021C76.7682 10.0091 76.5001 9.56862 76.1209 9.02856L77.6836 8.52298C78.2352 9.24689 78.645 10.0206 78.9935 10.936L78.5033 11.1084L79.3076 12.2115V12.2153ZM79.8936 7.86035C80.4145 8.55362 80.7784 9.21624 81.2036 10.2121L79.706 10.7636C79.2655 9.72183 78.9016 9.02856 78.4113 8.35062L79.8936 7.86035Z" fill="white"/>
<path d="M82.1797 12.8626C82.8883 12.9583 83.3939 12.989 84.7191 12.989H92.64C93.3984 12.989 93.5094 12.9737 93.9039 12.8166L95.1334 14.1419C94.9419 14.4253 94.9113 14.4904 94.693 15.1339C93.8733 17.4856 92.7357 19.2514 91.1883 20.546C89.9895 21.5572 88.8519 22.17 86.6917 23.0088C86.2818 22.0781 85.8414 21.4308 84.9259 20.4196C86.8181 19.9293 87.9556 19.4237 89.0932 18.5734C90.2461 17.7231 90.9394 16.823 91.5216 15.4173H84.6885C83.4437 15.4173 83.1717 15.4327 82.1797 15.5131V12.8626ZM83.4896 8.91748C84.1063 9.01324 84.6885 9.04388 85.8107 9.04388H90.8436C92.0884 9.04388 92.7702 9.01324 93.3218 8.91748V11.568C92.7204 11.522 91.9812 11.4875 90.8934 11.4875H85.7801C84.5353 11.4875 84.1867 11.5029 83.4935 11.568V8.91748H83.4896Z" fill="white"/>
<path d="M99.0174 9.45361C101.005 10.6218 102.032 11.3457 103.357 12.5484L101.496 15.0112C100.124 13.5749 98.7799 12.5331 97.2019 11.6828L99.0174 9.45744V9.45361ZM97.3589 19.2551C98.9676 19.1287 100.626 18.7342 102.108 18.1175C104.096 17.2979 105.517 16.1143 106.731 14.2184C107.394 13.2072 107.819 12.3416 108.279 11.1274C109.053 12.0582 109.416 12.3722 110.6 13.2417C109.164 16.3518 107.666 18.2133 105.456 19.6343C103.752 20.7374 102.254 21.3234 99.3162 22.0014C98.6995 22.1431 98.6076 22.1584 98.1786 22.2848L97.3589 19.2551Z" fill="white"/>
<path d="M124.783 11.7595L124.768 11.8246C124.752 11.8898 124.737 11.9357 124.722 11.9817L124.626 12.3915C123.331 17.455 120.585 20.6456 115.567 22.8863C115.046 21.8291 114.606 21.2278 113.58 20.2358C117.777 18.9258 120.616 16.1336 121.516 12.4566H114.92C113.246 12.4719 112.867 12.4873 112.316 12.5524V9.71037C112.917 9.80612 113.357 9.83677 114.966 9.83677H123.013C123.059 8.86006 123.818 8.13232 124.779 8.13232C125.74 8.13232 126.564 8.92135 126.564 9.9172C126.564 10.9131 125.79 11.6829 124.798 11.7021L124.783 11.7672V11.7595ZM123.883 9.91337C123.883 10.3883 124.293 10.7981 124.783 10.7981C125.273 10.7981 125.683 10.3883 125.683 9.91337C125.683 9.43842 125.273 9.01327 124.783 9.01327C124.293 9.01327 123.883 9.4231 123.883 9.91337Z" fill="white"/>
<path d="M131.789 9.04395C131.724 9.77168 131.709 10.0551 131.709 11.1582V14.299C131.709 15.4212 131.724 15.923 131.789 16.555H128.729C128.81 15.9881 128.825 15.4366 128.825 14.253V11.1276C128.825 10.1662 128.81 9.73721 128.729 9.04395H131.789ZM139.128 9.04395C139.063 9.92872 139.048 10.1624 139.048 11.1735V13.0197C139.048 15.1799 138.921 16.6967 138.684 17.6121C138.209 19.3319 137.136 20.6265 135.401 21.6185C134.501 22.1394 133.666 22.4726 132.119 22.9131C131.755 21.856 131.36 21.1934 130.51 20.2167C132.027 19.9332 132.831 19.6804 133.636 19.2553C135.022 18.5122 135.735 17.5815 135.987 16.1949C136.083 15.6127 136.16 14.2224 136.16 12.8512V11.2118C136.16 10.0589 136.144 9.72955 136.064 9.05161H139.124L139.128 9.04395Z" fill="white"/>
<path d="M151.419 9.28144C151.314 9.60828 151.198 10.0028 151.07 10.465C150.706 11.7443 150.139 13.2419 149.699 14.142C149.385 14.7893 149.163 15.134 148.768 15.72C148.105 14.977 147.822 14.6935 146.907 14.0156C147.19 13.667 147.27 13.5598 147.473 13.2112C147.19 13.1806 146.891 13.1653 146.604 13.1653H146.129C146.681 14.2684 147.09 14.8237 148.086 15.8158C147.611 16.7159 147.439 17.1563 147.156 18.0564C146.635 17.4245 146.382 17.0146 146.033 16.2907C146.064 16.7657 146.079 17.2215 146.079 18.0105V21.1014C146.079 21.9058 146.11 22.5837 146.175 23.1353H143.697C143.758 22.5991 143.793 21.856 143.793 21.1014V19.2246C143.803 18.3948 143.818 17.7794 143.839 17.3785C143.318 18.6884 143.004 19.2898 142.433 20.075C142.165 18.9719 141.927 18.2441 141.517 17.344C142.494 16.1145 143.191 14.7242 143.586 13.1614H143.111C142.605 13.1614 142.276 13.1768 141.943 13.2419V10.8901C142.241 10.9552 142.59 10.9706 143.141 10.9706H143.773V9.92874C143.773 9.18568 143.758 8.74521 143.678 8.27026H146.171C146.106 8.72606 146.075 9.201 146.075 9.92874V10.9706H146.581C146.93 10.9706 147.274 10.9399 147.542 10.8901V13.0848C148.205 11.886 148.822 9.92874 148.963 8.52306L151.411 9.28144H151.419ZM153.062 13.8892C153.008 14.0475 152.934 14.2786 152.84 14.5824C152.223 16.6508 151.702 18.1024 150.947 19.8681C151.909 19.7417 152.414 19.6613 153.249 19.4889C152.935 18.6693 152.728 18.225 152.177 17.0759L154.307 16.2064C155.41 18.4012 155.823 19.4238 156.628 21.7756L154.341 22.9744C154.169 22.3118 154.088 22.0284 153.962 21.6032C152.054 22.0628 150.269 22.3769 148.125 22.6144C147.856 22.645 147.73 22.6603 147.477 22.7255L147.052 20.1362C147.163 20.1516 147.32 20.1516 147.401 20.1516C147.558 20.1516 147.906 20.1362 148.377 20.1056C148.868 18.8914 149.12 18.1982 149.53 16.9189C150.097 15.1685 150.415 13.9849 150.507 13.2878L153.062 13.8892ZM154.149 8.47709C154.605 10.5109 155.475 12.2345 156.72 13.5253C155.946 14.299 155.758 14.5365 154.969 15.6396C154.307 14.8199 153.943 14.2684 153.487 13.3989C152.966 12.3877 152.744 11.8055 152.192 9.95938C152.146 9.75255 152.081 9.58019 151.97 9.29676L154.149 8.47709Z" fill="white"/>
<path d="M160.003 12.1196C161.358 12.9239 161.879 13.2725 163.113 14.2185L161.757 16.2217C160.543 15.1952 159.895 14.7547 158.57 14.0423L160.006 12.1157L160.003 12.1196ZM163.097 17.8189C162.354 19.9179 162.01 20.7222 161.297 22.0628C161.201 22.2696 161.155 22.3309 160.964 22.645C160.88 22.7829 160.801 22.9195 160.726 23.0548L158.612 21.2393C159.401 20.3239 160.221 18.6999 161.075 16.4247L163.094 17.8112L163.097 17.8189ZM162.167 12.246C161.109 11.2999 160.493 10.8403 159.072 9.95933L160.569 8.1936C161.799 8.90219 162.446 9.33117 163.584 10.2274V9.08987C164.135 9.15115 164.672 9.18563 165.572 9.18563H171.11C171.98 9.18563 172.497 9.15498 173.067 9.08987V11.6293C172.531 11.5642 171.914 11.5335 171.11 11.5335H169.344V19.8642H171.348C172.232 19.8642 172.926 19.8336 173.381 19.7685V22.3232C172.815 22.2581 172.244 22.2275 171.348 22.2275H164.878C163.978 22.2275 163.411 22.2581 162.845 22.3232V19.7685C163.35 19.8336 163.997 19.8642 164.878 19.8642H166.82V11.5335H165.541C164.721 11.5335 164.105 11.5642 163.584 11.6293V10.4304L162.163 12.246H162.167Z" fill="white"/>
<path d="M183.41 16.9495C185.126 15.5936 187.003 14.6361 187.003 12.878C187.003 11.6026 186.325 10.7446 185.107 10.7446C183.732 10.7446 182.912 11.7404 182.874 13.5177H180.319C180.319 10.4037 181.916 8.43115 185.168 8.43115C188.14 8.43115 189.818 10.4458 189.818 12.8014C189.818 15.3753 188.063 16.5933 186.386 17.7117C185.329 18.3897 184.092 19.2668 183.632 20.1477H189.936V22.3808H180.12C180.219 19.7686 181.855 18.1714 183.414 16.9534L183.41 16.9495Z" fill="white"/>
<path d="M191.109 15.5515C191.109 11.1813 193.365 8.4082 196.835 8.4082C200.305 8.4082 202.523 11.1621 202.523 15.5515C202.523 19.9409 200.366 22.6949 196.816 22.6949C193.265 22.6949 191.109 19.9026 191.109 15.5515ZM199.688 15.5515C199.688 12.6597 198.849 10.7216 196.835 10.7216C194.82 10.7216 193.943 12.6367 193.943 15.5515C193.943 18.4663 194.801 20.3814 196.835 20.3814C198.869 20.3814 199.688 18.4855 199.688 15.5515Z" fill="white"/>
<path d="M206.931 16.9495C208.646 15.5936 210.523 14.6361 210.523 12.878C210.523 11.6026 209.845 10.7446 208.627 10.7446C207.252 10.7446 206.433 11.7404 206.394 13.5177H203.84C203.84 10.4037 205.437 8.43115 208.689 8.43115C211.661 8.43115 213.338 10.4458 213.338 12.8014C213.338 15.3753 211.584 16.5933 209.907 17.7117C208.849 18.3897 207.612 19.2668 207.153 20.1477H213.457V22.3808H203.64C203.74 19.7686 205.375 18.1714 206.934 16.9534L206.931 16.9495Z" fill="white"/>
<path d="M220.816 19.4046H214.511V16.4707L220.716 8.5498H223.47V17.229H225.546V19.4046H223.47V22.3768H220.816V19.4046ZM216.706 17.229H220.816V11.9204H220.778L216.706 17.1678V17.229Z" fill="white"/>
<path d="M58.4485 13.0541H55.2081V11.1735C56.9624 11.1122 58.5327 10.4611 58.8238 8.62256H61.3135V23.0471H58.4485V13.0541Z" fill="#231815"/>
</svg>
