<svg width="226" height="32" viewBox="0 0 226 32" fill="none" xmlns="http://www.w3.org/2000/svg">
<path d="M11.0134 4.41367C12.6987 3.28376 15.1003 4.1379 16.1344 3.32972C16.1574 3.31057 16.1957 3.32972 16.2264 3.32972C16.0004 1.37632 14.8245 0.744337 14.0546 0.545166C12.6987 1.57549 9.37028 0.529845 8.43188 2.44495C9.4354 2.71689 10.301 3.37952 11.0134 4.41367Z" fill="white"/>
<path d="M5.90438 8.52728C6.80065 6.70794 9.30943 6.24448 9.79587 5.02648C9.80736 4.99584 9.84949 4.99584 9.8763 4.98051C8.70426 3.40247 7.37135 3.4446 6.60148 3.65526C5.94268 5.22565 2.53763 5.98403 2.67935 8.11362C3.68669 7.84934 4.76681 7.98723 5.90055 8.52728H5.90438Z" fill="white"/>
<path d="M3.53689 14.6443C3.40284 12.6181 5.34475 10.9673 5.15707 9.66887C5.15324 9.63823 5.19154 9.61525 5.20686 9.58844C3.40284 8.80708 2.2691 9.508 1.70989 10.0749C1.92438 11.764 -0.64569 14.1234 0.541673 15.8968C1.2809 15.1652 2.28825 14.7439 3.53689 14.6443Z" fill="white"/>
<path d="M4.54441 21.1211C3.4145 19.4358 4.26864 17.0343 3.46046 16.0001C3.44131 15.9771 3.46046 15.9388 3.46046 15.9082C1.50706 16.1342 0.875074 17.3101 0.675903 18.0799C1.70623 19.4358 0.660583 22.7643 2.57568 23.7027C2.84763 22.6992 3.51025 21.8335 4.54441 21.1211Z" fill="white"/>
<path d="M8.65753 26.2305C6.83819 25.3342 6.37473 22.8254 5.15673 22.339C5.12608 22.3275 5.12608 22.2854 5.11076 22.2585C3.53272 23.4306 3.57485 24.7635 3.78551 25.5334C5.3559 26.1922 6.11428 29.5972 8.24387 29.4555C7.97959 28.4482 8.11747 27.368 8.65753 26.2343V26.2305Z" fill="white"/>
<path d="M14.7743 28.5938C12.7481 28.7279 11.0973 26.7859 9.79888 26.9736C9.76823 26.9774 9.74525 26.9391 9.71844 26.9238C8.93708 28.7279 9.63801 29.8616 10.2049 30.4208C11.894 30.2063 14.2534 32.7764 16.0268 31.589C15.2952 30.8498 14.8739 29.8424 14.7743 28.5938Z" fill="white"/>
<path d="M21.2516 27.5864C19.5663 28.7163 17.1648 27.8622 16.1306 28.6704C16.1076 28.6895 16.0693 28.6704 16.0387 28.6704C16.2647 30.6238 17.4406 31.2558 18.2104 31.4549C19.5663 30.4246 22.8948 31.4703 23.8332 29.5552C22.8296 29.2832 21.964 28.6206 21.2516 27.5864Z" fill="white"/>
<path d="M26.3608 23.4766C25.4646 25.2959 22.9558 25.7594 22.4693 26.9774C22.4579 27.008 22.4157 27.008 22.3889 27.0233C23.561 28.6014 24.8939 28.5592 25.6637 28.3486C26.3225 26.7782 29.7276 26.0198 29.5859 23.8902C28.5785 24.1545 27.4984 24.0166 26.3647 23.4766H26.3608Z" fill="white"/>
<path d="M28.724 17.3599C28.8581 19.3861 26.9162 21.0369 27.1039 22.3353C27.1077 22.366 27.0694 22.389 27.0541 22.4158C28.8581 23.1971 29.9918 22.4962 30.5511 21.9293C30.3366 20.2402 32.9066 17.8808 31.7193 16.1074C30.98 16.839 29.9727 17.2603 28.724 17.3599Z" fill="white"/>
<path d="M27.7173 10.8828C28.8472 12.5681 27.9931 14.9697 28.8012 16.0038C28.8204 16.0268 28.8012 16.0651 28.8012 16.0957C30.7546 15.8698 31.3866 14.6939 31.5858 13.924C30.5555 12.5681 31.6011 9.23967 29.686 8.30127C29.4141 9.30478 28.7514 10.1704 27.7173 10.8828Z" fill="white"/>
<path d="M23.6069 5.77352C25.4263 6.66979 25.8897 9.17857 27.1077 9.66501C27.1384 9.6765 27.1384 9.71863 27.1537 9.74544C28.7317 8.5734 28.6896 7.24049 28.479 6.47062C26.9086 5.81182 26.1502 2.40677 24.0206 2.54849C24.2849 3.55583 24.147 4.63595 23.6069 5.76969V5.77352Z" fill="white"/>
<path d="M17.4898 3.4064C19.516 3.27234 21.1668 5.21426 22.4652 5.02658C22.4959 5.02275 22.5188 5.06105 22.5457 5.07637C23.327 3.27234 22.6261 2.1386 22.0592 1.57939C20.3701 1.79388 18.0107 -0.776183 16.2373 0.41118C16.9689 1.15041 17.3902 2.15775 17.4898 3.4064Z" fill="white"/>
<path d="M19.9336 9.56162C19.9412 10.7911 19.9834 12.0244 19.9336 13.2578C19.8838 14.1081 19.4395 15.5176 18.7883 16.207C20.1595 16.1189 21.9214 16.0691 23.2927 16.1994C21.7912 15.3108 22.4538 8.22488 22.5304 7.09497C22.5304 7.09497 22.5075 7.11029 22.4577 7.1371C21.389 7.76909 20.2323 8.27467 19.0296 8.58875C19.5659 8.65003 19.9374 8.9756 19.9336 9.55779V9.56162Z" fill="white"/>
<path d="M13.0928 22.6456C12.7366 22.9826 12.0548 23.2086 11.5607 23.178C10.6759 23.1243 9.97117 22.4158 9.91372 21.531C9.88307 21.0407 10.0516 20.5696 10.3887 20.2134C10.7219 19.861 11.1892 19.658 11.6718 19.658C12.0548 19.658 12.4263 19.7844 12.7289 20.0104L14.9275 18.2715C14.6632 18.2102 14.4219 18.0646 14.1538 17.8999C13.6137 17.5744 12.9434 17.1646 11.6718 17.1646C10.5189 17.1646 9.43877 17.6203 8.6306 18.4438C7.82242 19.2712 7.39344 20.3628 7.42025 21.5157C7.44706 22.6073 7.88754 23.6376 8.6689 24.4151C9.44643 25.1927 10.4768 25.637 11.5684 25.6638C12.1008 25.6753 12.4953 25.6331 12.9779 25.4608C13.3264 24.4113 13.0928 22.6341 13.0928 22.6341V22.6456Z" fill="white"/>
<path d="M15.8005 23.3044C15.8081 23.0517 15.8235 22.8027 15.8503 22.5576C15.8656 22.4044 15.8847 22.255 15.9116 22.1094C15.9575 21.8375 15.8847 21.5579 15.7124 21.3434C15.5439 21.1327 15.2987 21.0063 15.0268 20.9872C14.5825 20.9604 14.3642 20.9948 14.1535 21.0255C13.8471 21.0714 13.556 21.1136 12.7172 20.991C12.8742 21.1442 13.0121 21.3242 13.127 21.5349C13.1691 21.6115 13.2074 21.6881 13.2419 21.7724C13.2725 21.8451 13.3032 21.9256 13.33 22.006C13.4947 22.4848 13.5751 23.067 13.5675 23.7449C13.5636 24.3233 13.4947 24.871 13.4258 25.3C13.4143 25.3613 13.4066 25.4187 13.3951 25.4762C13.3836 25.5375 13.3721 25.5987 13.3606 25.6562C13.3491 25.7175 13.3377 25.7788 13.3262 25.8286C13.4985 25.7673 13.6747 25.7443 13.8509 25.7443C14.0922 25.7443 14.3412 25.7864 14.5978 25.8324C15.0536 25.9128 15.5209 25.9933 16.0571 25.8592C15.8618 25.074 15.7737 24.1816 15.7966 23.3083L15.8005 23.3044Z" fill="white"/>
<path d="M19.5343 20.4431L19.9786 20.7686L19.9097 17.6623C19.1704 17.7351 18.0137 17.7313 16.9987 17.6125C17.4354 18.1028 17.9103 19.0719 17.9103 20.5886C17.9103 20.9372 17.9103 21.2742 17.9141 21.5921C17.9295 23.7447 17.9371 25.1734 17.2362 25.8973C17.8299 25.859 18.4427 25.8437 19.0364 25.8437C19.745 25.8437 20.4268 25.8705 21.0089 25.9203C20.5761 25.4262 20.285 24.5299 20.128 23.4766C18.7721 22.7335 19.5267 20.4431 19.5267 20.4431H19.5343Z" fill="white"/>
<path d="M23.6627 17.831C22.9848 17.3484 22.0579 17.3177 21.4029 17.379C20.8629 17.4288 20.4071 17.5476 20.2079 17.605L20.2577 19.635C20.7288 19.4971 21.9277 19.2175 22.5137 19.6925C22.778 19.907 22.8852 20.2364 22.8278 20.673C22.7626 21.1824 22.4218 21.5425 21.8932 21.6612C21.4297 21.7646 20.296 21.4122 19.7215 20.9756C19.7215 20.9756 19.0014 23.5725 21.7668 23.6797C22.3758 23.7027 23.0346 23.5188 23.544 22.9137C24.1377 22.2013 24.6318 21.4046 24.6241 20.1521C24.6165 19.0682 24.2947 18.2868 23.6589 17.8348L23.6627 17.831Z" fill="white"/>
<path d="M14.12 13.143C14.097 12.9554 14.0779 12.7677 14.0664 12.5762C13.6221 12.6566 13.174 12.737 12.7258 12.806C12.3926 12.8558 12.0594 12.9056 11.7223 12.9477C11.7568 13.5835 11.7032 14.2653 11.4887 14.8628C11.4504 14.9662 11.4312 15.0773 11.4274 15.1845C11.4044 15.6403 11.3776 16.1 11.324 16.5519C11.8679 16.4217 12.4271 16.3796 12.9786 16.3374C13.331 16.2991 13.7217 16.2991 14.0243 16.1038C14.1928 15.9812 14.2273 15.7897 14.2234 15.5791C14.2579 15.1271 14.2771 14.6751 14.2809 14.2193C14.2809 14.0968 14.2656 13.9742 14.2426 13.8516C14.1928 13.6103 14.1545 13.369 14.12 13.1354V13.143Z" fill="white"/>
<path d="M11.3735 9.94093C11.4578 10.0214 11.5497 10.0826 11.6531 10.1133C12.0285 10.2588 12.557 9.91412 12.557 9.91412C12.557 9.91412 12.377 10.4197 12.0131 10.638C12.4574 10.5499 12.8941 10.4657 13.3422 10.3814C13.6333 10.0788 14.0163 9.61536 14.2385 9.25915C14.2423 9.06381 14.25 8.8723 14.2576 8.67696C14.2768 8.29777 14.3572 7.55854 14.6981 7.18701C13.8708 7.3632 13.0128 7.35171 12.1702 7.36703C11.9902 7.38235 11.7986 7.43598 11.6569 7.54705C11.3543 7.78069 11.3007 8.19053 11.3122 8.54673C11.3314 9.01019 11.3543 9.47364 11.3735 9.94093Z" fill="white"/>
<path d="M11.109 15.0888C11.132 15.0467 11.1512 15.0007 11.1703 14.9547C11.2278 14.8284 11.2737 14.6981 11.3159 14.5679C11.3772 14.3687 11.427 14.1657 11.4576 13.9589C11.5112 13.6333 11.5265 13.3001 11.5227 12.9707C11.4997 12.9707 11.4806 12.9745 11.4576 12.9784C11.4155 12.9822 11.3733 12.9899 11.3312 12.9937C11.2891 12.9975 11.2469 13.0013 11.2048 13.009C10.5996 13.0779 9.99445 13.1239 9.38545 13.1507C9.26672 14.0278 8.86454 14.8896 8.11765 15.3876C7.99892 15.4642 7.87252 15.5254 7.73846 15.5752C8.41641 15.7476 9.06755 16.0617 9.76847 16.0464C10.3736 16.0387 10.8448 15.6059 11.1052 15.085L11.109 15.0888Z" fill="white"/>
<path d="M18.4815 15.3838C18.2516 15.3033 18.041 15.1731 17.8571 15.0237C17.0911 14.3726 16.5127 13.2848 16.2791 12.2468C15.7965 12.2468 15.1798 12.3732 15.0151 12.4039C14.8313 12.4383 14.6436 12.4728 14.4597 12.5073C14.4253 12.5149 14.3946 12.5188 14.3602 12.5264C14.3295 12.5341 14.295 12.5379 14.2644 12.5456C14.2644 12.5609 14.2644 12.5801 14.2682 12.5954C14.295 12.8712 14.3372 13.1469 14.3908 13.4227C14.4253 13.6065 14.4674 13.7904 14.5172 13.9704C14.5249 14.0049 14.5363 14.0394 14.544 14.0738C14.7623 14.8054 15.1032 15.6327 15.8386 15.9583C16.2791 16.1383 16.7502 16.0464 17.1945 15.8894C17.6273 15.74 18.0448 15.5331 18.4853 15.3914L18.4815 15.3838Z" fill="white"/>
<path d="M9.73723 10.8409C9.9364 10.8179 10.1394 10.7873 10.3386 10.7566C10.622 10.7107 10.9054 10.6609 11.1889 10.6111C11.2272 10.6034 11.2616 10.5958 11.3 10.5919C11.3344 10.5843 11.3727 10.5804 11.4072 10.5728C11.4991 10.5536 11.8936 10.4119 11.9894 10.3047C11.7519 10.3698 11.5489 10.3277 11.3842 10.2089C11.3459 10.1821 11.3114 10.1515 11.277 10.117C11.2387 10.0787 11.2042 10.0366 11.1697 9.9906C10.7446 9.4084 10.6756 8.22487 10.894 7.65417C10.4305 7.57374 9.97087 7.65417 9.53423 7.79972C9.13589 7.92612 8.73755 8.07166 8.31622 8.12529C8.64179 8.85685 8.79117 9.65354 9.20866 10.3391C9.35421 10.5843 9.53423 10.6992 9.7334 10.8409H9.73723Z" fill="white"/>
<path d="M8.41197 12.9093C8.79499 12.9093 10.6143 12.8097 11.208 12.7484C11.2502 12.7446 11.2923 12.7408 11.3306 12.7369C11.3727 12.7331 11.4148 12.7293 11.4532 12.7254C11.4723 12.7254 11.4953 12.7216 11.5144 12.7178C11.5451 12.7178 11.5795 12.7101 11.6102 12.7063C11.6408 12.7063 11.6715 12.6986 11.7021 12.6948C12.0315 12.6565 12.3609 12.6182 12.6903 12.5761C13.1461 12.5186 14.7165 12.2543 15.36 12.1547C17.6504 11.7909 16.8844 12.5071 16.915 12.7676C17.1219 12.4343 17.5393 12.5378 17.6389 11.9173C17.6772 11.676 17.6734 11.427 17.6696 11.1819C17.6657 10.6571 17.7806 9.79916 16.3443 9.95237C14.7012 10.1324 12.7784 10.8525 12.7784 10.8525C12.9967 10.6916 13.2036 10.5116 13.3951 10.3162C12.9316 10.4197 12.4682 10.5269 12.0047 10.6341C11.9243 10.6533 8.95586 11.4193 8.1745 10.9559C8.07108 11.2202 8.54986 12.036 8.40431 12.9055L8.41197 12.9093Z" fill="white"/>
<path d="M14.7848 6.99918C14.7848 6.99918 14.7925 6.99918 14.7963 6.99918C15.1372 7.0145 15.1066 7.48561 15.0721 7.80735C14.8921 9.36241 13.4136 10.4962 13.3983 10.5153C13.3983 10.5153 14.7274 9.68032 16.1829 9.59223C16.2901 9.58456 16.7727 9.64585 17.037 9.20537C17.3511 8.68447 17.4085 7.65031 17.4966 6.97236C16.6195 7.11025 15.6811 6.68127 14.8385 6.94172C14.8346 6.94172 14.8308 6.94172 14.827 6.94555C14.827 6.94555 14.827 6.94555 14.8232 6.94555C14.7465 6.96853 14.6738 6.99918 14.601 7.03365C14.6699 7.01067 14.7312 6.99918 14.7848 6.99918C14.7848 6.99918 14.7849 6.99918 14.7887 6.99918H14.7848Z" fill="white"/>
<path d="M44.8866 9.91398C44.8866 9.26667 44.8559 8.85684 44.7908 8.39722H47.4873C47.4222 8.82237 47.3915 9.26667 47.3915 9.91398V13.748H51.1949C52.0452 13.748 52.7883 13.7174 53.3398 13.6369V16.0844C52.6925 16.004 51.9839 15.9734 51.2102 15.9734H48.621C49.1879 16.6819 50.0267 17.5054 50.831 18.103C51.7005 18.7503 52.7078 19.3018 53.8607 19.7614C53.1675 20.5964 52.884 21.056 52.344 22.1285C50.8464 21.2782 50.1646 20.7726 49.1726 19.8419C48.3835 19.118 47.8933 18.5166 47.3417 17.6165L47.357 17.9C47.3724 18.3098 47.3877 18.5779 47.3877 18.846V21.1671C47.3877 21.8297 47.4183 22.5537 47.4988 23.201H44.7678C44.8329 22.6954 44.8789 21.9715 44.8789 21.1671V18.8805C44.8789 18.3902 44.8942 18.0608 44.9249 17.6357C44.3235 18.5971 43.7566 19.2597 42.7646 20.1445C41.8645 20.9641 41.1061 21.5157 40.0988 22.0864C39.5319 20.9986 39.2638 20.6041 38.6472 19.8763C39.892 19.3095 40.7155 18.7886 41.7228 17.9344C42.5118 17.2718 43.0481 16.7049 43.569 15.9772H41.313C40.4627 15.9772 39.7962 16.0078 39.1336 16.0883V13.6408C39.6392 13.7212 40.2558 13.7518 41.2938 13.7518H44.8751V9.91781L44.8866 9.91398ZM42.0445 13.7174C41.4777 12.4074 40.9874 11.5571 39.9916 10.1974L41.9794 8.98324C43.0059 10.3238 43.4617 11.0171 44.1895 12.3921L42.0445 13.7174ZM48.058 12.4381C48.9734 11.2699 49.4943 10.4349 50.1876 8.96792L52.3478 10.1208C51.5128 11.6989 50.9613 12.5492 50.0267 13.7174L48.0541 12.4381H48.058Z" fill="white"/>
<path d="M79.5345 12.3117C79.4235 12.4994 79.2971 12.8633 79.1247 13.3842C77.6271 18.1183 74.9574 21.0523 70.2233 23.1819C69.7637 22.2818 69.1049 21.4314 68.3312 20.7688C72.4985 19.2712 75.0685 16.7624 76.2367 13.0854L72.0388 13.1314C71.0621 14.6941 69.7982 16.0653 68.4576 17.0918C67.6992 16.2224 67.1936 15.7819 66.2169 15.1997C68.0324 13.9549 69.419 12.3577 70.4148 10.3851C70.8247 9.56547 71.0468 8.94881 71.0928 8.49302L74.0765 9.02924C73.9961 9.18628 73.9807 9.2016 73.885 9.40843C73.8697 9.4544 73.8237 9.55015 73.7739 9.66123C73.7088 9.80295 73.6475 9.94466 73.6322 9.99446C73.5211 10.2319 73.4598 10.389 73.4445 10.4043C73.4292 10.4503 73.3794 10.5613 73.3181 10.6724L76.8994 10.6418H77.2479C76.9951 10.1055 76.727 9.66506 76.3478 9.125L77.9105 8.61941C78.4621 9.34332 78.8719 10.117 79.2205 11.0324L78.7302 11.2048L79.5345 12.3079V12.3117ZM80.1206 7.95679C80.6415 8.65005 81.0053 9.31268 81.4305 10.3085L79.9329 10.8601C79.4924 9.81827 79.1285 9.125 78.6383 8.44705L80.1206 7.95679Z" fill="white"/>
<path d="M82.4066 12.959C83.1152 13.0548 83.6208 13.0854 84.946 13.0854H92.8669C93.6253 13.0854 93.7364 13.0701 94.1309 12.9131L95.3604 14.2383C95.1689 14.5217 95.1382 14.5869 94.9199 15.2303C94.1002 17.5821 92.9627 19.3478 91.4153 20.6424C90.2164 21.6536 89.0788 22.2664 86.9186 23.1052C86.5088 22.1745 86.0683 21.5272 85.1529 20.516C87.045 20.0258 88.1826 19.5202 89.3201 18.6699C90.473 17.8196 91.1663 16.9195 91.7485 15.5138H84.9154C83.6706 15.5138 83.3986 15.5291 82.4066 15.6095V12.959ZM83.7165 9.01392C84.3332 9.10967 84.9154 9.14031 86.0376 9.14031H91.0705C92.3154 9.14031 92.9971 9.10967 93.5487 9.01392V11.6644C92.9473 11.6185 92.2081 11.584 91.1203 11.584H86.007C84.7622 11.584 84.4136 11.5993 83.7204 11.6644V9.01392H83.7165Z" fill="white"/>
<path d="M99.2443 9.55005C101.232 10.7183 102.259 11.4422 103.584 12.6449L101.722 15.1077C100.351 13.6713 99.0069 12.6295 97.4288 11.7792L99.2443 9.55388V9.55005ZM97.5859 19.3515C99.1946 19.2251 100.853 18.8306 102.335 18.214C104.323 17.3943 105.744 16.2108 106.958 14.3148C107.621 13.3036 108.046 12.438 108.506 11.2238C109.279 12.1546 109.643 12.4687 110.827 13.3381C109.391 16.4482 107.893 18.3097 105.683 19.7307C103.978 20.8338 102.481 21.4199 99.5431 22.0978C98.9264 22.2395 98.8345 22.2548 98.4055 22.3812L97.5859 19.3515Z" fill="white"/>
<path d="M125.01 11.856L124.994 11.9211C124.979 11.9862 124.964 12.0322 124.949 12.0781L124.853 12.4879C123.558 17.5515 120.812 20.742 115.794 22.9827C115.273 21.9256 114.833 21.3242 113.806 20.3322C118.004 19.0223 120.843 16.2301 121.743 12.5531H115.147C113.473 12.5684 113.094 12.5837 112.542 12.6488V9.8068C113.144 9.90256 113.584 9.9332 115.193 9.9332H123.24C123.286 8.9565 124.045 8.22876 125.006 8.22876C125.967 8.22876 126.791 9.01778 126.791 10.0136C126.791 11.0095 126.017 11.7794 125.025 11.7985L125.01 11.8636V11.856ZM124.11 10.0098C124.11 10.4848 124.52 10.8946 125.01 10.8946C125.5 10.8946 125.91 10.4848 125.91 10.0098C125.91 9.53486 125.5 9.10971 125.01 9.10971C124.52 9.10971 124.11 9.51954 124.11 10.0098Z" fill="white"/>
<path d="M132.016 9.14038C131.951 9.86812 131.936 10.1516 131.936 11.2547V14.3954C131.936 15.5177 131.951 16.0194 132.016 16.6514H128.956C129.036 16.0845 129.052 15.533 129.052 14.3495V11.224C129.052 10.2626 129.036 9.83365 128.956 9.14038H132.016ZM139.355 9.14038C139.29 10.0252 139.275 10.2588 139.275 11.27V13.1161C139.275 15.2764 139.148 16.7931 138.911 17.7085C138.436 19.4283 137.363 20.7229 135.628 21.7149C134.728 22.2359 133.893 22.5691 132.346 23.0096C131.982 21.9524 131.587 21.2898 130.737 20.3131C132.254 20.0297 133.058 19.7769 133.863 19.3517C135.249 18.6086 135.962 17.6779 136.214 16.2914C136.31 15.7092 136.387 14.3188 136.387 12.9476V11.3083C136.387 10.1554 136.371 9.82599 136.291 9.14804H139.351L139.355 9.14038Z" fill="white"/>
<path d="M151.645 9.37787C151.541 9.70472 151.425 10.0992 151.297 10.5614C150.933 11.8407 150.366 13.3383 149.926 14.2384C149.612 14.8857 149.389 15.2304 148.995 15.8164C148.332 15.0734 148.049 14.79 147.133 14.112C147.417 13.7635 147.497 13.6562 147.7 13.3077C147.417 13.277 147.118 13.2617 146.831 13.2617H146.356C146.907 14.3648 147.317 14.9202 148.313 15.9122C147.838 16.8123 147.666 17.2528 147.382 18.1529C146.862 17.5209 146.609 17.1111 146.26 16.3871C146.291 16.8621 146.306 17.3179 146.306 18.1069V21.1979C146.306 22.0022 146.337 22.6802 146.402 23.2317H143.924C143.985 22.6955 144.019 21.9524 144.019 21.1979V19.3211C144.03 18.4912 144.045 17.8758 144.065 17.4749C143.545 18.7849 143.23 19.3862 142.66 20.1714C142.392 19.0683 142.154 18.3406 141.744 17.4405C142.721 16.211 143.418 14.8206 143.813 13.2579H143.338C142.832 13.2579 142.503 13.2732 142.17 13.3383V10.9866C142.468 11.0517 142.817 11.067 143.368 11.067H144V10.0252C144 9.28212 143.985 8.84164 143.905 8.3667H146.398C146.333 8.82249 146.302 9.29744 146.302 10.0252V11.067H146.808C147.156 11.067 147.501 11.0364 147.769 10.9866V13.1813C148.432 11.9824 149.049 10.0252 149.19 8.61949L151.638 9.37787H151.645ZM153.289 13.9856C153.235 14.1439 153.161 14.375 153.066 14.6789C152.45 16.7472 151.929 18.1988 151.174 19.9646C152.136 19.8382 152.641 19.7577 153.476 19.5854C153.162 18.7657 152.955 18.3214 152.404 17.1723L154.533 16.3029C155.637 18.4976 156.05 19.5203 156.855 21.872L154.568 23.0709C154.396 22.4082 154.315 22.1248 154.189 21.6996C152.281 22.1593 150.496 22.4733 148.351 22.7108C148.083 22.7415 147.957 22.7568 147.704 22.8219L147.279 20.2327C147.39 20.248 147.547 20.248 147.628 20.248C147.785 20.248 148.133 20.2327 148.604 20.202C149.095 18.9879 149.347 18.2946 149.757 17.0153C150.324 15.2649 150.642 14.0814 150.734 13.3843L153.289 13.9856ZM154.376 8.57353C154.832 10.6074 155.702 12.331 156.946 13.6217C156.173 14.3954 155.985 14.6329 155.196 15.736C154.533 14.9164 154.17 14.3648 153.714 13.4953C153.193 12.4842 152.971 11.902 152.419 10.0558C152.373 9.84899 152.308 9.67663 152.197 9.39319L154.376 8.57353Z" fill="white"/>
<path d="M160.23 12.216C161.585 13.0203 162.106 13.3689 163.34 14.315L161.984 16.3181C160.77 15.2917 160.122 14.8512 158.797 14.1388L160.233 12.2122L160.23 12.216ZM163.324 17.9153C162.581 20.0143 162.237 20.8186 161.524 22.1592C161.428 22.366 161.382 22.4273 161.191 22.7414C161.107 22.8793 161.028 23.0159 160.953 23.1512L158.839 21.3357C159.628 20.4203 160.448 18.7963 161.302 16.5211L163.321 17.9077L163.324 17.9153ZM162.394 12.3424C161.336 11.3963 160.72 10.9367 159.299 10.0558L160.796 8.29004C162.026 8.99863 162.673 9.42761 163.811 10.3239V9.18631C164.362 9.24759 164.899 9.28206 165.799 9.28206H171.337C172.207 9.28206 172.724 9.25142 173.294 9.18631V11.7257C172.758 11.6606 172.141 11.63 171.337 11.63H169.571V19.9607H171.575C172.459 19.9607 173.153 19.93 173.608 19.8649V22.4197C173.042 22.3546 172.471 22.3239 171.575 22.3239H165.105C164.205 22.3239 163.638 22.3546 163.072 22.4197V19.8649C163.577 19.93 164.224 19.9607 165.105 19.9607H167.047V11.63H165.768C164.948 11.63 164.332 11.6606 163.811 11.7257V10.5269L162.39 12.3424H162.394Z" fill="white"/>
<path d="M183.637 17.046C185.353 15.6901 187.229 14.7325 187.229 12.9745C187.229 11.699 186.551 10.841 185.333 10.841C183.958 10.841 183.139 11.8369 183.1 13.6141H180.546C180.546 10.5001 182.143 8.52759 185.395 8.52759C188.367 8.52759 190.045 10.5423 190.045 12.8979C190.045 15.4717 188.29 16.6898 186.613 17.8082C185.556 18.4861 184.318 19.3632 183.859 20.2442H190.163V22.4772H180.346C180.446 19.865 182.082 18.2678 183.64 17.0498L183.637 17.046Z" fill="white"/>
<path d="M191.335 15.648C191.335 11.2777 193.591 8.50464 197.062 8.50464C200.532 8.50464 202.749 11.2586 202.749 15.648C202.749 20.0374 200.593 22.7913 197.042 22.7913C193.492 22.7913 191.335 19.9991 191.335 15.648ZM199.915 15.648C199.915 12.7562 199.076 10.8181 197.062 10.8181C195.047 10.8181 194.17 12.7332 194.17 15.648C194.17 18.5628 195.028 20.4779 197.062 20.4779C199.095 20.4779 199.915 18.5819 199.915 15.648Z" fill="white"/>
<path d="M207.157 17.046C208.873 15.6901 210.75 14.7325 210.75 12.9745C210.75 11.699 210.072 10.841 208.854 10.841C207.479 10.841 206.66 11.8369 206.621 13.6141H204.066C204.066 10.5001 205.664 8.52759 208.916 8.52759C211.888 8.52759 213.565 10.5423 213.565 12.8979C213.565 15.4717 211.811 16.6898 210.134 17.8082C209.076 18.4861 207.839 19.3632 207.38 20.2442H213.684V22.4772H203.867C203.967 19.865 205.602 18.2678 207.161 17.0498L207.157 17.046Z" fill="white"/>
<path d="M221.043 19.501H214.738V16.5671L220.943 8.64624H223.697V17.3255H225.773V19.501H223.697V22.4733H221.043V19.501ZM216.933 17.3255H221.043V12.0168H221.004L216.933 17.2642V17.3255Z" fill="white"/>
<path d="M58.6754 13.1505H55.435V11.2699C57.1893 11.2086 58.7596 10.5575 59.0507 8.71899H61.5404V23.1435H58.6754V13.1505Z" fill="white"/>
</svg>
