<svg width="443" height="443" viewBox="0 0 443 443" fill="none" xmlns="http://www.w3.org/2000/svg">
<path d="M150.178 60.1363C173.655 44.4134 207.12 56.313 221.489 45.0363C221.833 44.7786 222.349 45.0578 222.778 45.0793C219.642 17.865 203.275 9.07991 192.535 6.2876C173.633 20.6143 127.303 6.09428 114.2 32.7501C128.183 36.552 140.233 45.7666 150.157 60.1578L150.178 60.1363Z" fill="black"/>
<path d="M79.0596 117.4C91.5176 92.0331 126.464 85.6323 133.252 68.6636C133.424 68.2555 134.004 68.2555 134.39 68.0407C118.066 46.0459 99.4864 46.6258 88.8112 49.5685C79.618 71.413 32.2132 82.0023 34.2107 111.644C48.2153 107.949 63.2723 109.904 79.0596 117.4Z" fill="black"/>
<path d="M46.1103 202.566C44.2201 174.363 71.2626 151.338 68.6851 133.252C68.6206 132.822 69.1361 132.522 69.3509 132.157C44.2201 121.267 28.4328 131.061 20.6358 138.944C23.5999 162.464 -12.1631 195.349 4.39742 220.007C14.686 209.804 28.6905 203.962 46.1103 202.566Z" fill="black"/>
<path d="M60.1358 292.8C44.4129 269.323 56.3125 235.859 45.0358 221.489C44.7781 221.145 45.0573 220.63 45.0788 220.2C17.8645 223.336 9.07942 239.703 6.28711 250.443C20.6138 269.345 6.0938 315.676 32.7496 328.778C36.5515 314.795 45.7661 302.745 60.1573 292.822L60.1358 292.8Z" fill="black"/>
<path d="M117.4 363.94C92.0328 351.482 85.6319 316.535 68.6633 309.748C68.2551 309.576 68.2551 308.996 68.0404 308.609C46.0455 324.933 46.6255 343.513 49.5681 354.188C71.4126 363.381 82.0019 410.786 111.643 408.789C107.949 394.784 109.904 379.727 117.4 363.94Z" fill="black"/>
<path d="M202.565 396.889C174.363 398.779 151.337 371.737 133.251 374.315C132.822 374.379 132.521 373.863 132.156 373.649C121.266 398.78 131.06 414.567 138.943 422.364C162.463 419.4 195.348 455.163 220.006 438.602C209.804 428.314 203.961 414.309 202.565 396.889Z" fill="black"/>
<path d="M292.799 382.863C269.322 398.586 235.858 386.687 221.488 397.963C221.144 398.221 220.629 397.942 220.199 397.92C223.335 425.135 239.702 433.92 250.442 436.712C269.344 422.385 315.675 436.905 328.777 410.249C314.794 406.448 302.744 397.233 292.821 382.842L292.799 382.863Z" fill="black"/>
<path d="M363.94 325.578C351.482 350.945 316.535 357.346 309.748 374.314C309.576 374.723 308.996 374.723 308.609 374.937C324.934 396.932 343.513 396.352 354.189 393.41C363.382 371.565 410.787 360.976 408.789 331.334C394.784 335.029 379.727 333.074 363.94 325.578Z" fill="black"/>
<path d="M396.889 240.412C398.779 268.615 371.737 291.641 374.314 309.726C374.379 310.156 373.863 310.457 373.648 310.822C398.779 321.712 414.567 311.917 422.364 304.034C419.399 280.514 455.162 247.629 438.602 222.971C428.313 233.174 414.309 239.016 396.889 240.412Z" fill="black"/>
<path d="M382.863 150.178C398.586 173.654 386.687 207.119 397.963 221.489C398.221 221.833 397.942 222.348 397.92 222.778C425.135 219.642 433.92 203.274 436.712 192.535C422.385 173.633 436.905 127.302 410.249 114.2C406.448 128.183 397.233 140.233 382.842 150.156L382.863 150.178Z" fill="black"/>
<path d="M325.577 79.0596C350.944 91.5176 357.345 126.464 374.314 133.252C374.722 133.424 374.722 134.004 374.937 134.39C396.932 118.066 396.352 99.4864 393.409 88.8112C371.565 79.618 360.975 32.2132 331.334 34.2107C335.028 48.2153 333.074 63.2723 325.577 79.0596Z" fill="black"/>
<path d="M240.412 46.1103C268.614 44.2201 291.64 71.2626 309.726 68.6851C310.155 68.6206 310.456 69.1361 310.821 69.3509C321.711 44.2201 311.917 28.4328 304.034 20.6358C280.514 23.5999 247.629 -12.1631 222.971 4.39742C233.174 14.686 239.016 28.6905 240.412 46.1103Z" fill="black"/>
<path d="M274.436 131.791C274.543 148.932 275.145 166.115 274.436 183.277C273.749 195.134 267.584 214.723 258.498 224.367C277.615 223.164 302.123 222.434 321.218 224.238C300.297 211.888 309.533 113.169 310.629 97.4673C310.629 97.4673 310.285 97.6821 309.641 98.0472C294.734 106.854 278.667 113.92 261.871 118.281C269.345 119.14 274.5 123.672 274.436 131.791Z" fill="black"/>
<path d="M179.154 314.043C174.17 318.726 164.676 321.905 157.825 321.475C145.517 320.702 135.679 310.864 134.906 298.557C134.477 291.705 136.818 285.175 141.5 280.192C146.118 275.273 152.627 272.459 159.371 272.459C164.698 272.459 169.874 274.199 174.106 277.378L204.735 253.149C201.041 252.29 197.669 250.25 193.953 247.994C186.435 243.441 177.091 237.77 159.371 237.77C143.283 237.77 128.247 244.107 117.014 255.62C105.78 267.111 99.8089 282.318 100.174 298.428C100.539 313.614 106.704 327.962 117.551 338.809C128.398 349.656 142.746 355.842 157.932 356.186C165.342 356.379 170.841 355.756 177.543 353.372C182.418 338.745 179.132 314.022 179.132 314.022L179.154 314.043Z" fill="black"/>
<path d="M216.892 323.194C217 319.692 217.236 316.213 217.601 312.798C217.837 310.671 218.117 308.588 218.439 306.526C219.062 302.724 218.031 298.836 215.646 295.85C213.284 292.886 209.89 291.146 206.088 290.91C199.924 290.545 196.852 290.996 193.909 291.426C189.656 292.07 185.597 292.671 173.934 290.975C176.146 293.101 178.036 295.636 179.647 298.557C180.227 299.609 180.785 300.705 181.28 301.865C181.731 302.896 182.139 303.991 182.504 305.108C184.781 311.788 185.919 319.864 185.833 329.315C185.769 337.37 184.845 344.995 183.879 350.945C183.75 351.783 183.599 352.599 183.47 353.372C183.32 354.253 183.148 355.09 182.998 355.864C182.826 356.744 182.654 357.56 182.504 358.291C184.91 357.432 187.337 357.109 189.807 357.109C193.201 357.109 196.637 357.711 200.203 358.334C206.539 359.429 213.069 360.568 220.501 358.742C217.773 347.83 216.549 335.351 216.892 323.194Z" fill="black"/>
<path d="M268.915 283.349L275.08 287.882L274.135 244.644C263.825 245.675 247.715 245.61 233.625 243.935C239.703 250.787 246.341 264.254 246.341 285.368C246.341 290.244 246.362 294.884 246.405 299.33C246.598 329.294 246.727 349.226 236.976 359.3C245.267 358.785 253.794 358.527 262.02 358.527C271.901 358.527 281.352 358.892 289.514 359.622C283.5 352.749 279.44 340.27 277.271 325.621C258.369 315.268 268.915 283.392 268.915 283.392V283.349Z" fill="black"/>
<path d="M326.416 246.985C316.965 240.24 304.099 239.832 294.949 240.691C287.409 241.4 281.073 243.033 278.323 243.827L279.011 272.116C285.583 270.225 302.294 266.316 310.435 272.932C314.13 275.917 315.59 280.536 314.838 286.614C313.936 293.702 309.211 298.707 301.843 300.361C295.4 301.8 279.591 296.881 271.6 290.781C271.6 290.781 261.591 326.952 300.104 328.413C308.566 328.735 317.76 326.201 324.848 317.738C333.117 307.836 339.991 296.752 339.883 279.29C339.797 264.168 335.265 253.3 326.459 247.006L326.416 246.985Z" fill="black"/>
<path d="M193.502 181.666C193.179 179.046 192.922 176.425 192.771 173.783C186.564 174.922 180.356 176.017 174.127 177.005C169.488 177.714 164.827 178.38 160.144 178.981C160.638 187.809 159.908 197.303 156.879 205.637C156.364 207.076 156.085 208.601 155.999 210.148C155.698 216.527 155.29 222.864 154.581 229.222C162.142 227.417 169.96 226.816 177.65 226.257C182.569 225.742 188.003 225.72 192.191 223.014C194.533 221.317 195.048 218.632 194.962 215.69C195.456 209.396 195.692 203.081 195.757 196.766C195.757 195.048 195.564 193.351 195.198 191.654C194.49 188.282 193.953 184.931 193.502 181.666Z" fill="black"/>
<path d="M155.247 137.075C156.386 138.214 157.674 139.051 159.135 139.481C164.376 141.478 171.722 136.689 171.722 136.689C171.722 136.689 169.187 143.734 164.14 146.762C170.347 145.56 176.426 144.357 182.633 143.175C186.693 138.944 192.02 132.522 195.113 127.538C195.177 124.832 195.242 122.126 195.371 119.441C195.65 114.157 196.767 103.89 201.535 98.6702C190.001 101.119 178.08 100.968 166.352 101.205C163.86 101.441 161.197 102.15 159.221 103.718C155.032 106.94 154.259 112.696 154.431 117.658C154.71 124.123 154.989 130.588 155.269 137.075H155.247Z" fill="black"/>
<path d="M151.552 208.773C151.853 208.172 152.154 207.549 152.433 206.926C153.228 205.165 153.893 203.382 154.473 201.556C155.333 198.807 155.998 195.971 156.45 193.093C157.18 188.561 157.438 183.943 157.373 179.346C157.072 179.389 156.772 179.411 156.45 179.454C155.87 179.518 155.29 179.583 154.71 179.669C154.13 179.733 153.55 179.797 152.97 179.862C144.55 180.807 136.109 181.473 127.646 181.838C126.013 194.06 120.386 206.045 109.968 213.005C108.314 214.057 106.532 214.938 104.684 215.625C114.135 218.031 123.2 222.391 132.951 222.219C141.371 222.09 147.922 216.055 151.552 208.816V208.773Z" fill="black"/>
<path d="M254.202 212.897C251.023 211.78 248.059 209.976 245.481 207.85C234.785 198.764 226.751 183.621 223.487 169.165C216.764 169.208 208.172 170.927 205.873 171.378C203.296 171.85 200.718 172.344 198.141 172.817C197.69 172.903 197.239 172.989 196.766 173.075C196.315 173.16 195.886 173.246 195.435 173.311C195.435 173.311 195.413 173.311 195.392 173.311C195.413 173.547 195.435 173.783 195.456 174.02C195.843 177.886 196.423 181.731 197.153 185.533C197.647 188.089 198.227 190.623 198.893 193.136C199.022 193.609 199.129 194.103 199.279 194.575C202.329 204.778 207.055 216.291 217.322 220.823C223.444 223.336 229.995 222.047 236.224 219.878C242.259 217.816 248.059 214.916 254.18 212.919L254.202 212.897Z" fill="black"/>
<path d="M132.457 149.598C135.25 149.275 138.064 148.867 140.856 148.416C144.808 147.772 148.76 147.084 152.712 146.354C153.228 146.268 153.722 146.161 154.237 146.075C154.731 145.989 155.226 145.882 155.741 145.796C157.051 145.559 162.507 143.54 163.839 142.08C160.509 143.003 157.717 142.381 155.397 140.727C154.882 140.361 154.388 139.932 153.915 139.481C153.4 138.965 152.906 138.364 152.433 137.741C146.505 129.6 145.56 113.169 148.61 105.2C142.188 104.061 135.765 105.2 129.665 107.24C124.123 109.023 118.56 111.042 112.696 111.751C117.229 121.932 119.334 133.037 125.133 142.574C127.152 146.011 129.687 147.6 132.457 149.576V149.598Z" fill="black"/>
<path d="M113.985 178.423C119.333 178.423 144.658 177.027 152.949 176.189C153.529 176.125 154.109 176.082 154.667 176.017C155.247 175.953 155.827 175.888 156.385 175.845C156.665 175.824 156.944 175.781 157.245 175.76C157.696 175.717 158.147 175.674 158.598 175.609C159.027 175.566 159.435 175.523 159.865 175.48C164.462 174.965 169.058 174.428 173.655 173.826C179.991 173.032 201.879 169.359 210.814 167.941C242.732 162.872 232.036 172.881 232.465 176.49C235.365 171.85 241.143 173.289 242.56 164.655C243.119 161.282 243.033 157.824 242.969 154.409C242.904 147.128 244.515 135.142 224.518 137.312C201.642 139.803 174.858 149.855 174.858 149.855C177.908 147.579 180.764 145.087 183.449 142.381C177.006 143.798 170.562 145.323 164.118 146.805C163.001 147.063 121.653 157.76 110.806 151.273C109.367 154.968 116.026 166.33 113.985 178.444V178.423Z" fill="black"/>
<path d="M202.738 96.1142C202.738 96.1142 202.823 96.1142 202.888 96.1142C207.635 96.3075 207.227 102.902 206.711 107.369C204.198 128.999 183.621 144.829 183.406 145.087C183.406 145.087 201.921 133.445 222.198 132.199C223.68 132.114 230.381 132.951 234.097 126.83C238.479 119.591 239.274 105.2 240.477 95.7275C228.255 97.6392 215.217 91.6894 203.425 95.298C203.36 95.298 203.296 95.3409 203.253 95.3624C203.253 95.3624 203.21 95.3624 203.189 95.3624C202.136 95.6846 201.105 96.0927 200.096 96.5867C201.062 96.243 201.921 96.0927 202.652 96.0927C202.673 96.0927 202.695 96.0927 202.716 96.0927L202.738 96.1142Z" fill="black"/>
</svg>
