<svg width="282" height="183" viewBox="0 0 282 183" fill="none" xmlns="http://www.w3.org/2000/svg">
<path d="M1.90016 111.906H10.5814C12.4512 111.906 13.8313 112.366 14.781 113.138C15.8198 113.998 16.3392 115.156 16.3392 116.595C16.3392 118.376 15.4043 119.519 13.8165 120.127V120.201C15.7753 120.81 17.0367 122.472 17.0367 124.609C17.0367 126.419 16.3837 127.725 15.1966 128.63C14.1429 129.461 12.659 129.921 10.7595 129.921H1.87048V111.921L1.90016 111.906ZM9.94329 119.029C11.2344 119.029 12.1099 118.406 12.1099 117.219C12.1099 116.031 11.2789 115.423 9.97297 115.423H6.3224V119.029H9.94329ZM10.2846 126.345C11.7389 126.345 12.6441 125.514 12.6441 124.223C12.6441 122.784 11.5905 122.056 10.2252 122.056H6.29272V126.33H10.2698L10.2846 126.345Z" fill="black"/>
<path d="M18.8021 111.906H32.4546V115.586H23.2688V118.806H31.1487V122.279H23.2688V126.137H32.603V129.907H18.8021V111.906Z" fill="black"/>
<path d="M34.6359 111.906H39.0878V129.907H34.6359V111.906Z" fill="black"/>
<path d="M41.1359 119.86H47.9919V123.392H41.1359V119.86Z" fill="black"/>
<path d="M49.758 120.943C49.758 115.557 53.2157 111.55 58.647 111.55C64.0783 111.55 67.5657 115.557 67.5657 120.943C67.5657 126.33 64.108 130.337 58.647 130.337C53.186 130.337 49.758 126.33 49.758 120.943ZM63.0396 120.943C63.0396 117.664 61.6001 115.156 58.6767 115.156C55.7532 115.156 54.299 117.679 54.299 120.943C54.299 124.208 55.7829 126.701 58.6767 126.701C61.5704 126.701 63.0396 124.208 63.0396 120.943Z" fill="black"/>
<path d="M69.302 111.906H73.7836L79.1259 120.943C79.4078 121.448 80.3576 123.229 80.3576 123.229H80.4021C80.4021 123.229 80.3576 121.062 80.3576 120.439V111.906H84.7204V129.907H80.2388L74.9559 120.988C74.6591 120.513 73.6648 118.569 73.6648 118.569H73.6203C73.6203 118.569 73.6648 120.884 73.6648 121.522V129.907H69.302V111.906Z" fill="black"/>
<path d="M87.1691 111.906H100.822V115.586H91.6358V118.806H99.5157V122.279H91.6358V126.137H100.97V129.907H87.1691V111.906Z" fill="black"/>
<path d="M3.62139 154.125C2.06322 152.418 1.20251 150.044 1.20251 147.299C1.20251 144.553 2.15226 141.986 3.87367 140.28C5.35764 138.766 7.45004 137.89 10.047 137.89C14.677 137.89 17.452 140.354 18.0308 144.138H13.6976C13.3711 142.684 12.1542 141.571 10.1954 141.571C7.22744 141.571 5.74347 144.034 5.74347 147.314C5.74347 150.593 7.45004 153.057 10.2696 153.057C12.6143 153.057 13.9944 151.498 14.1724 149.911V149.866H10.8038V146.586H18.3127V156.262H15.1964L14.9441 154.095H14.8996C13.7124 155.935 11.9465 156.663 9.77988 156.663C7.2126 156.663 5.1202 155.757 3.63623 154.14L3.62139 154.125Z" fill="black"/>
<path d="M20.4641 138.232H28.6407C30.837 138.232 32.4397 138.81 33.5824 139.864C34.7102 140.947 35.3928 142.387 35.3928 144.168C35.3928 146.557 34.1018 148.352 32.039 149.228L36.2238 156.232H31.208L27.5574 149.866H24.9902V156.232H20.4641V138.232ZM28.3885 146.364C29.9763 146.364 30.8815 145.563 30.8815 144.153C30.8815 142.743 29.9763 141.986 28.3885 141.986H24.9902V146.364H28.3885Z" fill="black"/>
<path d="M42.6939 138.232H47.2794L53.7792 156.232H49.0899L48.0362 152.982H41.7442L40.7054 156.232H36.2238L42.6939 138.232ZM46.9975 149.792L45.6322 145.429C45.3354 144.494 44.9199 142.891 44.9199 142.891H44.8754C44.8754 142.891 44.445 144.509 44.1482 145.429L42.7681 149.792H46.9975Z" fill="black"/>
<path d="M55.0256 138.232H59.5072L64.8495 147.269C65.1314 147.774 66.0812 149.554 66.0812 149.554H66.1257C66.1257 149.554 66.0812 147.388 66.0812 146.765V138.232H70.444V156.232H65.9625L60.6795 147.314C60.3827 146.839 59.3885 144.895 59.3885 144.895H59.3439C59.3439 144.895 59.3885 147.21 59.3885 147.848V156.232H55.0256V138.232Z" fill="black"/>
<path d="M72.9076 138.232H80.5946C85.5807 138.232 88.9345 141.838 88.9345 147.343C88.9345 150.519 87.8215 153.057 85.8182 154.6C84.4084 155.654 82.5979 156.232 80.3275 156.232H72.9224V138.232H72.9076ZM79.9861 152.493C82.9096 152.493 84.4232 150.653 84.4232 147.358C84.4232 144.064 82.8354 141.971 80.0455 141.971H77.3743V152.493H79.9861Z" fill="black"/>
<path d="M94.6779 138.232H102.78C104.977 138.232 106.579 138.84 107.692 139.894C108.85 140.977 109.503 142.506 109.503 144.331C109.503 147.774 107.114 150.222 103.404 150.222H99.204V156.247H94.6779V138.247V138.232ZM102.513 146.69C104.131 146.69 105.036 145.741 105.036 144.301C105.036 142.862 104.101 141.986 102.513 141.986H99.2189V146.69H102.513Z" fill="black"/>
<path d="M111.09 138.232H119.267C121.463 138.232 123.066 138.81 124.208 139.864C125.336 140.947 126.019 142.387 126.019 144.168C126.019 146.557 124.728 148.352 122.665 149.228L126.85 156.232H121.834L118.183 149.866H115.616V156.232H111.09V138.232ZM119.029 146.364C120.617 146.364 121.522 145.563 121.522 144.153C121.522 142.743 120.617 141.986 119.029 141.986H115.631V146.364H119.029Z" fill="black"/>
<path d="M128.142 138.232H132.594V156.232H128.142V138.232Z" fill="black"/>
<path d="M139.88 146.794L134.419 138.232H139.509L142.551 143.47H142.595L145.697 138.232H150.535L145.192 146.75L151.158 156.247H145.89L142.521 150.148H142.477L138.974 156.247H133.914L139.88 146.809V146.794Z" fill="black"/>
<path d="M1.90039 164.557H7.89564L10.0919 172.437C10.4184 173.565 11.1307 176.548 11.1307 176.548H11.1752C11.1752 176.548 11.8875 173.58 12.1843 172.437L14.3954 164.557H20.4352V182.558H16.3543V173.491C16.3543 172.764 16.4285 169.885 16.4285 169.885H16.384C16.384 169.885 15.7607 172.586 15.5529 173.239L12.956 182.558H9.27573L6.70846 173.268C6.50071 172.615 5.87744 169.9 5.87744 169.9H5.83292C5.83292 169.9 5.90712 172.793 5.90712 173.521V182.558H1.90039V164.557Z" fill="black"/>
<path d="M22.5568 178.967C22.5568 176.117 24.8273 175.272 27.4985 174.915C29.9173 174.619 30.778 174.366 30.778 173.476C30.778 172.645 30.2438 172.096 29.0121 172.096C27.7062 172.096 27.0533 172.675 26.9197 173.758H23.1504C23.2543 171.369 25.0944 169.321 28.9973 169.321C30.9413 169.321 32.2472 169.677 33.1821 170.374C34.295 171.176 34.8144 172.437 34.8144 174.055V180.554C34.8144 181.593 34.9183 182.172 35.2745 182.395V182.573H31.2974C31.0897 182.291 30.9709 181.786 30.8671 181.133H30.8226C30.0657 182.217 28.9379 182.899 26.9939 182.899C24.4266 182.899 22.5865 181.519 22.5865 178.967H22.5568ZM30.8522 177.958V176.414C30.318 176.696 29.5612 176.889 28.745 177.097C27.1571 177.453 26.5042 177.854 26.5042 178.833C26.5042 179.872 27.261 180.273 28.2701 180.273C29.8135 180.273 30.8671 179.338 30.8671 177.958H30.8522Z" fill="black"/>
<path d="M37.7821 179.16V172.229H36.0755V169.662H37.7821V165.581H41.7888V169.662H44.1335V172.229H41.7888V178.269C41.7888 179.278 42.3379 179.531 43.2283 179.531C43.5844 179.531 43.9851 179.501 44.1335 179.501V182.499C43.7773 182.602 43.0057 182.706 41.8927 182.706C39.5035 182.706 37.7821 181.92 37.7821 179.16Z" fill="black"/>
<path d="M45.84 178.388H49.7132C49.8616 179.679 50.7223 180.302 52.0727 180.302C53.3044 180.302 54.0909 179.857 54.0909 179.011C54.0909 177.854 52.5327 177.72 50.8113 177.423C48.5705 177.052 46.1813 176.444 46.1813 173.417C46.1813 170.701 48.7041 169.291 51.7462 169.291C55.3968 169.291 57.3557 170.879 57.5634 173.417H53.7793C53.6309 172.259 52.8444 171.903 51.7166 171.903C50.7075 171.903 49.921 172.274 49.921 173.09C49.921 173.995 51.3752 174.129 53.0225 174.426C55.2929 174.797 57.9641 175.376 57.9641 178.685C57.9641 181.504 55.471 182.959 52.1024 182.959C48.3331 182.959 45.9587 181.222 45.84 178.373V178.388Z" fill="black"/>
<path d="M59.7159 178.136V169.677H63.7968V177.275C63.7968 178.685 64.42 179.471 65.7408 179.471C67.1506 179.471 68.0113 178.418 68.0113 176.874V169.677H72.1219V182.573H68.1893V180.985H68.1151C67.1802 182.246 66.0524 182.944 64.2568 182.944C61.2889 182.944 59.7307 181 59.7307 178.136H59.7159Z" fill="black"/>
<path d="M73.9914 176.088C73.9914 172.23 76.6922 169.291 80.6099 169.291C82.45 169.291 83.9043 169.9 85.0173 170.909C86.5606 172.319 87.3026 174.559 87.2878 177.186H78.0278C78.2801 178.922 79.2298 180.005 80.9215 180.005C82.0048 180.005 82.7171 179.531 83.0585 178.714H87.0652C86.7832 179.872 86.0264 180.985 84.8986 181.757C83.8153 182.513 82.5094 182.944 80.877 182.944C76.618 182.944 74.0062 179.991 74.0062 176.088H73.9914ZM83.1178 174.737C82.9694 173.194 82.0048 172.215 80.6693 172.215C79.1111 172.215 78.3098 173.194 78.0278 174.737H83.1178Z" fill="black"/>
<path d="M95.1822 176.577C96.7403 175.242 98.7585 173.98 100.124 172.778C100.836 172.155 101.252 171.487 101.252 170.641C101.252 169.306 100.465 168.401 99.0108 168.401C98.2095 168.401 97.5714 168.653 97.141 169.187C96.6365 169.766 96.3842 170.552 96.3545 171.725H92.3775C92.3775 169.707 92.7336 168.475 93.5646 167.347C94.5441 165.937 96.4139 164.988 99.0999 164.988C103.255 164.988 105.496 167.451 105.496 170.508C105.496 172.897 104.16 174.277 102.632 175.464C101.088 176.726 99.2334 177.779 98.0166 179.07V179.1H105.525V182.602H92.1252C92.1697 179.709 93.4608 178.047 95.1673 176.607L95.1822 176.577Z" fill="black"/>
<path d="M107.321 173.951C107.321 168.46 110.423 164.943 114.949 164.943C119.475 164.943 122.577 168.475 122.577 173.951C122.577 179.427 119.505 182.959 114.919 182.959C110.334 182.959 107.321 179.427 107.321 173.951ZM118.199 173.951C118.199 170.597 117.264 168.238 114.949 168.238C112.634 168.238 111.67 170.582 111.67 173.951C111.67 177.319 112.619 179.634 114.949 179.634C117.279 179.634 118.199 177.349 118.199 173.951Z" fill="black"/>
<path d="M127.251 176.577C128.809 175.242 130.827 173.98 132.192 172.778C132.904 172.155 133.32 171.487 133.32 170.641C133.32 169.306 132.533 168.401 131.079 168.401C130.278 168.401 129.64 168.653 129.209 169.187C128.705 169.766 128.453 170.552 128.423 171.725H124.446C124.446 169.707 124.802 168.475 125.633 167.347C126.612 165.937 128.482 164.988 131.168 164.988C135.323 164.988 137.564 167.451 137.564 170.508C137.564 172.897 136.229 174.277 134.7 175.464C133.157 176.726 131.302 177.779 130.085 179.07V179.1H137.594V182.602H124.194C124.238 179.709 125.529 178.047 127.236 176.607L127.251 176.577Z" fill="black"/>
<path d="M147.344 178.744H139.316V174.841L147.299 165.151H151.484V175.524H153.977V178.744H151.484V182.573H147.359V178.744H147.344ZM147.344 175.509V169.588H147.299L142.521 175.45V175.494H147.359L147.344 175.509Z" fill="black"/>
<path d="M110.72 78.4125C115.499 74.6284 120.737 71.9573 120.737 67.075C120.737 63.5134 118.852 61.1242 115.454 61.1242C111.611 61.1242 109.34 63.8993 109.221 68.8557H102.098C102.098 60.1745 106.55 54.6689 115.617 54.6689C123.898 54.6689 128.572 60.2932 128.572 66.8523C128.572 74.0199 123.675 77.4182 119.001 80.5346C116.048 82.4192 112.605 84.8678 111.329 87.3163H128.899V93.5491H101.534C101.816 86.2627 106.372 81.8108 110.705 78.4274L110.72 78.4125Z" fill="black"/>
<path d="M132.178 74.5246C132.178 62.3411 138.47 54.6096 148.145 54.6096C157.821 54.6096 163.994 62.2818 163.994 74.5246C163.994 86.7673 157.984 94.4395 148.086 94.4395C138.188 94.4395 132.178 86.6486 132.178 74.5246ZM156.099 74.5246C156.099 66.4666 153.77 61.0649 148.145 61.0649C142.521 61.0649 140.087 66.4072 140.087 74.5246C140.087 82.6419 142.477 87.9842 148.145 87.9842C153.814 87.9842 156.099 82.7012 156.099 74.5246Z" fill="black"/>
<path d="M176.282 78.4125C181.06 74.6284 186.298 71.9573 186.298 67.075C186.298 63.5134 184.414 61.1242 181.015 61.1242C177.172 61.1242 174.902 63.8993 174.783 68.8557H167.66C167.66 60.1745 172.112 54.6689 181.179 54.6689C189.459 54.6689 194.134 60.2932 194.134 66.8523C194.134 74.0199 189.237 77.4182 184.562 80.5346C181.609 82.4192 178.166 84.8678 176.89 87.3163H194.46V93.5491H167.096C167.378 86.2627 171.934 81.8108 176.267 78.4274L176.282 78.4125Z" fill="black"/>
<path d="M214.983 85.2536H197.413V77.0769L214.716 54.9954H222.388V79.1841H228.176V85.2387H222.388V93.5193H214.998V85.2387L214.983 85.2536ZM203.527 79.199H214.983V64.4037H214.865L203.512 79.0357V79.199H203.527Z" fill="black"/>
<path d="M27.5725 57.444C27.2757 58.3542 26.9541 59.4523 26.6079 60.7384C25.5988 64.3 24.0109 68.47 22.7792 70.9779C21.9037 72.7735 21.2804 73.7529 20.1823 75.3704C18.3273 73.3077 17.5408 72.5063 14.9884 70.6217C15.7749 69.6571 15.9975 69.3455 16.5762 68.3809C15.7897 68.2919 14.9438 68.2473 14.1573 68.2473H12.8366C14.3799 71.3192 15.5226 72.8625 18.2828 75.6375C16.9621 78.1454 16.4872 79.3771 15.6858 81.885C14.2315 80.134 13.5341 78.9765 12.5695 76.9583C12.6585 78.279 12.7031 79.5552 12.7031 81.7515V90.3734C12.7031 92.6142 12.7921 94.5137 12.9702 96.0422H6.06969C6.24777 94.5433 6.33681 92.4806 6.33681 90.3734V85.1349C6.36649 82.82 6.41101 81.1035 6.47037 79.9856C5.01607 83.6361 4.14053 85.2982 2.55268 87.5093C1.81069 84.4375 1.1429 82.4044 0.000244141 79.8965C2.73075 76.4685 4.65992 72.5954 5.75806 68.2473H4.43732C3.02755 68.2473 2.10749 68.2919 1.18742 68.47V61.9108C2.01845 62.0889 2.98303 62.1334 4.52636 62.1334H6.29229V59.2248C6.29229 57.1621 6.24777 55.9304 6.02517 54.6096H12.9702C12.7921 55.8858 12.7031 57.2066 12.7031 59.2248V62.1334H14.1128C15.0774 62.1334 16.042 62.0443 16.7988 61.9108V68.0247C18.6538 64.6858 20.3604 59.2248 20.761 55.3219L27.5725 57.4292V57.444ZM32.1431 70.2804C31.9947 70.7157 31.7869 71.3587 31.5198 72.2096C29.7984 77.9674 28.359 82.0186 26.2369 86.9454C28.9229 86.5892 30.3326 86.3667 32.6625 85.8918C31.7869 83.6065 31.2082 82.3748 29.6797 79.1694L35.6156 76.7505C38.6874 82.8645 39.8301 85.7137 42.0857 92.2729L35.7046 95.6118C35.2149 93.7568 35.0072 92.9703 34.651 91.7832C29.3235 93.0594 24.3671 93.9349 18.3867 94.6027C17.6447 94.6917 17.2885 94.7362 16.5762 94.9143L15.389 87.7022C15.7007 87.7468 16.131 87.7468 16.3536 87.7468C16.7988 87.7468 17.7634 87.7022 19.0841 87.6132C20.4494 84.2297 21.1469 82.2857 22.2895 78.7242C23.8774 73.8419 24.7529 70.5475 25.02 68.6035L32.1431 70.2804ZM35.1852 55.2032C36.4615 60.872 38.8803 65.6652 42.3528 69.2713C40.2011 71.423 39.6668 72.0908 37.4706 75.1626C35.6156 72.8773 34.6065 71.334 33.3303 68.9151C31.876 66.0956 31.2675 64.4781 29.7242 59.3287C29.5907 58.7499 29.4126 58.275 29.1009 57.4885L35.1704 55.2032H35.1852Z" fill="black"/>
<path d="M51.494 65.3536C55.2782 67.5944 56.7325 68.559 60.1604 71.2004L56.3763 76.7801C52.9928 73.9161 51.1824 72.6844 47.4873 70.7107L51.494 65.3387V65.3536ZM60.1159 81.2321C58.0532 87.0789 57.0886 89.3197 55.1001 93.0593C54.833 93.6232 54.6994 93.8013 54.18 94.6917C53.9426 95.0775 53.7249 95.4585 53.5271 95.8344L47.6357 90.774C49.832 88.2216 52.1173 83.6955 54.4917 77.3589L60.1159 81.2321ZM57.519 65.7097C54.5659 63.0682 52.8593 61.7921 48.8971 59.3287L53.0819 54.4019C56.5099 56.3755 58.3203 57.5627 61.4812 60.0706V56.9098C63.0245 57.0878 64.5085 57.1769 67.0164 57.1769H82.4497C84.8686 57.1769 86.3229 57.0878 87.8959 56.9098V63.9883C86.3971 63.8102 84.6905 63.7212 82.4497 63.7212H77.5229V86.9454H83.1026C85.566 86.9454 87.4952 86.8563 88.7714 86.6783V93.8013C87.1836 93.6232 85.6106 93.5342 83.1026 93.5342H65.0724C62.5645 93.5342 60.9766 93.6232 59.4036 93.8013V86.6783C60.8134 86.8563 62.609 86.9454 65.0724 86.9454H70.4889V63.7212H66.9273C64.642 63.7212 62.9206 63.8102 61.4812 63.9883V60.6494L57.519 65.7097Z" fill="black"/>
<path d="M18.4908 5.44568C18.4908 3.65007 18.4017 2.49258 18.2237 1.2312H25.7474C25.5693 2.41838 25.4803 3.65007 25.4803 5.44568V16.1303H36.0759C38.4502 16.1303 40.5129 16.0413 42.0563 15.8187V22.6301C40.2458 22.4075 38.2721 22.3185 36.1204 22.3185H28.9083C30.4961 24.2921 32.826 26.5775 35.0668 28.2544C37.4856 30.05 40.3052 31.5933 43.5106 32.8695C41.5814 35.1993 40.7801 36.4756 39.2961 39.4732C35.1113 37.0988 33.2266 35.6891 30.4516 33.0921C28.2553 31.0739 26.8901 29.397 25.3467 26.8891L25.3913 27.6756C25.4358 28.8183 25.4803 29.5603 25.4803 30.3171V36.7872C25.4803 38.6273 25.5693 40.6604 25.7919 42.456H18.1792C18.3572 41.0462 18.4908 39.028 18.4908 36.7872V30.4061C18.4908 29.0409 18.5353 28.1208 18.6243 26.9336C16.9475 29.6196 15.3744 31.4597 12.5994 33.9231C10.0915 36.2084 7.98426 37.7518 5.16471 39.3248C3.57686 36.2975 2.83487 35.1845 1.11346 33.1663C4.58596 31.5785 6.87128 30.139 9.69083 27.7498C11.8871 25.9097 13.3859 24.3218 14.8402 22.3036H8.54817C6.17381 22.3036 4.33369 22.3927 2.47872 22.6153V15.8038C3.88849 16.0264 5.59506 16.1154 8.50365 16.1154H18.4908V5.43085V5.44568ZM10.5812 16.0412C8.99336 12.3907 7.6281 10.0163 4.86791 6.23218L10.4031 2.84873C13.2672 6.58834 14.5434 8.51752 16.5616 12.3462L10.5812 16.0412ZM27.3353 12.4797C29.8877 9.22982 31.342 6.89997 33.2712 2.80421L39.2961 6.0096C36.9662 10.4022 35.4229 12.7765 32.826 16.0412L27.3353 12.4797Z" fill="black"/>
<path d="M115.067 12.1384C114.756 12.6727 114.415 13.6817 113.925 15.1212C109.74 28.3137 102.32 36.4904 89.1276 42.4263C87.8514 39.9184 86.0113 37.544 83.8447 35.7039C95.4493 31.5339 102.617 24.5296 105.882 14.2902L94.188 14.4237C91.4575 18.7718 87.9404 22.6004 84.2008 25.4645C82.0936 23.0456 80.6838 21.8139 77.9533 20.1815C83.0137 16.7091 86.8868 12.272 89.647 6.76642C90.7897 4.48111 91.4129 2.7597 91.5317 1.48348L99.8419 2.98231C99.6193 3.4275 99.5748 3.47201 99.3077 4.03592C99.2632 4.16948 99.1296 4.43659 98.996 4.73339C98.818 5.13406 98.6399 5.51989 98.5954 5.65344C98.2837 6.30639 98.1057 6.75159 98.0611 6.79611C98.0166 6.92967 97.8831 7.2413 97.705 7.5381L107.692 7.44906H108.657C107.959 5.95025 107.202 4.71856 106.149 3.23458L110.497 1.82479C112.04 3.84299 113.183 5.99478 114.147 8.54721L112.782 9.0369L115.023 12.1087L115.067 12.1384ZM116.685 -0.000488281C118.139 1.92868 119.148 3.78364 120.336 6.55867L116.151 8.10201C114.919 5.19343 113.91 3.26426 112.545 1.37962L116.685 0.0143659V-0.000488281Z" fill="black"/>
<path d="M123.067 13.934C125.04 14.2011 126.45 14.2901 130.145 14.2901H152.227C154.334 14.2901 154.646 14.2456 155.744 13.8004L159.172 17.4955C158.637 18.282 158.548 18.4601 157.94 20.2706C155.655 26.8297 152.494 31.7417 148.175 35.3477C144.836 38.1673 141.661 39.8738 135.636 42.2037C134.493 39.6067 133.261 37.8111 130.709 34.9916C135.992 33.6263 139.153 32.2165 142.314 29.8422C145.519 27.4678 147.463 24.9599 149.081 21.0422H130.041C126.569 21.0422 125.827 21.0867 123.052 21.3093V13.9192L123.067 13.934ZM126.717 2.93774C128.439 3.20486 130.056 3.29391 133.187 3.29391H147.211C150.683 3.29391 152.583 3.20486 154.111 2.93774V10.3279C152.434 10.1944 150.372 10.1053 147.344 10.1053H133.098C129.626 10.1053 128.661 10.1499 126.717 10.3279V2.93774Z" fill="black"/>
<path d="M169.99 4.43652C175.525 7.68642 178.389 9.71946 182.084 13.0584L176.891 19.9143C173.062 15.9076 169.322 13.0139 164.93 10.6395L169.99 4.43652ZM165.375 31.7416C169.857 31.3855 174.472 30.2873 178.612 28.5808C184.147 26.2954 188.109 23.001 191.493 17.7181C193.333 14.8985 194.52 12.4797 195.796 9.0962C197.948 11.6931 198.957 12.5687 202.267 14.9876C198.26 23.654 194.09 28.833 187.931 32.7952C183.183 35.8671 178.998 37.4994 170.821 39.3841C169.1 39.7848 168.847 39.8293 167.66 40.1706L165.375 31.7268V31.7416Z" fill="black"/>
<path d="M241.798 10.8623L241.754 11.0403C241.709 11.2184 241.665 11.352 241.62 11.4855L241.353 12.6282C237.747 26.7408 230.09 35.6298 216.111 41.8773C214.657 38.9242 213.425 37.2621 210.576 34.4871C222.269 30.8365 230.194 23.0457 232.702 12.8063H214.315C209.656 12.8508 208.602 12.8953 207.059 13.0734V5.16379C208.735 5.4309 209.967 5.51995 214.449 5.51995H236.872C237.005 2.78944 239.112 0.77124 241.798 0.77124C244.484 0.77124 246.77 2.96751 246.77 5.74254C246.77 8.51756 244.618 10.6693 241.843 10.7139L241.798 10.8919V10.8623ZM239.29 5.71287C239.29 7.03361 240.433 8.17627 241.798 8.17627C243.164 8.17627 244.306 7.03361 244.306 5.71287C244.306 4.39214 243.164 3.20495 241.798 3.20495C240.433 3.20495 239.29 4.34762 239.29 5.71287Z" fill="black"/>
<path d="M261.329 3.29395C261.151 5.31215 261.106 6.1135 261.106 9.18532V17.9407C261.106 21.0571 261.151 22.4669 261.329 24.2328H252.796C253.018 22.6449 253.063 21.1165 253.063 17.8072V9.09628C253.063 6.41029 253.018 5.22311 252.796 3.29395H261.329ZM281.778 3.29395C281.6 5.75734 281.555 6.41029 281.555 9.22984V14.3792C281.555 20.4042 281.199 24.6186 280.546 27.1711C279.225 31.9643 276.243 35.5703 271.405 38.3454C268.897 39.7997 266.567 40.7197 262.264 41.9514C261.255 38.9983 260.156 37.1582 257.782 34.4277C261.997 33.6412 264.252 32.9289 266.493 31.7417C270.366 29.679 272.34 27.082 273.052 23.2089C273.319 21.5765 273.542 17.7182 273.542 13.8895V9.31887C273.542 6.11349 273.497 5.17859 273.275 3.29395H281.808H281.778Z" fill="black"/>
<path d="M56.9259 14.4682H47.8885V9.2298C52.7857 9.05172 57.1485 7.25613 57.9647 2.12158H64.8949V42.3224H56.9111V14.4682H56.9259Z" fill="black"/>
</svg>
