<svg width="518" height="286" viewBox="0 0 518 286" fill="none" xmlns="http://www.w3.org/2000/svg">
<path d="M3.97852 205.292H19.9106C23.3149 205.292 25.875 206.136 27.618 207.552C29.4971 209.132 30.4776 211.256 30.4776 213.871C30.4776 217.139 28.7618 219.236 25.8477 220.325V220.461C29.4427 221.578 31.7576 224.628 31.7576 228.55C31.7576 231.873 30.5593 234.269 28.3805 235.931C26.4469 237.456 23.7234 238.273 20.2647 238.273H3.97852V205.265V205.292ZM18.7123 218.337C21.0817 218.337 22.6885 217.193 22.6885 215.015C22.6885 212.836 21.1634 211.746 18.7668 211.746H12.0671V218.337H18.7123ZM19.3659 231.736C22.0349 231.736 23.6962 230.211 23.6962 227.869C23.6962 225.227 21.7625 223.893 19.257 223.893H12.0399V231.736H19.3387H19.3659Z" fill="black"/>
<path d="M34.9697 205.293H59.9981V212.047H43.14V217.957H57.6015V224.33H43.14V231.383H60.2705V238.301H34.9697V205.293Z" fill="black"/>
<path d="M64.0283 205.293H72.1986V238.301H64.0283V205.293Z" fill="black"/>
<path d="M75.9304 219.863H88.4854V226.318H75.9304V219.863Z" fill="black"/>
<path d="M91.7832 221.851C91.7832 211.965 98.1015 204.639 108.069 204.639C118.037 204.639 124.41 211.992 124.41 221.851C124.41 231.71 118.092 239.063 108.069 239.063C98.0471 239.063 91.7832 231.71 91.7832 221.851ZM116.103 221.851C116.103 215.859 113.462 211.229 108.124 211.229C102.786 211.229 100.09 215.859 100.09 221.851C100.09 227.842 102.813 232.418 108.124 232.418C113.435 232.418 116.103 227.842 116.103 221.851Z" fill="black"/>
<path d="M127.596 205.293H135.82L145.598 221.879C146.115 222.805 147.858 226.073 147.858 226.073H147.94C147.94 226.073 147.858 222.097 147.858 220.953V205.293H155.838V238.301H147.613L137.917 221.96C137.373 221.089 135.575 217.521 135.575 217.521H135.494C135.494 217.521 135.575 221.77 135.575 222.914V238.301H127.596V205.293Z" fill="black"/>
<path d="M160.387 205.293H185.415V212.047H168.557V217.957H183.019V224.33H168.557V231.383H185.687V238.301H160.387V205.293Z" fill="black"/>
<path d="M207.384 233.636C204.525 230.504 202.945 226.147 202.945 221.136C202.945 216.125 204.688 211.386 207.847 208.254C210.571 205.476 214.411 203.869 219.15 203.869C227.647 203.869 232.712 208.39 233.775 215.308H225.822C225.223 212.639 223.017 210.596 219.395 210.596C213.948 210.596 211.225 215.117 211.225 221.136C211.225 227.154 214.356 231.675 219.531 231.675C223.834 231.675 226.367 228.816 226.694 225.902V225.82H220.511V219.828H234.265V237.558H228.546L228.083 233.582H228.001C225.822 236.959 222.608 238.293 218.632 238.293C213.921 238.293 210.081 236.632 207.357 233.664L207.384 233.636Z" fill="black"/>
<path d="M238.268 204.523H253.274C257.304 204.523 260.246 205.586 262.316 207.519C264.385 209.507 265.638 212.149 265.638 215.417C265.638 219.802 263.269 223.07 259.51 224.704L267.163 237.532H257.985L251.286 225.848H246.574V237.532H238.268V204.523ZM252.811 219.421C255.725 219.421 257.386 217.95 257.386 215.363C257.386 212.775 255.725 211.387 252.811 211.387H246.574V219.421H252.811Z" fill="black"/>
<path d="M279.038 204.523H287.426L299.328 237.532H290.749L288.815 231.567H277.268L275.389 237.532H267.164L279.038 204.523ZM286.936 225.712L284.431 217.732C283.886 216.016 283.151 213.075 283.151 213.075H283.069C283.069 213.075 282.279 216.016 281.734 217.732L279.202 225.712H286.963H286.936Z" fill="black"/>
<path d="M301.669 204.523H309.894L319.671 221.109C320.188 222.035 321.931 225.303 321.931 225.303H322.013C322.013 225.303 321.931 221.327 321.931 220.183V204.523H329.911V237.532H321.686L311.991 221.191C311.446 220.319 309.649 216.752 309.649 216.752H309.567C309.567 216.752 309.649 221 309.649 222.144V237.532H301.669V204.523Z" fill="black"/>
<path d="M334.46 204.523H348.54C357.691 204.523 363.819 211.114 363.819 221.245C363.819 227.074 361.776 231.731 358.099 234.536C355.512 236.469 352.19 237.532 348.023 237.532H334.46V204.523ZM347.424 230.641C352.789 230.641 355.539 227.264 355.539 221.218C355.539 215.172 352.625 211.332 347.505 211.332H342.603V230.641H347.396H347.424Z" fill="black"/>
<path d="M374.386 204.523H389.256C393.286 204.523 396.228 205.64 398.27 207.574C400.395 209.562 401.593 212.367 401.593 215.69C401.593 222.008 397.208 226.502 390.427 226.502H382.719V237.532H374.413V204.523H374.386ZM388.765 220.02C391.707 220.02 393.395 218.277 393.395 215.635C393.395 212.993 391.68 211.387 388.765 211.387H382.719V220.02H388.765Z" fill="black"/>
<path d="M404.506 204.523H419.512C423.543 204.523 426.484 205.586 428.554 207.519C430.624 209.507 431.876 212.149 431.876 215.417C431.876 219.802 429.507 223.07 425.749 224.704L433.401 237.532H424.224L417.524 225.848H412.812V237.532H404.506V204.523ZM419.049 219.421C421.963 219.421 423.624 217.95 423.624 215.363C423.624 212.775 421.963 211.387 419.049 211.387H412.812V219.421H419.049Z" fill="black"/>
<path d="M435.772 204.523H443.943V237.532H435.772V204.523Z" fill="black"/>
<path d="M457.289 220.21L447.267 204.523H456.581L462.164 214.137H462.246L467.91 204.523H476.761L466.984 220.129L477.933 237.532H468.292L462.109 226.365H462.028L455.6 237.532H446.313L457.262 220.21H457.289Z" fill="black"/>
<path d="M3.97839 252.229H14.9539L18.9573 266.69C19.5564 268.76 20.8637 274.207 20.8637 274.207H20.9454C20.9454 274.207 22.2254 268.76 22.7973 266.69L26.8553 252.229H37.9396V285.237H30.4502V268.624C30.4502 267.289 30.5864 262.033 30.5864 262.033H30.5047C30.5047 262.033 29.3608 266.962 28.9795 268.161L24.2135 285.237H17.4866L12.7751 268.188C12.3938 266.99 11.25 262.006 11.25 262.006H11.1683C11.1683 262.006 11.3044 267.316 11.3044 268.651V285.237H3.95117V252.229H3.97839Z" fill="black"/>
<path d="M41.8621 278.647C41.8621 273.418 46.0289 271.865 50.9039 271.212C55.3431 270.667 56.8954 270.204 56.8954 268.57C56.8954 267.045 55.915 266.037 53.6545 266.037C51.2579 266.037 50.0596 267.099 49.8145 269.088H42.897C43.0876 264.703 46.4374 260.972 53.6001 260.972C57.1678 260.972 59.5644 261.625 61.2529 262.905C63.2955 264.376 64.2487 266.691 64.2487 269.659V281.561C64.2487 283.467 64.4393 284.502 65.093 284.938V285.265H57.7942C57.4129 284.747 57.195 283.821 57.0043 282.623H56.9226C55.5337 284.611 53.4639 285.864 49.8962 285.864C45.1846 285.864 41.8076 283.331 41.8076 278.674L41.8621 278.647ZM57.086 276.795V273.99C56.1056 274.507 54.7439 274.861 53.2188 275.242C50.3047 275.896 49.1064 276.631 49.1064 278.429C49.1064 280.335 50.4954 281.071 52.3473 281.071C55.1524 281.071 57.1133 279.355 57.1133 276.822L57.086 276.795Z" fill="black"/>
<path d="M69.7784 279.028V266.336H66.6465V261.625H69.7784V254.135H77.1317V261.625H81.4347V266.336H77.1317V277.421C77.1317 279.273 78.1394 279.736 79.7734 279.736C80.427 279.736 81.1624 279.681 81.4347 279.681V285.183C80.7811 285.373 79.3649 285.564 77.3223 285.564C72.9376 285.564 69.8057 284.121 69.8057 279.055L69.7784 279.028Z" fill="black"/>
<path d="M84.5637 277.585H91.6719C91.9442 279.954 93.5238 281.098 96.0021 281.098C98.2626 281.098 99.706 280.254 99.706 278.728C99.706 276.604 96.8464 276.386 93.7145 275.814C89.6021 275.133 85.2173 274.017 85.2173 268.461C85.2173 263.477 89.8472 260.89 95.4302 260.89C102.13 260.89 105.725 263.804 106.106 268.461H99.1886C98.9163 266.337 97.4728 265.683 95.403 265.683C93.551 265.683 92.1348 266.364 92.1348 267.862C92.1348 269.523 94.8039 269.768 97.8269 270.313C101.994 270.994 106.869 272.056 106.869 278.129C106.869 283.304 102.293 285.973 96.1111 285.973C89.1936 285.973 84.836 282.786 84.6182 277.557L84.5637 277.585Z" fill="black"/>
<path d="M110.003 277.121V261.598H117.492V275.542C117.492 278.129 118.636 279.545 121.033 279.545C123.62 279.545 125.2 277.612 125.2 274.779V261.571H132.716V285.21H125.527V282.296H125.39C123.675 284.611 121.605 285.891 118.337 285.891C112.89 285.891 110.03 282.35 110.03 277.067L110.003 277.121Z" fill="black"/>
<path d="M136.2 273.39C136.2 266.337 141.13 260.917 148.347 260.917C151.724 260.917 154.393 262.034 156.435 263.858C159.24 266.446 160.629 270.558 160.602 275.351H143.608C144.071 278.538 145.814 280.526 148.919 280.526C150.907 280.526 152.187 279.654 152.84 278.184H160.194C159.676 280.308 158.314 282.35 156.217 283.767C154.229 285.156 151.833 285.945 148.837 285.945C141.021 285.945 136.227 280.553 136.227 273.39H136.2ZM152.949 270.885C152.677 268.08 150.907 266.255 148.483 266.255C145.623 266.255 144.153 268.052 143.635 270.885H152.949Z" fill="black"/>
<path d="M175.065 274.262C177.925 271.811 181.629 269.496 184.107 267.29C185.387 266.146 186.177 264.948 186.177 263.369C186.177 260.917 184.734 259.256 182.065 259.256C180.594 259.256 179.423 259.719 178.66 260.7C177.734 261.762 177.271 263.205 177.217 265.357H169.918C169.918 261.653 170.572 259.392 172.097 257.322C173.894 254.735 177.326 252.992 182.255 252.992C189.881 252.992 193.993 257.513 193.993 263.096C193.993 267.481 191.542 270.014 188.737 272.192C185.932 274.507 182.5 276.441 180.294 278.783V278.838H194.048V285.265H169.482C169.564 279.954 171.933 276.904 175.065 274.262Z" fill="black"/>
<path d="M197.342 269.468C197.342 259.392 203.007 252.937 211.34 252.937C219.674 252.937 225.339 259.392 225.339 269.468C225.339 279.545 219.701 286 211.313 286C202.925 286 197.369 279.545 197.369 269.468H197.342ZM217.277 269.468C217.277 263.341 215.562 258.983 211.313 258.983C207.064 258.983 205.321 263.286 205.321 269.468C205.321 275.651 207.064 279.899 211.313 279.899C215.562 279.899 217.277 275.705 217.277 269.468Z" fill="black"/>
<path d="M233.916 274.262C236.776 271.811 240.48 269.496 242.958 267.29C244.238 266.146 245.028 264.948 245.028 263.369C245.028 260.917 243.584 259.256 240.915 259.256C239.445 259.256 238.274 259.719 237.511 260.7C236.585 261.762 236.122 263.205 236.068 265.357H228.769C228.769 261.653 229.422 259.392 230.947 257.322C232.745 254.735 236.177 252.992 241.106 252.992C248.732 252.992 252.844 257.513 252.844 263.096C252.844 267.481 250.393 270.014 247.588 272.192C244.783 274.507 241.351 276.441 239.145 278.783V278.838H252.898V285.265H228.333C228.415 279.954 230.784 276.904 233.916 274.262Z" fill="black"/>
<path d="M270.765 278.238H256.031V271.075L270.656 253.291H278.309V272.301H282.884V278.21H278.309V285.237H270.738V278.21L270.765 278.238ZM270.765 272.328V261.489H270.683L261.914 272.246V272.328H270.765Z" fill="black"/>
<path d="M203.579 143.852C212.348 136.907 221.935 132.032 221.935 123.045C221.935 116.509 218.476 112.124 212.239 112.124C205.213 112.124 201.019 117.217 200.828 126.313H187.783C187.783 110.408 195.953 100.304 212.566 100.304C227.763 100.304 236.315 110.599 236.315 122.637C236.315 135.791 227.354 142 218.776 147.719C213.383 151.178 207.038 155.672 204.695 160.166H236.914V171.577H186.748C187.265 158.205 195.626 150.062 203.579 143.825V143.852Z" fill="black"/>
<path d="M242.932 136.716C242.932 114.384 254.453 100.195 272.209 100.195C289.966 100.195 301.268 114.275 301.268 136.716C301.268 159.157 290.266 173.238 272.1 173.238C253.935 173.238 242.932 158.967 242.932 136.716ZM286.78 136.716C286.78 121.928 282.504 112.042 272.209 112.042C261.915 112.042 257.421 121.819 257.421 136.716C257.421 151.614 261.806 161.391 272.209 161.391C282.613 161.391 286.78 151.695 286.78 136.716Z" fill="black"/>
<path d="M323.82 143.852C332.59 136.907 342.176 132.032 342.176 123.045C342.176 116.509 338.717 112.124 332.481 112.124C325.454 112.124 321.26 117.217 321.069 126.313H308.024C308.024 110.408 316.194 100.304 332.807 100.304C348.004 100.304 356.556 110.599 356.556 122.637C356.556 135.791 347.596 142 339.017 147.719C333.624 151.178 327.279 155.672 324.937 160.166H357.155V171.577H306.989C307.507 158.205 315.868 150.062 323.82 143.825V143.852Z" fill="black"/>
<path d="M394.789 156.379H362.571V141.401L394.299 100.903H408.379V145.268H418.974V156.379H408.379V171.576H394.817V156.379H394.789ZM373.792 145.268H394.789V118.142H394.572L373.765 144.968V145.268H373.792Z" fill="black"/>
<path d="M51.0653 105.37C50.5206 107.04 49.9305 109.056 49.2951 111.416C47.4431 117.952 44.5291 125.605 42.2686 130.208C40.6618 133.503 39.5179 135.3 37.5026 138.269C34.1255 134.483 32.6549 133.013 27.9706 129.554C29.414 127.784 29.8225 127.212 30.8846 125.442C29.4412 125.278 27.8888 125.196 26.4454 125.196H24.0216C26.8539 130.834 28.951 133.666 34.0166 138.759C31.5928 143.362 30.7213 145.622 29.2506 150.225C26.5816 147.011 25.3016 144.887 23.5314 141.183C23.6948 143.607 23.7765 145.949 23.7765 149.98V165.776C23.7765 169.888 23.9399 173.347 24.2667 176.179H11.6027C11.9295 173.428 12.0929 169.643 12.0929 165.776V156.189C12.1474 151.941 12.2291 148.8 12.338 146.766C9.66908 153.466 8.06225 156.516 5.14818 160.547C3.78646 154.909 2.56091 151.178 0.463867 146.603C5.47499 140.311 9.01547 133.203 11.0308 125.224H8.60695C6.01969 125.224 4.33115 125.305 2.64262 125.632V113.622C4.16775 113.949 5.93798 114.03 8.77035 114.03H11.984V108.72C11.984 104.934 11.9023 102.674 11.4938 100.25H24.2394C23.9126 102.592 23.7492 105.016 23.7492 108.72V114.03H26.3365C28.1067 114.03 29.877 113.867 31.2659 113.622V124.842C34.643 118.715 37.8022 108.72 38.5375 101.53L51.0381 105.397L51.0653 105.37ZM59.4535 128.928C59.1811 129.726 58.8089 130.907 58.3369 132.468C55.1777 143.035 52.5359 150.443 48.6687 159.484C53.5981 158.831 56.1581 158.422 60.4339 157.551C58.8271 153.357 57.7649 151.096 54.9598 145.214L65.8535 140.774C71.491 151.995 73.5881 157.224 77.7005 169.234L66.017 175.362C65.1182 171.985 64.7369 170.514 64.0833 168.336C54.3334 170.678 45.2099 172.285 34.2344 173.51C32.8727 173.674 32.2191 173.755 30.9391 174.082L28.7604 160.846C29.3323 160.928 30.1221 160.928 30.5306 160.928C31.3476 160.928 33.1179 160.846 35.5417 160.683C38.0473 154.473 39.3273 150.933 41.4243 144.397C44.3384 135.437 45.9452 129.391 46.4355 125.85L59.508 128.9L59.4535 128.928ZM65.0093 101.257C67.3514 111.661 71.7906 120.458 78.1635 127.076C74.2145 131.025 73.2341 132.25 69.2034 137.888C65.8263 133.694 63.9744 130.861 61.6322 126.422C58.9633 121.247 57.8466 118.279 55.0143 108.829C54.7692 107.794 54.4423 106.895 53.8977 105.452L65.0365 101.257H65.0093Z" fill="black"/>
<path d="M94.9404 119.885C101.885 123.997 104.527 125.768 110.818 130.615L103.873 140.855C97.6638 135.599 94.3413 133.366 87.5872 129.717L94.9132 119.885H94.9404ZM110.764 148.998C106.978 159.729 105.208 163.841 101.558 170.704C101.068 171.739 100.823 172.066 99.8699 173.7C99.4341 174.408 99.0347 175.107 98.6716 175.797L87.8595 166.51C91.8902 161.826 96.0843 153.519 100.442 141.918L110.764 149.026V148.998ZM105.998 120.539C100.605 115.691 97.446 113.349 90.2016 108.855L97.8545 99.8132C104.146 103.435 107.441 105.614 113.269 110.217V104.416C116.102 104.743 118.825 104.906 123.428 104.906H151.751C156.19 104.906 158.859 104.743 161.746 104.416V117.407C158.996 117.08 155.864 116.916 151.751 116.916H142.709V159.511H152.95C157.471 159.511 161.011 159.348 163.353 159.021V172.093C160.439 171.766 157.552 171.603 152.95 171.603H119.887C115.284 171.603 112.398 171.766 109.484 172.093V159.021C112.071 159.348 115.366 159.511 119.887 159.511H129.8V116.916H123.264C119.07 116.916 115.911 117.08 113.269 117.407V111.279L105.998 120.566V120.539Z" fill="black"/>
<path d="M34.4271 9.9953C34.4271 6.69994 34.2636 4.6029 33.9368 2.26074H47.7174C47.3906 4.43949 47.2272 6.69994 47.2272 9.9953V29.604H66.6725C71.03 29.604 74.8156 29.4406 77.648 29.0321V41.5327C74.3526 41.1242 70.7032 40.9608 66.7542 40.9608H53.5183C56.4324 44.5829 60.7082 48.777 64.8206 51.8545C69.2598 55.1498 74.4071 57.9822 80.317 60.3244C76.7765 64.6002 75.3058 66.9423 72.5824 72.4164C64.9295 68.0589 61.4435 65.4717 56.3779 60.7329C52.3473 57.029 49.8417 53.9515 47.0093 49.3489L47.091 50.7924C47.1727 52.8894 47.2545 54.2511 47.2545 55.6401V67.487C47.2545 70.8641 47.4178 74.5952 47.8264 77.8905H33.8824C34.2092 75.3033 34.4543 71.5994 34.4543 67.487V55.8035C34.4543 53.2979 34.536 51.6094 34.6994 49.4306C31.6219 54.3601 28.7351 57.7371 23.6422 62.258C19.0396 66.4521 15.1724 69.2845 9.99784 72.1713C7.08376 66.6155 5.72204 64.6002 2.59009 60.8691C8.96293 57.955 13.157 55.3133 18.3315 50.9558C22.3622 47.5787 25.1129 44.6646 27.7819 40.9608H16.2345C11.877 40.9608 8.49994 41.1242 5.09564 41.5327V29.0321C7.68291 29.4406 10.8149 29.604 16.1528 29.604H34.4543V9.9953H34.4271ZM19.9111 29.4406C16.9971 22.741 14.5187 18.3835 9.4259 11.4659L19.5843 5.25652C24.8406 12.1196 27.1555 15.66 30.8866 22.6865L19.9111 29.4679V29.4406ZM50.6315 22.9044C55.3158 16.9401 57.9848 12.6643 61.5252 5.14758L72.5824 11.0302C68.3066 19.0916 65.4742 23.4491 60.7355 29.4134L50.6587 22.8771L50.6315 22.9044Z" fill="black"/>
<path d="M211.56 22.2505C210.988 23.2309 210.362 25.0828 209.463 27.7246C201.81 51.9087 188.166 66.9148 163.981 77.8085C161.639 73.2059 158.262 68.8484 154.313 65.4714C175.611 57.8185 188.765 44.9911 194.729 26.1994L173.268 26.4446C168.257 34.4242 161.803 41.4507 154.967 46.6797C151.1 42.2405 148.512 39.98 143.501 37.0115C152.788 30.6387 159.869 22.4956 164.962 12.4189C167.059 8.22478 168.176 5.0656 168.421 2.75068L183.672 5.50134C183.263 6.31837 183.182 6.40007 182.691 7.43498C182.61 7.68009 182.365 8.17031 182.12 8.715C181.793 9.45032 181.466 10.1584 181.384 10.4035C180.812 11.6018 180.485 12.4189 180.404 12.5006C180.322 12.7457 180.077 13.3176 179.75 13.8623L198.052 13.6989H199.822C198.542 10.9482 197.153 8.68776 195.219 5.96432L203.199 3.37706C206.031 7.08094 208.128 11.0299 209.899 15.7142L207.393 16.613L211.505 22.2505H211.56ZM214.528 0C217.197 3.54047 219.049 6.94476 221.228 12.0103L213.575 14.8427C211.315 9.50479 209.463 5.96433 206.957 2.50557L214.528 0Z" fill="black"/>
<path d="M226.212 25.5732C229.834 26.0634 232.422 26.2269 239.203 26.2269H279.7C283.568 26.2269 284.14 26.1452 286.155 25.3281L292.446 32.1095C291.466 33.5529 291.302 33.8797 290.186 37.2023C285.992 49.2127 280.191 58.2545 272.265 64.8724C266.138 70.0469 260.337 73.1789 249.28 77.4547C247.183 72.6887 244.922 69.3933 240.238 64.2188C249.906 61.7132 255.734 59.126 261.535 54.7685C267.418 50.411 270.985 45.8084 273.954 38.6457H239.04C232.667 38.6457 231.305 38.7274 226.212 39.1359V25.5732ZM232.912 5.39258C236.071 5.8828 239.04 6.04621 244.759 6.04621H270.495C276.868 6.04621 280.327 5.8828 283.159 5.39258V18.9553C280.109 18.7102 276.296 18.5468 270.74 18.5468H244.595C238.223 18.5468 236.452 18.6285 232.912 18.9553V5.39258Z" fill="black"/>
<path d="M312.3 8.14355C322.458 14.1079 327.714 17.8117 334.469 23.9667L324.936 36.549C317.91 29.1957 311.074 23.885 302.986 19.5275L312.273 8.14355H312.3ZM303.83 58.2275C312.055 57.5739 320.525 55.5586 328.123 52.4266C338.281 48.2325 345.553 42.1865 351.762 32.4911C355.139 27.3165 357.318 22.9046 359.66 16.6951C363.609 21.4612 365.461 23.068 371.507 27.5072C364.181 43.3848 356.501 52.9168 345.199 60.1612C336.484 65.7987 328.831 68.7944 313.825 72.2532C310.666 72.9885 310.203 73.0702 308.024 73.6966L303.83 58.2003V58.2275Z" fill="black"/>
<path d="M444.004 19.9354L443.922 20.2622C443.841 20.589 443.759 20.8341 443.677 21.0792L443.187 23.1763C436.569 49.0761 422.543 65.3623 396.889 76.8279C394.22 71.4355 391.959 68.3581 386.73 63.2652C408.191 56.5656 422.707 42.2948 427.309 23.5031H393.593C385.042 23.5848 383.108 23.6665 380.276 23.9933V9.47738C383.353 9.9676 385.614 10.131 393.838 10.131H434.989C435.235 5.11989 439.102 1.41602 444.031 1.41602C448.961 1.41602 453.155 5.4467 453.155 10.5395C453.155 15.6323 449.206 19.5813 444.113 19.663L444.031 19.9898L444.004 19.9354ZM439.401 10.485C439.401 12.9089 441.498 15.006 444.004 15.006C446.51 15.006 448.607 12.9089 448.607 10.485C448.607 8.06119 446.51 5.88245 444.004 5.88245C441.498 5.88245 439.401 7.97949 439.401 10.485Z" fill="black"/>
<path d="M479.819 6.04579C479.492 9.74967 479.411 11.2203 479.411 16.8578V32.8989C479.411 38.6181 479.492 41.2053 479.819 44.419H464.159C464.568 41.5049 464.65 38.6998 464.65 32.6538V16.6944C464.65 11.765 464.568 9.58626 464.159 6.04579H479.819ZM517.321 6.04579C516.994 10.5667 516.912 11.765 516.912 16.9395V26.3626C516.912 37.4198 516.259 45.1543 515.06 49.8386C512.637 58.6353 507.162 65.2533 498.284 70.3189C493.681 72.9878 489.406 74.6764 481.508 76.9368C479.656 71.5444 477.64 68.1401 473.283 63.1562C481.018 61.7128 485.13 60.4056 489.242 58.2268C496.35 54.4412 499.973 49.6752 501.253 42.5671C501.743 39.5713 502.151 32.4903 502.151 25.4639V17.0757C502.151 11.1931 502.07 9.50455 501.661 6.01855H517.321V6.04579Z" fill="black"/>
<path d="M104.909 26.5262H88.3508V16.9124C97.3382 16.5856 105.345 13.2903 106.843 3.86719H119.561V77.6178H104.909V26.5262Z" fill="black"/>
</svg>
