<svg width="231" height="231" viewBox="0 0 231 231" fill="none" xmlns="http://www.w3.org/2000/svg">
<path d="M78.3181 31.357C90.5594 23.1588 108.009 29.3635 115.501 23.4836C115.68 23.3492 115.949 23.4948 116.173 23.506C114.538 9.31595 106.004 4.73526 100.404 3.2793C90.5482 10.7495 66.3904 3.1785 59.5586 17.0774C66.8496 19.0597 73.1327 23.8644 78.3069 31.3682L78.3181 31.357Z" fill="#2D2D2D"/>
<path d="M41.2334 61.2147C47.7292 47.9878 65.9512 44.6503 69.4903 35.8025C69.5799 35.5897 69.8823 35.5897 70.0839 35.4777C61.5721 24.0092 51.8843 24.3116 46.3181 25.8459C41.5246 37.2361 16.8068 42.7575 17.8484 58.2131C25.1506 56.2868 33.0016 57.306 41.2334 61.2147Z" fill="#2D2D2D"/>
<path d="M24.0545 105.621C23.0689 90.9162 37.1694 78.9101 35.8254 69.4799C35.7918 69.2559 36.0606 69.0991 36.1726 68.9088C23.0689 63.2305 14.8371 68.3376 10.7716 72.4479C12.3172 84.7116 -6.33037 101.858 2.30461 114.716C7.66928 109.396 14.9715 106.349 24.0545 105.621Z" fill="#2D2D2D"/>
<path d="M31.3687 152.671C23.1705 140.43 29.3752 122.981 23.4953 115.488C23.3609 115.309 23.5065 115.04 23.5177 114.816C9.32767 116.452 4.74698 124.986 3.29102 130.586C10.7612 140.441 3.19022 164.599 17.0891 171.431C19.0714 164.14 23.8761 157.857 31.3799 152.683L31.3687 152.671Z" fill="#2D2D2D"/>
<path d="M61.2264 189.765C47.9995 183.269 44.662 165.047 35.8142 161.508C35.6014 161.418 35.6014 161.116 35.4894 160.914C24.0209 169.426 24.3233 179.114 25.8577 184.68C37.2478 189.473 42.7692 214.191 58.2249 213.15C56.2985 205.847 57.3177 197.996 61.2264 189.765Z" fill="#2D2D2D"/>
<path d="M105.633 206.944C90.9279 207.93 78.9218 193.829 69.4917 195.173C69.2677 195.207 69.1109 194.938 68.9205 194.826C63.2422 207.93 68.3493 216.162 72.4596 220.227C84.7233 218.682 101.87 237.329 114.727 228.694C109.407 223.329 106.361 216.027 105.633 206.944Z" fill="#2D2D2D"/>
<path d="M152.683 199.632C140.442 207.83 122.993 201.626 115.5 207.506C115.321 207.64 115.052 207.494 114.828 207.483C116.463 221.673 124.997 226.254 130.597 227.71C140.453 220.24 164.611 227.811 171.443 213.912C164.152 211.93 157.869 207.125 152.694 199.621L152.683 199.632Z" fill="#2D2D2D"/>
<path d="M189.776 169.762C183.28 182.989 165.058 186.326 161.519 195.174C161.43 195.387 161.127 195.387 160.926 195.499C169.438 206.967 179.125 206.665 184.692 205.13C189.485 193.74 214.203 188.219 213.161 172.763C205.859 174.69 198.008 173.67 189.776 169.762Z" fill="#2D2D2D"/>
<path d="M206.956 125.358C207.942 140.063 193.841 152.069 195.185 161.499C195.219 161.723 194.95 161.88 194.838 162.071C207.942 167.749 216.173 162.642 220.239 158.531C218.693 146.268 237.341 129.121 228.706 116.264C223.341 121.584 216.039 124.63 206.956 125.358Z" fill="#2D2D2D"/>
<path d="M199.642 78.3064C207.84 90.5477 201.636 107.997 207.515 115.489C207.65 115.669 207.504 115.937 207.493 116.161C221.683 114.526 226.264 105.992 227.72 100.392C220.25 90.5365 227.821 66.3787 213.922 59.5469C211.939 66.8379 207.135 73.1209 199.631 78.2952L199.642 78.3064Z" fill="#2D2D2D"/>
<path d="M169.775 41.2236C183.002 47.7195 186.34 65.9414 195.188 69.4805C195.4 69.5701 195.4 69.8725 195.512 70.0741C206.981 61.5623 206.678 51.8746 205.144 46.3083C193.754 41.5148 188.233 16.797 172.777 17.8386C174.703 25.1408 173.684 32.9918 169.775 41.2236Z" fill="#2D2D2D"/>
<path d="M125.366 24.0428C140.071 23.0572 152.077 37.1576 161.507 35.8137C161.731 35.7801 161.888 36.0489 162.078 36.1609C167.757 23.0572 162.65 14.8254 158.539 10.7599C146.276 12.3054 129.129 -6.34209 116.271 2.29289C121.591 7.65756 124.638 14.9598 125.366 24.0428Z" fill="#2D2D2D"/>
<path d="M143.109 68.7175C143.165 77.6549 143.479 86.6146 143.109 95.5632C142.751 101.745 139.536 111.96 134.799 116.988C144.767 116.361 157.545 115.98 167.502 116.921C156.594 110.481 161.409 59.0073 161.981 50.8203C161.981 50.8203 161.801 50.9323 161.465 51.1227C153.693 55.7146 145.315 59.3993 136.557 61.6728C140.455 62.1208 143.143 64.484 143.109 68.7175Z" fill="#2D2D2D"/>
<path d="M93.4279 163.747C90.8296 166.188 85.8793 167.846 82.3066 167.622C75.8891 167.219 70.7597 162.089 70.3565 155.672C70.1325 152.099 71.3533 148.694 73.7948 146.096C76.2027 143.531 79.5962 142.064 83.113 142.064C85.8905 142.064 88.5896 142.971 90.796 144.629L106.767 131.996C104.84 131.548 103.082 130.484 101.145 129.308C97.2246 126.933 92.3527 123.977 83.113 123.977C74.7244 123.977 66.8846 127.28 61.0271 133.284C55.1697 139.275 52.0561 147.205 52.2465 155.605C52.4369 163.523 55.6512 171.004 61.3071 176.66C66.963 182.316 74.4444 185.541 82.3626 185.721C86.2265 185.821 89.0936 185.497 92.5879 184.253C95.1303 176.626 93.4167 163.736 93.4167 163.736L93.4279 163.747Z" fill="#2D2D2D"/>
<path d="M113.106 168.518C113.162 166.693 113.286 164.878 113.476 163.098C113.599 161.989 113.745 160.902 113.913 159.827C114.238 157.845 113.7 155.818 112.457 154.261C111.225 152.715 109.455 151.808 107.473 151.685C104.259 151.495 102.657 151.73 101.123 151.954C98.9052 152.29 96.7885 152.603 90.707 151.719C91.8606 152.827 92.8462 154.149 93.6862 155.672C93.9885 156.221 94.2797 156.792 94.5373 157.397C94.7725 157.935 94.9853 158.506 95.1757 159.088C96.3629 162.571 96.9565 166.782 96.9117 171.71C96.8781 175.91 96.3965 179.886 95.8925 182.988C95.8253 183.425 95.7469 183.851 95.6797 184.254C95.6013 184.713 95.5117 185.15 95.4333 185.553C95.3437 186.012 95.2541 186.438 95.1757 186.819C96.4301 186.371 97.6957 186.203 98.9836 186.203C100.753 186.203 102.545 186.516 104.404 186.841C107.708 187.412 111.113 188.006 114.988 187.054C113.566 181.364 112.927 174.857 113.106 168.518Z" fill="#2D2D2D"/>
<path d="M140.231 147.743L143.446 150.106L142.953 127.561C137.577 128.099 129.177 128.065 121.83 127.191C125 130.764 128.46 137.786 128.46 148.796C128.46 151.338 128.472 153.757 128.494 156.075C128.595 171.699 128.662 182.092 123.577 187.345C127.9 187.076 132.347 186.942 136.636 186.942C141.788 186.942 146.716 187.132 150.972 187.513C147.836 183.929 145.719 177.422 144.588 169.784C134.732 164.386 140.231 147.765 140.231 147.765V147.743Z" fill="#2D2D2D"/>
<path d="M170.214 128.782C165.286 125.265 158.577 125.052 153.806 125.5C149.875 125.87 146.571 126.721 145.138 127.135L145.496 141.885C148.923 140.9 157.636 138.861 161.881 142.311C163.807 143.868 164.569 146.276 164.177 149.445C163.707 153.141 161.243 155.751 157.401 156.613C154.041 157.363 145.798 154.799 141.632 151.618C141.632 151.618 136.413 170.478 156.494 171.24C160.907 171.408 165.7 170.086 169.396 165.674C173.708 160.511 177.292 154.732 177.236 145.626C177.191 137.742 174.828 132.074 170.236 128.793L170.214 128.782Z" fill="#2D2D2D"/>
<path d="M100.913 94.7216C100.745 93.3553 100.611 91.9889 100.532 90.6113C97.2955 91.2049 94.0588 91.7761 90.8109 92.2913C88.3917 92.6609 85.9614 93.0081 83.5199 93.3217C83.7775 97.9247 83.3967 102.875 81.8175 107.221C81.5487 107.971 81.4031 108.766 81.3583 109.572C81.2015 112.899 80.9887 116.203 80.6191 119.518C84.5614 118.577 88.6381 118.263 92.6476 117.972C95.2124 117.703 98.0459 117.692 100.23 116.281C101.451 115.396 101.719 113.996 101.675 112.462C101.932 109.18 102.055 105.888 102.089 102.595C102.089 101.699 101.988 100.814 101.798 99.9295C101.428 98.1711 101.148 96.424 100.913 94.7216Z" fill="#2D2D2D"/>
<path d="M80.9643 71.4724C81.5579 72.066 82.2299 72.5028 82.9915 72.7267C85.7242 73.7683 89.5545 71.2708 89.5545 71.2708C89.5545 71.2708 88.2329 74.9443 85.601 76.5235C88.8377 75.8963 92.0072 75.2691 95.244 74.6531C97.3607 72.4468 100.138 69.098 101.751 66.4997C101.785 65.0885 101.818 63.6774 101.885 62.2774C102.031 59.5223 102.613 54.1688 105.1 51.4473C99.0855 52.724 92.8696 52.6456 86.7546 52.7688C85.4554 52.892 84.0666 53.2616 83.0363 54.0792C80.8523 55.7592 80.4491 58.7607 80.5387 61.3478C80.6843 64.7189 80.8299 68.0901 80.9755 71.4724H80.9643Z" fill="#2D2D2D"/>
<path d="M79.0374 108.857C79.1942 108.544 79.351 108.219 79.4966 107.894C79.911 106.976 80.2582 106.046 80.5606 105.094C81.0086 103.661 81.3557 102.182 81.5909 100.681C81.9717 98.3184 82.1061 95.9104 82.0725 93.5137C81.9157 93.5361 81.7589 93.5473 81.5909 93.5697C81.2885 93.6033 80.9862 93.6369 80.6838 93.6817C80.3814 93.7153 80.079 93.7489 79.7766 93.7825C75.3863 94.2753 70.9848 94.6224 66.5721 94.8128C65.7209 101.185 62.7866 107.435 57.3547 111.064C56.4924 111.612 55.5628 112.072 54.5996 112.43C59.5275 113.684 64.2538 115.958 69.3384 115.868C73.7287 115.801 77.1447 112.654 79.0374 108.88V108.857Z" fill="#2D2D2D"/>
<path d="M132.561 111.006C130.904 110.423 129.358 109.483 128.014 108.374C122.437 103.636 118.248 95.7405 116.546 88.2031C113.04 88.2255 108.56 89.1215 107.362 89.3567C106.018 89.6031 104.674 89.8607 103.33 90.1071C103.095 90.1519 102.86 90.1967 102.613 90.2415C102.378 90.2863 102.154 90.3311 101.919 90.3647C101.919 90.3647 101.908 90.3647 101.896 90.3647C101.908 90.4879 101.919 90.6111 101.93 90.7343C102.132 92.7502 102.434 94.755 102.815 96.7373C103.072 98.0701 103.375 99.3916 103.722 100.702C103.789 100.948 103.845 101.206 103.924 101.452C105.514 106.772 107.978 112.775 113.331 115.138C116.523 116.449 119.939 115.777 123.187 114.646C126.334 113.571 129.358 112.059 132.55 111.017L132.561 111.006Z" fill="#2D2D2D"/>
<path d="M69.0811 78.0023C70.5371 77.8343 72.0042 77.6215 73.4602 77.3863C75.5209 77.0503 77.5817 76.6919 79.6424 76.3112C79.9112 76.2664 80.1688 76.2104 80.4376 76.1656C80.6952 76.1208 80.9528 76.0648 81.2216 76.02C81.9048 75.8968 84.7495 74.844 85.4439 74.0824C83.7079 74.564 82.252 74.2392 81.0424 73.3768C80.7736 73.1864 80.516 72.9624 80.2696 72.7272C80.0008 72.4585 79.7432 72.1449 79.4968 71.8201C76.4057 67.5754 75.9129 59.0076 77.5033 54.8525C74.1546 54.2589 70.8058 54.8525 67.6251 55.9165C64.7356 56.846 61.8349 57.8988 58.7773 58.2684C61.1405 63.5771 62.2381 69.3673 65.262 74.34C66.3148 76.132 67.6363 76.9607 69.0811 77.9911V78.0023Z" fill="#2D2D2D"/>
<path d="M59.4484 93.0301C62.2371 93.0301 75.4416 92.3021 79.7647 91.8653C80.0671 91.8317 80.3695 91.8093 80.6606 91.7757C80.963 91.7421 81.2654 91.7085 81.5566 91.6861C81.7022 91.6749 81.8478 91.6525 82.0046 91.6413C82.2398 91.6189 82.475 91.5965 82.7102 91.5629C82.9342 91.5405 83.147 91.5181 83.371 91.4957C85.7677 91.2269 88.1645 90.9469 90.5612 90.6333C93.8651 90.219 105.278 88.3038 109.937 87.5646C126.58 84.9215 121.002 90.1406 121.226 92.0221C122.738 89.603 125.751 90.3534 126.49 85.8511C126.781 84.0927 126.736 82.2895 126.703 80.5088C126.669 76.7121 127.509 70.4626 117.082 71.5938C105.154 72.893 91.1884 78.1344 91.1884 78.1344C92.7788 76.9473 94.2683 75.6481 95.6683 74.2369C92.3084 74.9761 88.9484 75.7713 85.5885 76.5441C85.0061 76.6785 63.4467 82.2559 57.7908 78.8736C57.0404 80.8 60.5123 86.7246 59.4484 93.0413V93.0301Z" fill="#2D2D2D"/>
<path d="M105.728 50.115C105.728 50.115 105.773 50.115 105.807 50.115C108.282 50.2158 108.069 53.6541 107.8 55.9837C106.49 67.2618 95.7604 75.516 95.6484 75.6504C95.6484 75.6504 105.303 69.5801 115.875 68.9306C116.648 68.8858 120.142 69.3225 122.08 66.1306C124.365 62.3563 124.779 54.8525 125.406 49.9134C119.033 50.9102 112.235 47.8079 106.087 49.6894C106.053 49.6894 106.019 49.7118 105.997 49.723C105.997 49.723 105.975 49.723 105.963 49.723C105.415 49.891 104.877 50.1038 104.351 50.3614C104.855 50.1822 105.303 50.1038 105.683 50.1038C105.695 50.1038 105.706 50.1038 105.717 50.1038L105.728 50.115Z" fill="#2D2D2D"/>
</svg>
